<?xml version="1.0" encoding="UTF-8" standalone="no"?>
<!-- Created with Inkscape (http://www.inkscape.org/) -->
<svg
   xmlns:dc="http://purl.org/dc/elements/1.1/"
   xmlns:cc="http://creativecommons.org/ns#"
   xmlns:rdf="http://www.w3.org/1999/02/22-rdf-syntax-ns#"
   xmlns:svg="http://www.w3.org/2000/svg"
   xmlns="http://www.w3.org/2000/svg"
   xmlns:sodipodi="http://sodipodi.sourceforge.net/DTD/sodipodi-0.dtd"
   xmlns:inkscape="http://www.inkscape.org/namespaces/inkscape"
   width="1000"
   height="1000"
   id="svg2"
   sodipodi:version="0.32"
   inkscape:version="0.46"
   version="1.0"
   sodipodi:docname="#.svg"
   inkscape:output_extension="org.inkscape.output.svg.inkscape">
  <defs
     id="defs4">
    <inkscape:perspective
       sodipodi:type="inkscape:persp3d"
       inkscape:vp_x="0 : 526.18109 : 1"
       inkscape:vp_y="0 : 1000 : 0"
       inkscape:vp_z="744.09448 : 526.18109 : 1"
       inkscape:persp3d-origin="372.04724 : 350.78739 : 1"
       id="perspective10" />
    <inkscape:perspective
       id="perspective2474"
       inkscape:persp3d-origin="372.04724 : 350.78739 : 1"
       inkscape:vp_z="744.09448 : 526.18109 : 1"
       inkscape:vp_y="0 : 1000 : 0"
       inkscape:vp_x="0 : 526.18109 : 1"
       sodipodi:type="inkscape:persp3d" />
  </defs>
  <sodipodi:namedview
     id="base"
     pagecolor="#ffffff"
     bordercolor="#666666"
     borderopacity="1.0"
     gridtolerance="10000"
     guidetolerance="10"
     objecttolerance="10"
     inkscape:pageopacity="0.0"
     inkscape:pageshadow="2"
     inkscape:zoom="0.38038936"
     inkscape:cx="460.33853"
     inkscape:cy="443.03854"
     inkscape:document-units="px"
     inkscape:current-layer="layer2"
     showgrid="false"
     showguides="true"
     inkscape:guide-bbox="true"
     inkscape:window-width="1280"
     inkscape:window-height="725"
     inkscape:window-x="0"
     inkscape:window-y="0">
    <sodipodi:guide
       orientation="1,0"
       position="199.94098,845.19011"
       id="guide2383" />
    <sodipodi:guide
       orientation="0,1"
       position="91.310092,799.95076"
       id="guide2385" />
    <sodipodi:guide
       orientation="0,1"
       position="86.895609,200.04577"
       id="guide2387" />
  </sodipodi:namedview>
  <metadata
     id="metadata7">
    <rdf:RDF>
      <cc:Work
         rdf:about="">
        <dc:format>image/svg+xml</dc:format>
        <dc:type
           rdf:resource="http://purl.org/dc/dcmitype/StillImage" />
      </cc:Work>
    </rdf:RDF>
  </metadata>
  <g
     inkscape:groupmode="layer"
     id="layer2"
     inkscape:label="background">
    <path
       id="path3375"
       style="fill:#0b0b0b"
       d="M -8673.6177,-708.55447 C -8701.4711,-720.65582 -8709.7809,-760.68296 -8708.1768,-875.02028 C -8707.3682,-932.66256 -8708.9194,-993.38109 -8711.6239,-1009.9503 C -8719.0966,-1055.7309 -8705.3445,-1077.2182 -8660.1663,-1090.3519 C -8595.6075,-1109.1197 -8587.3997,-1109.4226 -8555.95,-1094.198 C -8523.2509,-1078.3687 -8508.2624,-1046.0499 -8516.412,-1008.9451 C -8520.1065,-992.12381 -8517.2095,-987.85414 -8487.7327,-966.6772 C -8412.2312,-912.43475 -8406.9001,-841.82393 -8473.0479,-772.17582 C -8521.0366,-721.64767 -8626.6477,-688.14755 -8673.6177,-708.55447 zM -8548.9766,-767.24163 C -8489.7976,-793.26559 -8455.3385,-856.86515 -8479.4598,-895.54517 C -8505.8307,-937.83238 -8555.6936,-947.67878 -8595.9161,-918.54174 C -8610.2523,-908.15663 -8631.2408,-894.87181 -8642.5571,-889.01991 C -8662.4918,-878.71129 -8663.1322,-877.03873 -8663.1322,-835.28609 C -8663.1322,-749.76929 -8631.5362,-730.93589 -8548.9766,-767.24163 zM -8604.4956,-973.26399 C -8544.356,-1004.3634 -8558.6827,-1071.8874 -8622.2477,-1056.9322 C -8645.2123,-1051.5292 -8647.3819,-1048.8823 -8655.327,-1016.5758 C -8667.7811,-965.93432 -8649.2325,-950.12966 -8604.4956,-973.26399 z" />
    <path
       id="path3355"
       style="fill:#0b0b0b"
       d="M 240.22909,799.95423 C 234.26264,792.7641 237.94012,773.80881 256.27567,717.26129 C 289.03841,616.21183 287.21125,605.51557 240.43136,624.52235 C 206.51409,638.30276 193.20002,636.27621 188.25774,616.58064 C 182.50575,593.66786 183.41476,593.11321 247.72172,580.25863 C 307.53602,568.30157 334.07399,546.18447 334.07399,508.28804 C 334.07399,486.74983 326.26577,483.92845 289.47707,492.17301 C 262.85015,498.1402 255.73953,497.5758 246.96198,488.7982 C 229.57869,471.41549 245.35781,455.81684 282.79353,453.37472 C 350.80416,448.93826 377.36406,423.35539 393.61718,346.62774 C 410.34247,267.66605 428.58054,251.83173 428.58054,316.27138 C 428.58054,340.18809 423.93375,366.28776 417.14116,380.53344 C 400.64373,415.12676 412.76061,425.97529 458.2379,417.33128 C 510.13493,407.46698 518.42385,396.29148 543.04388,302.99947 C 558.93571,242.77471 572.00913,220.46839 587.85039,226.54688 C 601.55865,231.8075 599.55724,260.68129 581.68472,315.50445 C 561.53785,377.30554 563.49538,380.01685 621.04204,369.99569 C 663.20316,362.65348 667.86335,363.01611 676.09927,374.28004 C 697.01442,402.88358 690.0159,408.34142 621.51665,416.84573 C 559.06853,424.59875 542.14889,437.14886 531.51798,483.6004 C 521.843,525.88217 523.17422,526.93088 579.96418,521.78462 C 620.29692,518.12977 629.70139,519.14971 632.91644,527.52777 C 638.66416,542.50644 618.828,567.56869 604.75968,563.10346 C 586.3437,557.25838 521.00283,572.07761 508.36321,584.96585 C 497.7975,595.74106 469.12652,690.10524 469.04854,714.36015 C 469.03148,720.15821 461.64364,734.01516 452.63336,745.15339 C 437.28864,764.122 435.5218,764.68951 424.7404,754.11291 C 412.69237,742.29424 415.45047,729.65561 452.57548,626.54562 C 457.34778,613.28973 459.09878,598.95769 456.46497,594.69663 C 445.33325,576.6863 366.50956,588.8663 345.75404,611.80372 C 326.25236,633.35625 287.08452,733.4879 286.91941,762.21506 C 286.71958,796.85702 257.3571,820.59113 240.22909,799.95423 z M 440.95514,539.08403 C 466.61091,532.60034 471.87792,527.912 483.80898,500.94224 C 502.88295,457.82205 493.00021,447.66417 445.79568,461.87044 C 398.09216,476.22728 382.98201,488.2965 373.6281,519.51687 C 364.17123,551.08226 372.67949,562.75079 397.58161,552.36587 C 405.34901,549.12662 424.86652,543.1498 440.95514,539.08403 z" />
  </g>
  <g
     inkscape:label="Layer 1"
     inkscape:groupmode="layer"
     id="layer1" />
</svg>
