<?xml version="1.0" encoding="UTF-8" standalone="no"?>
<!-- Created with Inkscape (http://www.inkscape.org/) -->
<svg
   xmlns:dc="http://purl.org/dc/elements/1.1/"
   xmlns:cc="http://creativecommons.org/ns#"
   xmlns:rdf="http://www.w3.org/1999/02/22-rdf-syntax-ns#"
   xmlns:svg="http://www.w3.org/2000/svg"
   xmlns="http://www.w3.org/2000/svg"
   xmlns:sodipodi="http://sodipodi.sourceforge.net/DTD/sodipodi-0.dtd"
   xmlns:inkscape="http://www.inkscape.org/namespaces/inkscape"
   width="1000"
   height="1000"
   id="svg2"
   sodipodi:version="0.32"
   inkscape:version="0.46"
   version="1.0"
   sodipodi:docname="$.svg"
   inkscape:output_extension="org.inkscape.output.svg.inkscape">
  <defs
     id="defs4">
    <inkscape:perspective
       sodipodi:type="inkscape:persp3d"
       inkscape:vp_x="0 : 526.18109 : 1"
       inkscape:vp_y="0 : 1000 : 0"
       inkscape:vp_z="744.09448 : 526.18109 : 1"
       inkscape:persp3d-origin="372.04724 : 350.78739 : 1"
       id="perspective10" />
    <inkscape:perspective
       id="perspective2474"
       inkscape:persp3d-origin="372.04724 : 350.78739 : 1"
       inkscape:vp_z="744.09448 : 526.18109 : 1"
       inkscape:vp_y="0 : 1000 : 0"
       inkscape:vp_x="0 : 526.18109 : 1"
       sodipodi:type="inkscape:persp3d" />
  </defs>
  <sodipodi:namedview
     id="base"
     pagecolor="#ffffff"
     bordercolor="#666666"
     borderopacity="1.0"
     gridtolerance="10000"
     guidetolerance="10"
     objecttolerance="10"
     inkscape:pageopacity="0.0"
     inkscape:pageshadow="2"
     inkscape:zoom="0.38038936"
     inkscape:cx="460.33853"
     inkscape:cy="443.03854"
     inkscape:document-units="px"
     inkscape:current-layer="layer2"
     showgrid="false"
     showguides="true"
     inkscape:guide-bbox="true"
     inkscape:window-width="1280"
     inkscape:window-height="725"
     inkscape:window-x="0"
     inkscape:window-y="0">
    <sodipodi:guide
       orientation="1,0"
       position="199.94098,845.19011"
       id="guide2383" />
    <sodipodi:guide
       orientation="0,1"
       position="91.310092,799.95076"
       id="guide2385" />
    <sodipodi:guide
       orientation="0,1"
       position="86.895609,200.04577"
       id="guide2387" />
  </sodipodi:namedview>
  <metadata
     id="metadata7">
    <rdf:RDF>
      <cc:Work
         rdf:about="">
        <dc:format>image/svg+xml</dc:format>
        <dc:type
           rdf:resource="http://purl.org/dc/dcmitype/StillImage" />
      </cc:Work>
    </rdf:RDF>
  </metadata>
  <g
     inkscape:groupmode="layer"
     id="layer2"
     inkscape:label="background">
    <path
       id="path3375"
       style="fill:#0b0b0b"
       d="M -8673.6177,-708.55447 C -8701.4711,-720.65582 -8709.7809,-760.68296 -8708.1768,-875.02028 C -8707.3682,-932.66256 -8708.9194,-993.38109 -8711.6239,-1009.9503 C -8719.0966,-1055.7309 -8705.3445,-1077.2182 -8660.1663,-1090.3519 C -8595.6075,-1109.1197 -8587.3997,-1109.4226 -8555.95,-1094.198 C -8523.2509,-1078.3687 -8508.2624,-1046.0499 -8516.412,-1008.9451 C -8520.1065,-992.12381 -8517.2095,-987.85414 -8487.7327,-966.6772 C -8412.2312,-912.43475 -8406.9001,-841.82393 -8473.0479,-772.17582 C -8521.0366,-721.64767 -8626.6477,-688.14755 -8673.6177,-708.55447 zM -8548.9766,-767.24163 C -8489.7976,-793.26559 -8455.3385,-856.86515 -8479.4598,-895.54517 C -8505.8307,-937.83238 -8555.6936,-947.67878 -8595.9161,-918.54174 C -8610.2523,-908.15663 -8631.2408,-894.87181 -8642.5571,-889.01991 C -8662.4918,-878.71129 -8663.1322,-877.03873 -8663.1322,-835.28609 C -8663.1322,-749.76929 -8631.5362,-730.93589 -8548.9766,-767.24163 zM -8604.4956,-973.26399 C -8544.356,-1004.3634 -8558.6827,-1071.8874 -8622.2477,-1056.9322 C -8645.2123,-1051.5292 -8647.3819,-1048.8823 -8655.327,-1016.5758 C -8667.7811,-965.93432 -8649.2325,-950.12966 -8604.4956,-973.26399 z" />
    <path
       id="path3367"
       style="fill:#0b0b0b"
       d="M 335.5247,831.99471 C 329.76555,825.05613 328.49761,811.02312 331.54811,788.02204 C 337.4025,743.89144 329.55188,731.02418 290.17915,720.21725 C 272.35776,715.32577 255.34341,707.28639 252.3686,702.35196 C 249.39379,697.41751 242.66277,693.38024 237.41336,693.38024 C 224.38231,693.38024 200.28409,666.472 200.28409,651.92081 C 200.28409,624.14766 218.36981,628.32734 284.56101,671.39766 C 324.34581,697.28597 340.26621,698.95632 349.02825,678.16154 C 354.60121,664.93347 376.14524,548.5641 376.14524,531.68704 C 376.14524,528.3221 362.28884,517.44846 345.35201,507.52338 C 309.5554,486.54476 301.74263,470.28735 301.74263,416.77648 C 301.74263,371.77785 333.05353,318.07847 376.26428,288.96794 C 404.63272,269.85626 416.16812,250.75216 416.48862,222.34965 C 416.79019,195.58406 437.41301,168.67054 453.02878,174.66283 C 469.96255,181.16047 473.95013,198.44733 465.65631,229.39964 C 457.50229,259.82982 473.14492,287.54805 498.47201,287.54805 C 520.16682,287.54805 545.92551,325.99343 537.14515,345.26577 C 527.29586,366.88379 520.91037,366.29706 497.89451,341.65895 C 460.6169,301.75321 442.48661,320.19996 430.61606,410.11224 C 419.71311,492.68019 422.59696,501.34918 467.57318,521.23988 C 559.09391,561.71476 578.89993,678.68475 501.87598,723.82408 C 486.10271,733.06735 457.02185,743.69786 437.25063,747.44741 C 399.91502,754.52805 385.73752,766.08414 379.10723,794.83828 C 368.4625,841.00961 353.55426,853.71943 335.5247,831.99471 z M 456.65374,696.23627 C 513.32225,673.56195 521.77113,601.06859 471.06689,572.57088 C 437.60165,553.763 418.02638,554.00574 410.53961,573.32159 C 401.49919,596.65244 388.2673,692.39766 393.02162,700.09073 C 399.18368,710.06084 426.19078,708.42486 456.65374,696.23627 z M 390.50283,443.48106 C 410.55365,345.44788 393.45078,307.13607 356.00102,366.18926 C 331.21114,405.27892 329.32479,436.77928 350.58739,456.58879 C 371.10033,475.69955 384.83647,471.18883 390.50283,443.48106 z" />
  </g>
  <g
     inkscape:label="Layer 1"
     inkscape:groupmode="layer"
     id="layer1" />
</svg>
