<?xml version="1.0" encoding="UTF-8" standalone="no"?>
<!-- Created with Inkscape (http://www.inkscape.org/) -->
<svg
   xmlns:dc="http://purl.org/dc/elements/1.1/"
   xmlns:cc="http://creativecommons.org/ns#"
   xmlns:rdf="http://www.w3.org/1999/02/22-rdf-syntax-ns#"
   xmlns:svg="http://www.w3.org/2000/svg"
   xmlns="http://www.w3.org/2000/svg"
   xmlns:sodipodi="http://sodipodi.sourceforge.net/DTD/sodipodi-0.dtd"
   xmlns:inkscape="http://www.inkscape.org/namespaces/inkscape"
   width="1000"
   height="1000"
   id="svg2"
   sodipodi:version="0.32"
   inkscape:version="0.46"
   version="1.0"
   sodipodi:docname="%.svg"
   inkscape:output_extension="org.inkscape.output.svg.inkscape">
  <defs
     id="defs4">
    <inkscape:perspective
       sodipodi:type="inkscape:persp3d"
       inkscape:vp_x="0 : 526.18109 : 1"
       inkscape:vp_y="0 : 1000 : 0"
       inkscape:vp_z="744.09448 : 526.18109 : 1"
       inkscape:persp3d-origin="372.04724 : 350.78739 : 1"
       id="perspective10" />
    <inkscape:perspective
       id="perspective2474"
       inkscape:persp3d-origin="372.04724 : 350.78739 : 1"
       inkscape:vp_z="744.09448 : 526.18109 : 1"
       inkscape:vp_y="0 : 1000 : 0"
       inkscape:vp_x="0 : 526.18109 : 1"
       sodipodi:type="inkscape:persp3d" />
  </defs>
  <sodipodi:namedview
     id="base"
     pagecolor="#ffffff"
     bordercolor="#666666"
     borderopacity="1.0"
     gridtolerance="10000"
     guidetolerance="10"
     objecttolerance="10"
     inkscape:pageopacity="0.0"
     inkscape:pageshadow="2"
     inkscape:zoom="0.38038936"
     inkscape:cx="460.33853"
     inkscape:cy="443.03854"
     inkscape:document-units="px"
     inkscape:current-layer="layer2"
     showgrid="false"
     showguides="true"
     inkscape:guide-bbox="true"
     inkscape:window-width="1280"
     inkscape:window-height="725"
     inkscape:window-x="0"
     inkscape:window-y="0">
    <sodipodi:guide
       orientation="1,0"
       position="199.94098,845.19011"
       id="guide2383" />
    <sodipodi:guide
       orientation="0,1"
       position="91.310092,799.95076"
       id="guide2385" />
    <sodipodi:guide
       orientation="0,1"
       position="86.895609,200.04577"
       id="guide2387" />
  </sodipodi:namedview>
  <metadata
     id="metadata7">
    <rdf:RDF>
      <cc:Work
         rdf:about="">
        <dc:format>image/svg+xml</dc:format>
        <dc:type
           rdf:resource="http://purl.org/dc/dcmitype/StillImage" />
      </cc:Work>
    </rdf:RDF>
  </metadata>
  <g
     inkscape:groupmode="layer"
     id="layer2"
     inkscape:label="background">
    <path
       id="path3375"
       style="fill:#0b0b0b"
       d="M -8673.6177,-708.55447 C -8701.4711,-720.65582 -8709.7809,-760.68296 -8708.1768,-875.02028 C -8707.3682,-932.66256 -8708.9194,-993.38109 -8711.6239,-1009.9503 C -8719.0966,-1055.7309 -8705.3445,-1077.2182 -8660.1663,-1090.3519 C -8595.6075,-1109.1197 -8587.3997,-1109.4226 -8555.95,-1094.198 C -8523.2509,-1078.3687 -8508.2624,-1046.0499 -8516.412,-1008.9451 C -8520.1065,-992.12381 -8517.2095,-987.85414 -8487.7327,-966.6772 C -8412.2312,-912.43475 -8406.9001,-841.82393 -8473.0479,-772.17582 C -8521.0366,-721.64767 -8626.6477,-688.14755 -8673.6177,-708.55447 zM -8548.9766,-767.24163 C -8489.7976,-793.26559 -8455.3385,-856.86515 -8479.4598,-895.54517 C -8505.8307,-937.83238 -8555.6936,-947.67878 -8595.9161,-918.54174 C -8610.2523,-908.15663 -8631.2408,-894.87181 -8642.5571,-889.01991 C -8662.4918,-878.71129 -8663.1322,-877.03873 -8663.1322,-835.28609 C -8663.1322,-749.76929 -8631.5362,-730.93589 -8548.9766,-767.24163 zM -8604.4956,-973.26399 C -8544.356,-1004.3634 -8558.6827,-1071.8874 -8622.2477,-1056.9322 C -8645.2123,-1051.5292 -8647.3819,-1048.8823 -8655.327,-1016.5758 C -8667.7811,-965.93432 -8649.2325,-950.12966 -8604.4956,-973.26399 z" />
    <path
       id="path3351"
       style="fill:#0b0b0b"
       d="M 219.02703,780.30807 C 206.01026,767.2913 208.82807,747.92373 226.2775,730.47475 C 250.76729,705.98438 358.63781,583.42128 403.54985,529.05575 C 524.61777,382.50421 558.27586,340.30089 558.27586,335.04896 C 558.27586,322.87652 539.09565,315.09105 499.56173,311.21773 C 454.88733,306.84061 444.92089,313.89923 434.95702,356.97403 C 428.59309,384.4846 365.55326,437.92559 322.65769,452.17335 C 287.98624,463.68945 285.01598,463.65888 262.54074,451.5559 C 249.53806,444.55339 238.89968,435.09297 238.89968,430.53292 C 238.89968,425.97276 230.91578,414.74073 221.15624,405.57287 C 195.37829,381.35604 196.49478,334.09569 223.86132,290.94191 C 248.1077,252.70928 272.33166,234.25802 324.10215,214.58631 L 362.36137,200.04924 L 393.48349,219.41835 C 473.78249,269.39144 479.1888,271.59637 524.40767,272.81618 C 560.7766,273.79713 575.05398,270.58096 602.43397,255.23973 C 664.15554,220.6552 685.33557,248.03583 637.86833,301.04696 C 623.09067,317.54964 596.95336,350.21429 579.78578,373.63525 C 562.61692,397.05618 521.21193,448.20028 487.77419,487.28863 C 406.97555,581.73974 367.08548,630.30405 342.11335,664.62279 C 313.70783,703.66185 238.54161,788.82479 232.49155,788.82479 C 229.77046,788.82479 223.71207,784.99227 219.02703,780.30807 z M 333.42803,405.41 C 369.7092,389.36093 409.23352,346.49348 409.23352,323.19237 C 409.23352,304.49168 353.14695,256.53059 331.27768,256.53059 C 271.53673,256.53059 225.43324,349.66277 260.67479,399.1544 C 278.05248,423.55945 290.06293,424.59219 333.42803,405.41 z M 421.25998,772.19195 C 393.0319,729.11068 423.37639,632.36438 484.18963,571.55074 C 536.38737,519.35259 568.86043,520.62914 610.58635,576.51958 C 643.39635,620.46811 643.76595,657.10695 611.8617,703.14453 C 564.20166,771.9183 448.53556,813.81947 421.25998,772.19195 z M 511.34414,729.28991 C 565.77807,706.54609 601.99135,648.15444 586.66409,607.8417 C 564.46557,549.4552 451.81778,634.82475 451.81778,710.03411 C 451.81778,742.09562 468.09434,747.36081 511.34414,729.28991 z" />
  </g>
  <g
     inkscape:label="Layer 1"
     inkscape:groupmode="layer"
     id="layer1" />
</svg>
