<?xml version="1.0" encoding="UTF-8" standalone="no"?>
<!-- Created with Inkscape (http://www.inkscape.org/) -->
<svg
   xmlns:dc="http://purl.org/dc/elements/1.1/"
   xmlns:cc="http://creativecommons.org/ns#"
   xmlns:rdf="http://www.w3.org/1999/02/22-rdf-syntax-ns#"
   xmlns:svg="http://www.w3.org/2000/svg"
   xmlns="http://www.w3.org/2000/svg"
   xmlns:sodipodi="http://sodipodi.sourceforge.net/DTD/sodipodi-0.dtd"
   xmlns:inkscape="http://www.inkscape.org/namespaces/inkscape"
   width="1000"
   height="1000"
   id="svg2"
   sodipodi:version="0.32"
   inkscape:version="0.46"
   version="1.0"
   sodipodi:docname="&amp;.svg"
   inkscape:output_extension="org.inkscape.output.svg.inkscape">
  <defs
     id="defs4">
    <inkscape:perspective
       sodipodi:type="inkscape:persp3d"
       inkscape:vp_x="0 : 526.18109 : 1"
       inkscape:vp_y="0 : 1000 : 0"
       inkscape:vp_z="744.09448 : 526.18109 : 1"
       inkscape:persp3d-origin="372.04724 : 350.78739 : 1"
       id="perspective10" />
    <inkscape:perspective
       id="perspective2474"
       inkscape:persp3d-origin="372.04724 : 350.78739 : 1"
       inkscape:vp_z="744.09448 : 526.18109 : 1"
       inkscape:vp_y="0 : 1000 : 0"
       inkscape:vp_x="0 : 526.18109 : 1"
       sodipodi:type="inkscape:persp3d" />
  </defs>
  <sodipodi:namedview
     id="base"
     pagecolor="#ffffff"
     bordercolor="#666666"
     borderopacity="1.0"
     gridtolerance="10000"
     guidetolerance="10"
     objecttolerance="10"
     inkscape:pageopacity="0.0"
     inkscape:pageshadow="2"
     inkscape:zoom="0.537"
     inkscape:cx="500"
     inkscape:cy="500"
     inkscape:document-units="px"
     inkscape:current-layer="layer2"
     showgrid="false"
     showguides="true"
     inkscape:guide-bbox="true"
     inkscape:window-width="1280"
     inkscape:window-height="725"
     inkscape:window-x="0"
     inkscape:window-y="0">
    <sodipodi:guide
       orientation="1,0"
       position="199.94098,845.19011"
       id="guide2383" />
    <sodipodi:guide
       orientation="0,1"
       position="91.310092,799.95076"
       id="guide2385" />
    <sodipodi:guide
       orientation="0,1"
       position="86.895609,200.04577"
       id="guide2387" />
    <sodipodi:guide
       orientation="0,1"
       position="449.53939,552.06592"
       id="guide4318" />
  </sodipodi:namedview>
  <metadata
     id="metadata7">
    <rdf:RDF>
      <cc:Work
         rdf:about="">
        <dc:format>image/svg+xml</dc:format>
        <dc:type
           rdf:resource="http://purl.org/dc/dcmitype/StillImage" />
      </cc:Work>
    </rdf:RDF>
  </metadata>
  <g
     inkscape:groupmode="layer"
     id="layer2"
     inkscape:label="background">
    <path
       id="path3375"
       style="fill:#0b0b0b"
       d="M -8673.6177,-708.55447 C -8701.4711,-720.65582 -8709.7809,-760.68296 -8708.1768,-875.02028 C -8707.3682,-932.66256 -8708.9194,-993.38109 -8711.6239,-1009.9503 C -8719.0966,-1055.7309 -8705.3445,-1077.2182 -8660.1663,-1090.3519 C -8595.6075,-1109.1197 -8587.3997,-1109.4226 -8555.95,-1094.198 C -8523.2509,-1078.3687 -8508.2624,-1046.0499 -8516.412,-1008.9451 C -8520.1065,-992.12381 -8517.2095,-987.85414 -8487.7327,-966.6772 C -8412.2312,-912.43475 -8406.9001,-841.82393 -8473.0479,-772.17582 C -8521.0366,-721.64767 -8626.6477,-688.14755 -8673.6177,-708.55447 zM -8548.9766,-767.24163 C -8489.7976,-793.26559 -8455.3385,-856.86515 -8479.4598,-895.54517 C -8505.8307,-937.83238 -8555.6936,-947.67878 -8595.9161,-918.54174 C -8610.2523,-908.15663 -8631.2408,-894.87181 -8642.5571,-889.01991 C -8662.4918,-878.71129 -8663.1322,-877.03873 -8663.1322,-835.28609 C -8663.1322,-749.76929 -8631.5362,-730.93589 -8548.9766,-767.24163 zM -8604.4956,-973.26399 C -8544.356,-1004.3634 -8558.6827,-1071.8874 -8622.2477,-1056.9322 C -8645.2123,-1051.5292 -8647.3819,-1048.8823 -8655.327,-1016.5758 C -8667.7811,-965.93432 -8649.2325,-950.12966 -8604.4956,-973.26399 z" />
    <path
       id="path3451"
       style="fill:#0b0b0b"
       d="M 645.21006,886.84603 C 630.26845,879.17143 613.58915,867.52543 608.14541,860.96603 C 602.70236,854.40663 595.12342,849.03993 591.30546,849.03993 C 587.48613,849.03993 575.24682,843.06723 564.10531,835.76753 C 546.43669,824.19083 527.7183,822.82883 417.58991,825.10783 C 278.67404,827.98253 251.94145,822.48673 215.9547,783.65573 C 180.81998,745.74533 190.82385,695.9554 253.91599,594.72896 C 294.78075,529.1635 294.23287,535.86929 264.00156,471.12434 C 228.25374,394.56436 228.28052,321.32015 264.0764,265.44093 C 313.87742,187.69941 384.35353,133.90656 436.14901,134.10215 C 492.86919,134.31642 512.79248,168.70293 506.80568,256.05136 C 502.10686,324.60429 492.43666,345.50944 429.75507,422.60445 C 404.04408,454.22833 376.7842,489.85551 369.17711,501.77606 L 355.34841,523.44964 L 412.94945,608.27347 C 444.6294,654.92653 484.25698,708.50133 501.00974,727.32853 L 531.47036,761.55983 L 546.7731,743.60143 C 565.36309,721.78583 567.81137,665.48864 550.78536,651.35825 C 541.04925,643.27851 543.14463,637.72184 565.99885,611.02265 C 580.57727,593.99195 592.5042,577.37127 592.5042,574.08776 C 592.5042,560.42126 624.44985,550.62123 634.72903,561.13459 C 654.69557,581.55655 655.07112,608.57771 635.78702,636.99569 C 623.56762,655.00081 617.39887,674.79935 617.39887,696.00811 C 617.39887,713.56233 611.26034,739.32473 603.75623,753.25783 C 586.45629,785.38283 591.83961,798.86913 629.66565,818.16643 C 662.24087,834.78503 683.78788,859.68533 683.78788,880.71143 C 683.78788,900.68293 674.90036,902.09613 645.21006,886.84603 z M 452.58664,777.40203 C 460.41411,757.00243 351.21875,590.40326 330.02052,590.40326 C 316.87838,590.40326 260.04835,676.95171 248.78945,714.11473 C 239.02999,746.32563 258.36902,777.40823 291.07264,782.07373 C 350.48894,790.55043 448.62999,787.71183 452.58664,777.40203 z M 371.24366,417.34492 C 455.39124,305.37284 482.51105,219.05712 443.6744,186.82384 C 418.74059,166.13208 314.00924,252.62063 288.77747,314.73905 C 271.09991,358.25673 294.89884,468.69188 321.95343,468.69188 C 327.84,468.69188 350.02002,445.58576 371.24366,417.34492 z" />
  </g>
  <g
     inkscape:label="Layer 1"
     inkscape:groupmode="layer"
     id="layer1" />
</svg>
