<?xml version="1.0" encoding="UTF-8" standalone="no"?>
<!-- Created with Inkscape (http://www.inkscape.org/) -->
<svg
   xmlns:dc="http://purl.org/dc/elements/1.1/"
   xmlns:cc="http://creativecommons.org/ns#"
   xmlns:rdf="http://www.w3.org/1999/02/22-rdf-syntax-ns#"
   xmlns:svg="http://www.w3.org/2000/svg"
   xmlns="http://www.w3.org/2000/svg"
   xmlns:sodipodi="http://sodipodi.sourceforge.net/DTD/sodipodi-0.dtd"
   xmlns:inkscape="http://www.inkscape.org/namespaces/inkscape"
   width="1000"
   height="1000"
   id="svg2"
   sodipodi:version="0.32"
   inkscape:version="0.46"
   version="1.0"
   sodipodi:docname="@.svg"
   inkscape:output_extension="org.inkscape.output.svg.inkscape">
  <defs
     id="defs4">
    <inkscape:perspective
       sodipodi:type="inkscape:persp3d"
       inkscape:vp_x="0 : 526.18109 : 1"
       inkscape:vp_y="0 : 1000 : 0"
       inkscape:vp_z="744.09448 : 526.18109 : 1"
       inkscape:persp3d-origin="372.04724 : 350.78739 : 1"
       id="perspective10" />
    <inkscape:perspective
       id="perspective2474"
       inkscape:persp3d-origin="372.04724 : 350.78739 : 1"
       inkscape:vp_z="744.09448 : 526.18109 : 1"
       inkscape:vp_y="0 : 1000 : 0"
       inkscape:vp_x="0 : 526.18109 : 1"
       sodipodi:type="inkscape:persp3d" />
  </defs>
  <sodipodi:namedview
     id="base"
     pagecolor="#ffffff"
     bordercolor="#666666"
     borderopacity="1.0"
     gridtolerance="10000"
     guidetolerance="10"
     objecttolerance="10"
     inkscape:pageopacity="0.0"
     inkscape:pageshadow="2"
     inkscape:zoom="0.38038936"
     inkscape:cx="460.33853"
     inkscape:cy="443.03854"
     inkscape:document-units="px"
     inkscape:current-layer="layer2"
     showgrid="false"
     showguides="true"
     inkscape:guide-bbox="true"
     inkscape:window-width="1280"
     inkscape:window-height="725"
     inkscape:window-x="0"
     inkscape:window-y="0">
    <sodipodi:guide
       orientation="1,0"
       position="199.94098,845.19011"
       id="guide2383" />
    <sodipodi:guide
       orientation="0,1"
       position="91.310092,799.95076"
       id="guide2385" />
    <sodipodi:guide
       orientation="0,1"
       position="86.895609,200.04577"
       id="guide2387" />
  </sodipodi:namedview>
  <metadata
     id="metadata7">
    <rdf:RDF>
      <cc:Work
         rdf:about="">
        <dc:format>image/svg+xml</dc:format>
        <dc:type
           rdf:resource="http://purl.org/dc/dcmitype/StillImage" />
      </cc:Work>
    </rdf:RDF>
  </metadata>
  <g
     inkscape:groupmode="layer"
     id="layer2"
     inkscape:label="background">
    <path
       id="path3375"
       style="fill:#0b0b0b"
       d="M -8673.6177,-708.55447 C -8701.4711,-720.65582 -8709.7809,-760.68296 -8708.1768,-875.02028 C -8707.3682,-932.66256 -8708.9194,-993.38109 -8711.6239,-1009.9503 C -8719.0966,-1055.7309 -8705.3445,-1077.2182 -8660.1663,-1090.3519 C -8595.6075,-1109.1197 -8587.3997,-1109.4226 -8555.95,-1094.198 C -8523.2509,-1078.3687 -8508.2624,-1046.0499 -8516.412,-1008.9451 C -8520.1065,-992.12381 -8517.2095,-987.85414 -8487.7327,-966.6772 C -8412.2312,-912.43475 -8406.9001,-841.82393 -8473.0479,-772.17582 C -8521.0366,-721.64767 -8626.6477,-688.14755 -8673.6177,-708.55447 zM -8548.9766,-767.24163 C -8489.7976,-793.26559 -8455.3385,-856.86515 -8479.4598,-895.54517 C -8505.8307,-937.83238 -8555.6936,-947.67878 -8595.9161,-918.54174 C -8610.2523,-908.15663 -8631.2408,-894.87181 -8642.5571,-889.01991 C -8662.4918,-878.71129 -8663.1322,-877.03873 -8663.1322,-835.28609 C -8663.1322,-749.76929 -8631.5362,-730.93589 -8548.9766,-767.24163 zM -8604.4956,-973.26399 C -8544.356,-1004.3634 -8558.6827,-1071.8874 -8622.2477,-1056.9322 C -8645.2123,-1051.5292 -8647.3819,-1048.8823 -8655.327,-1016.5758 C -8667.7811,-965.93432 -8649.2325,-950.12966 -8604.4956,-973.26399 z" />
    <path
       id="path3337"
       style="fill:#0b0b0b"
       d="M 275.60501,758.50931 C 176.08635,706.01316 175.70567,526.50877 274.84365,399.63084 C 379.02075,266.30359 527.03564,191.88993 623.15476,224.51925 C 743.79281,265.47218 809.89133,348.72961 802.22593,450.08033 C 795.82783,534.68586 780.18073,558.30522 698.60165,606.51149 C 613.08911,657.04123 576.91043,658.7997 540.78074,614.18221 C 528.63674,599.18474 528.16928,599.23599 505.56845,618.04538 C 492.9717,628.52966 475.09019,641.09043 465.83209,645.95817 C 444.50416,657.17186 354.73415,648.94907 354.73415,635.78182 C 354.73415,630.73607 346.01068,618.41323 335.35021,608.39777 C 308.12523,582.8222 310.49329,554.59465 343.25214,514.15163 C 358.25895,495.62446 381.4084,467.05638 394.69445,450.6669 C 422.11187,416.84509 476.21824,390.12145 503.33335,397.00771 C 528.85857,403.48944 554.33969,421.04667 593.74646,459.30267 C 626.2156,490.82348 627.39963,493.51066 618.39135,515.25809 C 613.18638,527.82253 604.06963,542.13457 598.13269,547.0625 C 584.20215,558.62388 584.31062,580.72694 598.35382,592.38246 C 607.03321,599.58476 617.67338,597.31988 648.46514,581.71609 C 760.38462,525.00234 795.00979,441.07694 741.592,355.99054 C 716.94292,316.72981 683.34573,283.52912 667.75811,283.03193 C 662.95061,282.87861 654.6729,277.51954 649.36366,271.12298 C 634.61787,253.35463 538.16565,255.75789 495.88488,274.94708 C 402.06384,317.52819 276.34328,430.66933 265.00542,482.7265 C 262.49041,494.27636 257.43659,512.44896 253.77534,523.10985 C 226.43279,602.74208 249.59625,696.28043 302.95875,721.72738 C 328.20685,733.76736 335.61263,733.43571 439.11375,715.63069 C 522.55704,701.27626 548.5693,699.13028 548.5693,706.60087 C 548.5693,746.40037 331.06196,787.76282 275.60501,758.50931 z M 494.35866,554.99295 C 525.5416,522.21341 540.18942,467.38324 523.22743,446.94386 C 499.75117,418.65735 430.90252,457.96407 400.54392,516.98596 C 381.21246,554.56897 381.75409,559.21556 407.06867,572.94923 C 442.37053,592.10041 463.11974,587.83203 494.35866,554.99295 z" />
  </g>
  <g
     inkscape:label="Layer 1"
     inkscape:groupmode="layer"
     id="layer1" />
</svg>
