<?xml version="1.0" encoding="UTF-8" standalone="no"?>
<!-- Created with Inkscape (http://www.inkscape.org/) -->
<svg
   xmlns:dc="http://purl.org/dc/elements/1.1/"
   xmlns:cc="http://creativecommons.org/ns#"
   xmlns:rdf="http://www.w3.org/1999/02/22-rdf-syntax-ns#"
   xmlns:svg="http://www.w3.org/2000/svg"
   xmlns="http://www.w3.org/2000/svg"
   xmlns:sodipodi="http://sodipodi.sourceforge.net/DTD/sodipodi-0.dtd"
   xmlns:inkscape="http://www.inkscape.org/namespaces/inkscape"
   width="1000"
   height="1000"
   id="svg2"
   sodipodi:version="0.32"
   inkscape:version="0.46"
   version="1.0"
   sodipodi:docname="congruent.svg"
   inkscape:output_extension="org.inkscape.output.svg.inkscape">
  <defs
     id="defs4">
    <inkscape:perspective
       sodipodi:type="inkscape:persp3d"
       inkscape:vp_x="0 : 526.18109 : 1"
       inkscape:vp_y="0 : 1000 : 0"
       inkscape:vp_z="744.09448 : 526.18109 : 1"
       inkscape:persp3d-origin="372.04724 : 350.78739 : 1"
       id="perspective10" />
    <inkscape:perspective
       id="perspective2474"
       inkscape:persp3d-origin="372.04724 : 350.78739 : 1"
       inkscape:vp_z="744.09448 : 526.18109 : 1"
       inkscape:vp_y="0 : 1000 : 0"
       inkscape:vp_x="0 : 526.18109 : 1"
       sodipodi:type="inkscape:persp3d" />
  </defs>
  <sodipodi:namedview
     id="base"
     pagecolor="#ffffff"
     bordercolor="#666666"
     borderopacity="1.0"
     gridtolerance="10000"
     guidetolerance="10"
     objecttolerance="10"
     inkscape:pageopacity="0.0"
     inkscape:pageshadow="2"
     inkscape:zoom="0.37971634"
     inkscape:cx="500"
     inkscape:cy="500"
     inkscape:document-units="px"
     inkscape:current-layer="layer2"
     showgrid="false"
     showguides="true"
     inkscape:guide-bbox="true"
     inkscape:window-width="1280"
     inkscape:window-height="725"
     inkscape:window-x="0"
     inkscape:window-y="0">
    <sodipodi:guide
       orientation="1,0"
       position="199.94098,845.19011"
       id="guide2383" />
    <sodipodi:guide
       orientation="0,1"
       position="91.310092,799.95076"
       id="guide2385" />
    <sodipodi:guide
       orientation="0,1"
       position="86.895609,200.04577"
       id="guide2387" />
    <sodipodi:guide
       orientation="0,1"
       position="449.53939,552.06592"
       id="guide4318" />
  </sodipodi:namedview>
  <metadata
     id="metadata7">
    <rdf:RDF>
      <cc:Work
         rdf:about="">
        <dc:format>image/svg+xml</dc:format>
        <dc:type
           rdf:resource="http://purl.org/dc/dcmitype/StillImage" />
      </cc:Work>
    </rdf:RDF>
  </metadata>
  <g
     inkscape:groupmode="layer"
     id="layer2"
     inkscape:label="background">
    <path
       id="path3375"
       style="fill:#0b0b0b"
       d="M -8673.6177,-708.55447 C -8701.4711,-720.65582 -8709.7809,-760.68296 -8708.1768,-875.02028 C -8707.3682,-932.66256 -8708.9194,-993.38109 -8711.6239,-1009.9503 C -8719.0966,-1055.7309 -8705.3445,-1077.2182 -8660.1663,-1090.3519 C -8595.6075,-1109.1197 -8587.3997,-1109.4226 -8555.95,-1094.198 C -8523.2509,-1078.3687 -8508.2624,-1046.0499 -8516.412,-1008.9451 C -8520.1065,-992.12381 -8517.2095,-987.85414 -8487.7327,-966.6772 C -8412.2312,-912.43475 -8406.9001,-841.82393 -8473.0479,-772.17582 C -8521.0366,-721.64767 -8626.6477,-688.14755 -8673.6177,-708.55447 zM -8548.9766,-767.24163 C -8489.7976,-793.26559 -8455.3385,-856.86515 -8479.4598,-895.54517 C -8505.8307,-937.83238 -8555.6936,-947.67878 -8595.9161,-918.54174 C -8610.2523,-908.15663 -8631.2408,-894.87181 -8642.5571,-889.01991 C -8662.4918,-878.71129 -8663.1322,-877.03873 -8663.1322,-835.28609 C -8663.1322,-749.76929 -8631.5362,-730.93589 -8548.9766,-767.24163 zM -8604.4956,-973.26399 C -8544.356,-1004.3634 -8558.6827,-1071.8874 -8622.2477,-1056.9322 C -8645.2123,-1051.5292 -8647.3819,-1048.8823 -8655.327,-1016.5758 C -8667.7811,-965.93432 -8649.2325,-950.12966 -8604.4956,-973.26399 z" />
    <path
       id="path3561"
       style="fill:#0b0b0b"
       d="M 443.81535,660.28777 C 419.63335,644.97677 337.18936,639.93797 277.60892,650.12957 C 231.02021,658.09877 218.8349,653.96087 218.8349,630.17087 C 218.8349,613.37157 226.89589,608.81827 257.91164,608.09827 C 271.83823,607.77497 324.81139,605.47177 375.62964,602.97977 L 468.02656,598.44897 L 481.67856,613.16887 C 508.86252,642.47897 477.44279,681.57917 443.81535,660.28777 z M 431.62776,526.82582 C 413.24101,520.61013 383.9031,516.24103 358.83022,515.98454 C 313.55239,515.52144 255.41311,504.14983 244.97945,493.71616 C 231.40644,480.14306 257.48473,476.65156 370.7273,476.88035 L 486.22095,477.11375 L 499.38271,491.12378 C 511.68512,504.21907 511.99372,506.11961 504.11044,520.23158 C 493.51342,539.20111 473.59574,541.01315 431.62776,526.82582 z M 420.4282,392.44678 C 415.80838,389.41328 402.3504,384.25343 390.52156,380.98041 C 378.69292,377.7075 358.25174,365.10857 345.09685,352.98279 C 331.94207,340.85712 316.23024,330.93604 310.18168,330.93604 C 297.03059,330.93604 274.83302,353.07351 274.83302,366.18918 C 274.83302,377.62355 248.64915,385.20683 236.16758,377.38727 C 222.09563,368.57136 222.77793,352.11051 238.37181,324.21003 C 255.94915,292.76074 259.98523,289.26868 291.17616,278.52252 C 320.23913,268.5095 333.97977,273.94277 386.82931,316.3457 C 432.40528,352.91274 457.28252,355.49401 479.34464,325.94509 C 507.95613,287.62449 538.0243,284.86027 538.0243,320.55068 C 538.0243,369.52304 459.04942,417.80683 420.4282,392.44678 z" />
  </g>
  <g
     inkscape:label="Layer 1"
     inkscape:groupmode="layer"
     id="layer1" />
</svg>
