<?xml version="1.0" encoding="UTF-8" standalone="no"?>
<!-- Created with Inkscape (http://www.inkscape.org/) -->
<svg
   xmlns:dc="http://purl.org/dc/elements/1.1/"
   xmlns:cc="http://creativecommons.org/ns#"
   xmlns:rdf="http://www.w3.org/1999/02/22-rdf-syntax-ns#"
   xmlns:svg="http://www.w3.org/2000/svg"
   xmlns="http://www.w3.org/2000/svg"
   xmlns:sodipodi="http://sodipodi.sourceforge.net/DTD/sodipodi-0.dtd"
   xmlns:inkscape="http://www.inkscape.org/namespaces/inkscape"
   width="1000"
   height="1000"
   id="svg2"
   sodipodi:version="0.32"
   inkscape:version="0.46"
   version="1.0"
   sodipodi:docname="O.svg"
   inkscape:output_extension="org.inkscape.output.svg.inkscape">
  <defs
     id="defs4">
    <inkscape:perspective
       sodipodi:type="inkscape:persp3d"
       inkscape:vp_x="0 : 526.18109 : 1"
       inkscape:vp_y="0 : 1000 : 0"
       inkscape:vp_z="744.09448 : 526.18109 : 1"
       inkscape:persp3d-origin="372.04724 : 350.78739 : 1"
       id="perspective10" />
    <inkscape:perspective
       id="perspective2474"
       inkscape:persp3d-origin="372.04724 : 350.78739 : 1"
       inkscape:vp_z="744.09448 : 526.18109 : 1"
       inkscape:vp_y="0 : 1000 : 0"
       inkscape:vp_x="0 : 526.18109 : 1"
       sodipodi:type="inkscape:persp3d" />
  </defs>
  <sodipodi:namedview
     id="base"
     pagecolor="#ffffff"
     bordercolor="#666666"
     borderopacity="1.0"
     gridtolerance="10000"
     guidetolerance="10"
     objecttolerance="10"
     inkscape:pageopacity="0.0"
     inkscape:pageshadow="2"
     inkscape:zoom="0.38038936"
     inkscape:cx="460.33853"
     inkscape:cy="443.03854"
     inkscape:document-units="px"
     inkscape:current-layer="layer2"
     showgrid="false"
     showguides="true"
     inkscape:guide-bbox="true"
     inkscape:window-width="1280"
     inkscape:window-height="725"
     inkscape:window-x="0"
     inkscape:window-y="0">
    <sodipodi:guide
       orientation="1,0"
       position="199.94098,845.19011"
       id="guide2383" />
    <sodipodi:guide
       orientation="0,1"
       position="91.310092,799.95076"
       id="guide2385" />
    <sodipodi:guide
       orientation="0,1"
       position="86.895609,200.04577"
       id="guide2387" />
  </sodipodi:namedview>
  <metadata
     id="metadata7">
    <rdf:RDF>
      <cc:Work
         rdf:about="">
        <dc:format>image/svg+xml</dc:format>
        <dc:type
           rdf:resource="http://purl.org/dc/dcmitype/StillImage" />
      </cc:Work>
    </rdf:RDF>
  </metadata>
  <g
     inkscape:groupmode="layer"
     id="layer2"
     inkscape:label="background">
    <path
       id="path3375"
       style="fill:#0b0b0b"
       d="M -8673.6177,-708.55447 C -8701.4711,-720.65582 -8709.7809,-760.68296 -8708.1768,-875.02028 C -8707.3682,-932.66256 -8708.9194,-993.38109 -8711.6239,-1009.9503 C -8719.0966,-1055.7309 -8705.3445,-1077.2182 -8660.1663,-1090.3519 C -8595.6075,-1109.1197 -8587.3997,-1109.4226 -8555.95,-1094.198 C -8523.2509,-1078.3687 -8508.2624,-1046.0499 -8516.412,-1008.9451 C -8520.1065,-992.12381 -8517.2095,-987.85414 -8487.7327,-966.6772 C -8412.2312,-912.43475 -8406.9001,-841.82393 -8473.0479,-772.17582 C -8521.0366,-721.64767 -8626.6477,-688.14755 -8673.6177,-708.55447 zM -8548.9766,-767.24163 C -8489.7976,-793.26559 -8455.3385,-856.86515 -8479.4598,-895.54517 C -8505.8307,-937.83238 -8555.6936,-947.67878 -8595.9161,-918.54174 C -8610.2523,-908.15663 -8631.2408,-894.87181 -8642.5571,-889.01991 C -8662.4918,-878.71129 -8663.1322,-877.03873 -8663.1322,-835.28609 C -8663.1322,-749.76929 -8631.5362,-730.93589 -8548.9766,-767.24163 zM -8604.4956,-973.26399 C -8544.356,-1004.3634 -8558.6827,-1071.8874 -8622.2477,-1056.9322 C -8645.2123,-1051.5292 -8647.3819,-1048.8823 -8655.327,-1016.5758 C -8667.7811,-965.93432 -8649.2325,-950.12966 -8604.4956,-973.26399 z" />
    <path
       id="path3289"
       style="fill:#0b0b0b"
       d="M 335,818.9985 C 253.55426,803.27222 177.92495,619.4048 196.36241,481.94406 C 205.6124,412.97753 301.97886,287.12198 387.99398,231.6686 C 471.87847,177.58963 461.75318,176.29433 650.3497,265.22924 C 726.70843,301.23695 801.3138,521.74303 772.98157,627.68103 C 756.99946,687.44286 667.36384,771.61082 609.50615,781.18554 C 582.37777,785.67497 536.64585,798.21521 507.88065,809.05269 C 457.31012,828.10503 399.41351,831.43586 335,818.9985 z M 486.88257,697.81972 C 511.93689,686.84146 548.04305,674.48963 567.11721,670.37151 C 645.597,653.42733 685.09357,602.30474 684.30993,518.68309 C 682.89362,367.39958 624.05239,319.88579 476.3813,350.78268 C 350.4645,377.12762 321.7716,406.13951 305.44413,523.61123 C 282.97552,685.28097 355.83709,755.23955 486.88257,697.81972 z" />
  </g>
  <g
     inkscape:label="Layer 1"
     inkscape:groupmode="layer"
     id="layer1" />
</svg>
