<?xml version="1.0" encoding="UTF-8" standalone="no"?>
<!-- Created with Inkscape (http://www.inkscape.org/) -->

<svg
   xmlns:dc="http://purl.org/dc/elements/1.1/"
   xmlns:cc="http://creativecommons.org/ns#"
   xmlns:rdf="http://www.w3.org/1999/02/22-rdf-syntax-ns#"
   xmlns:svg="http://www.w3.org/2000/svg"
   xmlns="http://www.w3.org/2000/svg"
   xmlns:sodipodi="http://sodipodi.sourceforge.net/DTD/sodipodi-0.dtd"
   xmlns:inkscape="http://www.inkscape.org/namespaces/inkscape"
   width="4096"
   height="2048"
   id="svg2"
   version="1.1"
   inkscape:version="0.47pre4 r22446">
  <defs
     id="defs4">
    <inkscape:perspective
       sodipodi:type="inkscape:persp3d"
       inkscape:vp_x="0 : 526.18109 : 1"
       inkscape:vp_y="0 : 1000 : 0"
       inkscape:vp_z="744.09448 : 526.18109 : 1"
       inkscape:persp3d-origin="372.04724 : 350.78739 : 1"
       id="perspective10" />
    <inkscape:perspective
       id="perspective3416"
       inkscape:persp3d-origin="0.5 : 0.33333333 : 1"
       inkscape:vp_z="1 : 0.5 : 1"
       inkscape:vp_y="0 : 1000 : 0"
       inkscape:vp_x="0 : 0.5 : 1"
       sodipodi:type="inkscape:persp3d" />
    <inkscape:perspective
       id="perspective3459"
       inkscape:persp3d-origin="0.5 : 0.33333333 : 1"
       inkscape:vp_z="1 : 0.5 : 1"
       inkscape:vp_y="0 : 1000 : 0"
       inkscape:vp_x="0 : 0.5 : 1"
       sodipodi:type="inkscape:persp3d" />
    <inkscape:perspective
       id="perspective3459-1"
       inkscape:persp3d-origin="0.5 : 0.33333333 : 1"
       inkscape:vp_z="1 : 0.5 : 1"
       inkscape:vp_y="0 : 1000 : 0"
       inkscape:vp_x="0 : 0.5 : 1"
       sodipodi:type="inkscape:persp3d" />
    <inkscape:perspective
       id="perspective3459-3"
       inkscape:persp3d-origin="0.5 : 0.33333333 : 1"
       inkscape:vp_z="1 : 0.5 : 1"
       inkscape:vp_y="0 : 1000 : 0"
       inkscape:vp_x="0 : 0.5 : 1"
       sodipodi:type="inkscape:persp3d" />
    <inkscape:perspective
       id="perspective3562"
       inkscape:persp3d-origin="0.5 : 0.33333333 : 1"
       inkscape:vp_z="1 : 0.5 : 1"
       inkscape:vp_y="0 : 1000 : 0"
       inkscape:vp_x="0 : 0.5 : 1"
       sodipodi:type="inkscape:persp3d" />
    <inkscape:perspective
       id="perspective3605"
       inkscape:persp3d-origin="0.5 : 0.33333333 : 1"
       inkscape:vp_z="1 : 0.5 : 1"
       inkscape:vp_y="0 : 1000 : 0"
       inkscape:vp_x="0 : 0.5 : 1"
       sodipodi:type="inkscape:persp3d" />
  </defs>
  <sodipodi:namedview
     id="base"
     pagecolor="#ffffff"
     bordercolor="#666666"
     borderopacity="1.0"
     inkscape:pageopacity="0.0"
     inkscape:pageshadow="2"
     inkscape:zoom="0.16"
     inkscape:cx="501.80206"
     inkscape:cy="1240.8707"
     inkscape:document-units="px"
     inkscape:current-layer="layer1"
     showgrid="false"
     showguides="true"
     inkscape:guide-bbox="true"
     inkscape:window-width="1440"
     inkscape:window-height="810"
     inkscape:window-x="-3"
     inkscape:window-y="-3"
     inkscape:window-maximized="1"
     inkscape:snap-to-guides="false">
    <sodipodi:guide
       orientation="0,1"
       position="-2585.6117,409.99566"
       id="guide3341" />
  </sodipodi:namedview>
  <metadata
     id="metadata7">
    <rdf:RDF>
      <cc:Work
         rdf:about="">
        <dc:format>image/svg+xml</dc:format>
        <dc:type
           rdf:resource="http://purl.org/dc/dcmitype/StillImage" />
        <dc:title></dc:title>
      </cc:Work>
    </rdf:RDF>
  </metadata>
  <g
     inkscape:label="Layer 1"
     inkscape:groupmode="layer"
     id="layer1"
     transform="translate(0,995.63782)">
    <path
       style="fill:#000000;fill-opacity:1;fill-rule:nonzero;stroke:none"
       d="M 928.31836,388.89736 C 943.13587,350.8082 938.53162,305.27762 930.00531,266.00729 911.8187,175.97145 808.02931,122.24322 722.61861,150.00032 662.29061,177.08788 592.4518,193.27994 527.7536,171.76296 475.87269,157.76594 443.88324,112.14066 419.96783,67.273682 383.85866,-0.02319191 340.09576,-75.39051 262.44862,-99.28961 192.0866,-123.05739 115.66916,-78.39067 85.1467,-14.33647 39.132024,82.325699 43.156328,183.20422 84.23371,276.67562 c 45.85457,104.34178 70.97026,154.7275 204.59153,229.71615 54.36121,30.50766 128.82156,77.11108 185.11248,103.85625 99.15771,47.11213 228.45284,18.42029 308.97643,-18.87233 80.52369,-37.29254 88.36077,-71.70884 108.14014,-113.15131 6.20293,-12.9968 32.32491,-76.63066 37.26407,-89.32702 z m -85.36734,91.92183 C 781.60086,538.88334 699.3914,572.91882 615.76059,581.36532 542.92909,595.56035 474.70526,556.36751 417.6516,515.69338 299.63314,453.78244 182.1102,386.63259 143.92736,272.86301 113.06558,209.66578 90.06167,115.32934 109.46767,46.747701 c 26.8955,-64.551477 64.30455,-115.819121 135.87129,-92.562777 81.02921,26.801992 134.26177,119.858988 167.99601,193.054626 42.09723,81.38329 156.56904,114.97823 243.61282,86.56768 52.55174,-18.29346 109.06673,-41.98711 165.37951,-24.7853 37.38663,12.91399 55.07486,36.19729 70.69142,72.09825 12.58935,60.95931 -8.56218,149.85165 -50.0677,199.69901 z"
       id="path3343"
       sodipodi:nodetypes="cccccccssszscccccccccccc" />
    <path
       style="fill:#000000;fill-opacity:1;fill-rule:nonzero;stroke:none"
       d="M 2334.5171,176.93144 C 2329.5232,136.36797 2303.8999,98.451125 2277.7882,67.905607 2219.1205,-2.7719297 2102.2635,-0.92289972 2040.193,63.9823 c -40.2979,52.43356 -94.1331,99.77708 -161.3044,111.4759 -52.321,12.24972 -102.1068,-12.77763 -144.4226,-40.96208 -63.68,-42.161568 -137.9235,-87.804986 -217.6271,-72.070045 -73.2255,12.399565 -119.3656,87.936515 -115.9028,158.806565 5.2659,106.92621 56.5975,193.86143 137.052,256.72092 89.8112,70.16973 135.7984,102.64584 288.999,105.38871 62.3267,1.11588 149.979,6.88575 212.2228,3.77403 109.6438,-5.48155 209.9197,-91.9986 263.1692,-162.98651 53.2496,-70.98779 43.8481,-105.01006 41.6355,-150.87733 -0.6938,-14.38435 -7.8328,-82.79985 -9.4975,-96.32102 z m -31.6368,121.39329 c -26.5241,80.19821 -82.8012,149.11625 -152.452,196.17188 -57.4168,47.00239 -136.0663,44.80459 -205.5802,36.01077 -133.2643,1.38317 -268.5741,-2.08227 -356.095,-84.18913 -57.1167,-41.03692 -122.0642,-113.21983 -137.4616,-182.81119 -6.8926,-69.58979 1.7667,-132.46134 75.8109,-145.88205 84.0572,-14.7806 175.0202,41.95585 239.403,90.43749 75.6265,51.73058 192.3538,27.09029 255.553,-39.16402 37.6154,-41.00508 76.163,-88.643462 133.9053,-100.17027 39.0431,-6.337465 65.6504,5.788544 96.4103,30.007999 39.9644,47.721841 63.4461,136.027271 50.5063,199.588521 z"
       id="path3343-6"
       sodipodi:nodetypes="cccccccssszscccccccccccc" />
    <path
       style="fill:#000000;fill-opacity:1;fill-rule:nonzero;stroke:none"
       d="m 1762.764,-657.47398 c -8.824,39.9059 2.6826,84.19842 17.1088,121.70503 31.7292,86.2 142.5091,123.43985 222.676,82.95901 55.4811,-35.98686 122.026,-62.65916 189.2522,-51.27985 53.4104,5.90608 91.9952,46.10801 122.4848,86.79432 45.9673,60.98967 100.7315,128.78574 181.1185,140.54088 73.1672,12.7383 141.863,-43.07951 162.2405,-111.04504 30.7057,-102.55772 11.3158,-201.63698 -43.5604,-287.73493 -61.2583,-96.11077 -93.7774,-142.0676 -237.2872,-195.76028 -58.3841,-21.84382 -139.0905,-56.52355 -198.8068,-74.35416 -105.1915,-31.40902 -228.5849,16.7005 -302.4653,65.85814 -73.8806,49.15757 -76.3671,84.36733 -89.5825,128.3452 -4.1444,13.79189 -20.2373,80.66976 -23.1786,93.97168 z m 70.3206,-103.88549 c 51.7585,-66.75592 127.8024,-112.95233 209.161,-134.0773 69.8075,-25.15605 143.2185,3.15297 205.8168,34.63248 126.0919,43.15246 252.4948,91.558 307.6116,198.15799 40.1551,57.73996 77.3024,147.45409 68.6025,218.19559 -16.7171,67.90279 -45.8539,124.2842 -120.1336,112.23539 -84.173,-14.10725 -150.9983,-97.93845 -195.5198,-165.12063 -54.0373,-73.99584 -172.2979,-89.7066 -253.979,-48.33053 -49.1398,26.10789 -101.3711,58.15804 -159.651,49.76203 -38.9207,-7.05014 -59.9586,-27.35758 -80.877,-60.45102 -21.7553,-58.32015 -14.4337,-149.40045 18.9685,-205.004 z"
       id="path3343-2"
       sodipodi:nodetypes="cccccccssszscccccccccccc" />
    <path
       style="fill:#000000;fill-opacity:1;fill-rule:nonzero;stroke:none"
       d="m 110.86441,-345.28116 c 20.71013,35.23398 59.2966,59.83721 95.40053,77.4827 81.93221,41.52491 188.42039,-6.63342 219.56785,-90.86688 16.12844,-64.13329 46.70196,-128.97849 103.68429,-166.41981 43.13726,-32.04249 98.7695,-28.87286 148.80285,-19.83656 75.19354,13.36699 161.46411,25.72872 228.3408,-20.39886 62.25886,-40.49145 74.56205,-128.14626 43.20708,-191.79716 -47.3451,-96.01754 -129.00999,-155.37675 -227.8246,-181.0658 -110.30642,-28.67645 -165.41481,-40.19091 -307.07624,18.2041 -57.63221,23.75689 -140.35261,53.31288 -196.22777,80.91592 -98.42538,48.62357 -156.035819,167.87746 -176.671149,254.18491 -20.635324,86.30746 1.518311,113.78697 21.785026,154.99327 6.355912,12.92271 40.108003,72.85951 47.011333,84.60417 z M 91.627721,-469.24549 c -7.548911,-84.13267 16.687289,-169.74464 61.886969,-240.61387 33.9955,-65.95624 107.035,-95.21031 174.31452,-114.7798 121.72833,-54.25442 247.2611,-104.8733 360.21217,-64.33308 68.72409,14.94446 157.01691,55.35395 198.81426,113.08619 33.99295,61.11256 51.04496,122.24385 -11.55909,163.99776 -71.25091,46.98286 -177.27323,31.09019 -255.62438,12.20367 -89.95973,-17.39722 -187.26726,51.62204 -218.91399,137.54214 -18.21102,52.58037 -34.63991,111.61781 -83.039,145.15238 -33.30469,21.33836 -62.53973,20.79097 -100.39335,10.7981 -55.64381,-27.89806 -112.29947,-99.58741 -125.698109,-163.05349 z"
       id="path3343-9"
       sodipodi:nodetypes="cccccccssszscccccccccccc" />
    <path
       style="fill:#000000;fill-opacity:1;fill-rule:nonzero;stroke:none"
       d="m 2546.7573,121.18557 c -14.8934,38.05958 -10.38,83.59928 -1.932,122.88653 18.007,90.07193 121.689,144.00705 207.1549,116.42035 60.3819,-26.96722 130.2528,-43.01989 194.908,-21.37395 51.8529,14.10055 83.7513,59.78946 107.5771,104.70406 35.9749,67.36876 79.5874,142.82323 157.1867,166.87715 70.3145,23.90808 146.8209,-20.60612 177.471,-84.59932 46.2074,-96.57019 42.3843,-197.45653 1.4935,-291.00968 C 3344.9701,130.65771 3319.955,80.221964 3186.4835,4.9669871 3132.1832,-25.649099 3057.816,-72.40094 3001.5786,-99.25827 c -99.0635,-47.30986 -228.4156,-18.87594 -309.0135,18.2559 -80.5979,37.13185 -88.5036,71.5325401 -108.3656,112.935469 -6.2288,12.984346 -32.4778,76.565991 -37.4422,89.252471 z m 85.5505,-91.751292 c 61.4659,-57.941676 143.743,-91.813128 227.3906,-100.092808 72.8597,-14.04972 141.0052,25.2791 197.9776,66.0668901 117.8947,62.1462729 235.2835,129.5303599 273.2393,243.3758999 30.7357,63.25865 53.5514,157.64077 34.0086,226.18361 -27.0241,64.49765 -64.5354,115.69061 -136.0557,92.29159 -80.9755,-26.96358 -134.0223,-120.12659 -167.6105,-193.38938 -41.9348,-81.46705 -156.3394,-115.29029 -243.4397,-87.05341 -52.5881,18.18856 -109.1502,41.76953 -165.4286,24.45537 -37.3608,-12.98848 -55.0026,-36.30705 -70.5475,-72.23907 -12.4677,-60.98433 8.861,-149.834259 50.4659,-199.598692 z"
       id="path3343-1"
       sodipodi:nodetypes="cccccccssszscccccccccccc" />
    <path
       style="fill:#000000;fill-opacity:1;fill-rule:nonzero;stroke:none"
       d="m 3797.9023,-183.22635 c -25.8718,31.63851 -67.7768,50.02883 -106.161,61.92486 -87.3339,28.45975 -185.1705,-35.46979 -203.0226,-123.48536 -6.0955,-65.84866 -26.3558,-134.61752 -76.9175,-180.35991 -37.7091,-38.28274 -93.1687,-43.68806 -143.9961,-42.43678 -76.3542,1.66937 -163.4998,0.64566 -222.5057,-55.19836 -55.3075,-49.56605 -54.0135,-138.07066 -13.2622,-196.15583 61.5191,-87.6146 151.326,-133.73846 252.9123,-143.95919 113.4006,-11.40924 169.6232,-14.33044 300.6454,65.11235 53.3038,32.3197 130.5087,74.21969 181.4861,110.07048 89.7977,63.15183 128.4251,189.83403 135.5712,278.28579 7.1463,88.4519 -18.9621,112.20623 -45.3121,149.81432 -8.2637,11.79426 -50.814,65.84152 -59.4378,76.38763 z m 38.0323,-119.54379 c 20.3705,-81.97766 9.5594,-170.2948 -24.2294,-247.26101 -23.4712,-70.39189 -91.1562,-110.50798 -154.6357,-140.17046 -111.9605,-72.29207 -228.2385,-141.57562 -346.0728,-118.84904 -70.2034,4.22111 -163.6517,30.60245 -213.8135,81.23681 -42.9686,55.17204 -69.1998,112.96245 -13.7449,163.82898 63.197,57.3605 170.4023,57.92614 250.7238,51.28711 91.5638,-3.38595 177.1271,79.74852 195.2137,169.5074 9.9263,54.75223 17.1009,115.61147 59.7804,156.17616 29.6356,26.1965 58.6084,30.14198 97.5471,26.07653 59.2659,-19.02856 126.2519,-81.17435 149.2313,-141.83248 z"
       id="path3343-2-8"
       sodipodi:nodetypes="cccccccssszscccccccccccc" />
    <path
       style="fill:#000000;fill-opacity:1;fill-rule:nonzero;stroke:none"
       d="m 1648.6072,-515.81024 c -16.1659,-37.53677 -51.3917,-66.74927 -85.02,-88.74925 -76.1296,-51.3952 -187.7819,-16.85875 -229.1665,62.84536 -23.9817,61.6286 -62.3849,122.16644 -123.5825,152.22803 -46.7886,26.42697 -101.5942,16.36106 -150.1147,1.17039 -72.94637,-22.61758 -157.00888,-45.61588 -229.10466,-8.16658 -66.81243,32.43152 -89.92489,117.87481 -66.73215,184.93189 35.03219,101.16162 108.67796,170.219334 203.52902,208.0020198 C 1074.2977,38.62813 1127.5456,56.90895 1275.3713,16.59102 c 60.1399,-16.40253021 145.8946,-35.437873 204.7697,-55.875344 103.7097,-36.001045 175.7085,-147.161356 206.9206,-230.231146 31.2124,-83.06985 12.6493,-113.09189 -2.3335,-156.49942 -4.6989,-13.61298 -30.7323,-77.28315 -36.1209,-89.79535 z m 3.6653,125.39437 c -2.9763,84.41822 -37.6747,166.34991 -91.34,231.04553 -41.9367,61.214618 -118.0482,81.154799 -187.2397,92.202332 -127.5322,38.689114 -258.3872,73.297748 -365.4172,19.020659 -66.33093,-23.378127 -148.91074,-74.457691 -183.2011,-136.941451 -26.12606,-64.86662 -35.44058,-127.64445 31.87149,-161.28568 76.54253,-37.75381 179.76401,-8.79473 255.15691,19.69245 87.0965,28.45357 192.2344,-27.92382 234.3244,-109.23938 24.6108,-49.90638 48.2568,-106.44124 100.4517,-133.6942 35.7006,-17.02928 64.6404,-12.84907 100.9568,1.77536 51.7408,34.6038 99.0378,112.78451 104.4367,177.42438 z"
       id="path3343-2-2"
       sodipodi:nodetypes="cccccccssszscccccccccccc" />
  </g>
</svg>
