<?xml version="1.0" encoding="UTF-8" standalone="no"?>
<!-- Created with Inkscape (http://www.inkscape.org/) -->

<svg
   xmlns:dc="http://purl.org/dc/elements/1.1/"
   xmlns:cc="http://creativecommons.org/ns#"
   xmlns:rdf="http://www.w3.org/1999/02/22-rdf-syntax-ns#"
   xmlns:svg="http://www.w3.org/2000/svg"
   xmlns="http://www.w3.org/2000/svg"
   xmlns:sodipodi="http://sodipodi.sourceforge.net/DTD/sodipodi-0.dtd"
   xmlns:inkscape="http://www.inkscape.org/namespaces/inkscape"
   width="4096"
   height="2048"
   id="svg2"
   version="1.1"
   inkscape:version="0.47pre4 r22446">
  <defs
     id="defs4">
    <inkscape:perspective
       sodipodi:type="inkscape:persp3d"
       inkscape:vp_x="0 : 526.18109 : 1"
       inkscape:vp_y="0 : 1000 : 0"
       inkscape:vp_z="744.09448 : 526.18109 : 1"
       inkscape:persp3d-origin="372.04724 : 350.78739 : 1"
       id="perspective10" />
    <inkscape:perspective
       id="perspective3416"
       inkscape:persp3d-origin="0.5 : 0.33333333 : 1"
       inkscape:vp_z="1 : 0.5 : 1"
       inkscape:vp_y="0 : 1000 : 0"
       inkscape:vp_x="0 : 0.5 : 1"
       sodipodi:type="inkscape:persp3d" />
    <inkscape:perspective
       id="perspective3459"
       inkscape:persp3d-origin="0.5 : 0.33333333 : 1"
       inkscape:vp_z="1 : 0.5 : 1"
       inkscape:vp_y="0 : 1000 : 0"
       inkscape:vp_x="0 : 0.5 : 1"
       sodipodi:type="inkscape:persp3d" />
    <inkscape:perspective
       id="perspective3459-1"
       inkscape:persp3d-origin="0.5 : 0.33333333 : 1"
       inkscape:vp_z="1 : 0.5 : 1"
       inkscape:vp_y="0 : 1000 : 0"
       inkscape:vp_x="0 : 0.5 : 1"
       sodipodi:type="inkscape:persp3d" />
    <inkscape:perspective
       id="perspective3459-3"
       inkscape:persp3d-origin="0.5 : 0.33333333 : 1"
       inkscape:vp_z="1 : 0.5 : 1"
       inkscape:vp_y="0 : 1000 : 0"
       inkscape:vp_x="0 : 0.5 : 1"
       sodipodi:type="inkscape:persp3d" />
    <inkscape:perspective
       id="perspective3562"
       inkscape:persp3d-origin="0.5 : 0.33333333 : 1"
       inkscape:vp_z="1 : 0.5 : 1"
       inkscape:vp_y="0 : 1000 : 0"
       inkscape:vp_x="0 : 0.5 : 1"
       sodipodi:type="inkscape:persp3d" />
    <inkscape:perspective
       id="perspective3605"
       inkscape:persp3d-origin="0.5 : 0.33333333 : 1"
       inkscape:vp_z="1 : 0.5 : 1"
       inkscape:vp_y="0 : 1000 : 0"
       inkscape:vp_x="0 : 0.5 : 1"
       sodipodi:type="inkscape:persp3d" />
    <inkscape:perspective
       id="perspective3605-5"
       inkscape:persp3d-origin="0.5 : 0.33333333 : 1"
       inkscape:vp_z="1 : 0.5 : 1"
       inkscape:vp_y="0 : 1000 : 0"
       inkscape:vp_x="0 : 0.5 : 1"
       sodipodi:type="inkscape:persp3d" />
  </defs>
  <sodipodi:namedview
     id="base"
     pagecolor="#ffffff"
     bordercolor="#666666"
     borderopacity="1.0"
     inkscape:pageopacity="0.0"
     inkscape:pageshadow="2"
     inkscape:zoom="0.16"
     inkscape:cx="501.80206"
     inkscape:cy="1240.8707"
     inkscape:document-units="px"
     inkscape:current-layer="layer1"
     showgrid="false"
     showguides="true"
     inkscape:guide-bbox="true"
     inkscape:window-width="1440"
     inkscape:window-height="810"
     inkscape:window-x="-3"
     inkscape:window-y="-3"
     inkscape:window-maximized="1"
     inkscape:snap-to-guides="false">
    <sodipodi:guide
       orientation="0,1"
       position="-2585.6117,409.99566"
       id="guide3341" />
  </sodipodi:namedview>
  <metadata
     id="metadata7">
    <rdf:RDF>
      <cc:Work
         rdf:about="">
        <dc:format>image/svg+xml</dc:format>
        <dc:type
           rdf:resource="http://purl.org/dc/dcmitype/StillImage" />
        <dc:title></dc:title>
      </cc:Work>
    </rdf:RDF>
  </metadata>
  <g
     inkscape:label="Layer 1"
     inkscape:groupmode="layer"
     id="layer1"
     transform="translate(0,995.63782)">
    <path
       style="fill:#000000;fill-opacity:1;fill-rule:nonzero;stroke:none"
       d="m 152.07773,-27.16534 c 23.5109,-33.43023 63.97298,-54.809028 101.39411,-69.455376 85.04205,-34.713924 187.25418,21.957425 211.43775,108.447889 10.85148,65.233796 36.04207,132.353667 89.78565,174.311567 40.38424,35.44937 96.0898,36.82128 146.69291,31.88999 76.03238,-7.19838 163.02316,-12.49267 225.92079,38.92846 58.75414,45.42767 63.87734,133.79335 27.44249,194.679 C 899.7434,543.47868 813.51527,595.98945 712.93668,613.5451 600.66114,633.14238 544.79802,640.13024 408.36326,570.39146 352.85745,542.01959 272.81905,505.8246 219.3776,473.76242 125.23938,417.28411 77.533031,293.73429 63.995765,206.03292 50.458369,118.3315 74.77637,92.747604 98.331867,53.328825 105.71917,40.966746 144.24079,-16.021945 152.07773,-27.16534 z m -29.2692,121.985737 c -14.37613,83.238293 2.80685,170.539813 42.08439,244.854903 28.51069,68.50596 98.92495,103.61153 164.38715,128.59565 116.90509,63.98843 237.89815,124.66318 353.77579,93.45713 69.71293,-9.2976 161.0036,-42.38172 207.36413,-96.51798 38.85736,-58.14093 60.83161,-117.68033 1.83623,-164.39436 C 825.06856,248.1859 718.10408,255.39069 638.47503,267.83309 547.39724,277.84571 456.0343,201.13046 431.49052,112.91832 417.62249,59.029414 406.05643,-1.1499782 360.54946,-38.515031 329.09328,-62.495024 299.91082,-64.330497 261.36904,-57.453873 203.63798,-34.180418 141.33171,32.656429 122.80853,94.820397 z"
       id="path3343"
       sodipodi:nodetypes="cccccccssszscccccccccccc" />
    <path
       style="fill:#000000;fill-opacity:1;fill-rule:nonzero;stroke:none"
       d="m 2195.7937,-50.888622 c -25.966,-31.561125 -67.9257,-49.826528 -106.345,-61.608028 -87.4186,-28.19929 -185.0641,36.021705 -202.6537,124.090073 -5.8992,65.866521 -25.9543,134.695507 -76.3794,180.588407 -37.5948,38.39499 -93.0381,43.96564 -143.869,42.86592 -76.3588,-1.44179 -163.501,-0.15827 -222.3402,55.86144 -55.1595,49.73073 -53.6017,138.23109 -12.6773,196.19446 61.7801,87.43091 151.724,133.28674 253.3403,143.20459 113.434,11.0711 169.6651,13.82468 300.4498,-66.00829 53.2073,-32.4785 130.2869,-74.60857 181.1573,-110.61106 89.6092,-63.41933 127.8587,-190.21612 134.741,-278.68886 6.8825,-88.472699 -19.2963,-112.149097 -45.7586,-149.678438 -8.2987,-11.769555 -51.0099,-65.689863 -59.6652,-76.210214 z m 38.3886,119.430034 c 20.6148,81.916488 10.067,170.265528 -23.4922,247.332038 -23.2612,70.46155 -90.8264,110.77932 -154.2172,140.63087 -111.7444,72.62558 -227.8153,142.25536 -345.7169,119.88024 -70.2158,-4.01182 -163.7422,-30.11446 -214.0547,-80.59903 -43.1329,-55.04363 -69.5363,-112.75564 -14.2332,-163.7873 63.0256,-57.54863 170.2288,-58.43393 250.5696,-52.03433 91.5737,3.11296 176.8887,-80.27619 194.7076,-170.08854 9.7631,-54.781549 16.7561,-115.662009 59.3145,-156.353767 29.5574,-26.284768 58.5183,-30.316598 97.469,-26.36724 59.3223,18.85174 126.4934,80.797622 149.6535,141.387059 z"
       id="path3343-6"
       sodipodi:nodetypes="cccccccssszscccccccccccc" />
    <path
       style="fill:#000000;fill-opacity:1;fill-rule:nonzero;stroke:none"
       d="m 2831.6309,-638.72398 c 8.824,39.9059 -2.6826,84.19842 -17.1088,121.70503 -31.7292,86.2 -142.5091,123.43985 -222.676,82.95901 -55.4811,-35.98686 -122.026,-62.65916 -189.2522,-51.27985 -53.4104,5.90608 -91.9952,46.10801 -122.4848,86.79432 -45.9673,60.98967 -100.7315,128.78574 -181.1185,140.54088 -73.1672,12.7383 -141.863,-43.07951 -162.2405,-111.04504 -30.7057,-102.55772 -11.3158,-201.63698 43.5604,-287.73493 61.2583,-96.11077 93.7774,-142.0676 237.2872,-195.76028 58.3841,-21.84382 139.0905,-56.52355 198.8068,-74.35416 105.1915,-31.40902 228.5849,16.7005 302.4653,65.85814 73.8806,49.15757 76.3671,84.36733 89.5825,128.3452 4.1444,13.79189 20.2373,80.66976 23.1786,93.97168 z m -70.3206,-103.88549 c -51.7585,-66.75592 -127.8024,-112.95233 -209.161,-134.0773 -69.8075,-25.15605 -143.2185,3.15297 -205.8168,34.63248 -126.0919,43.15246 -252.4948,91.558 -307.6116,198.15799 -40.1551,57.73996 -77.3024,147.45409 -68.6025,218.19559 16.7171,67.90279 45.8539,124.2842 120.1336,112.23539 84.173,-14.10725 150.9983,-97.93845 195.5198,-165.12063 54.0373,-73.99584 172.2979,-89.7066 253.979,-48.33053 49.1398,26.10789 101.3711,58.15804 159.651,49.76203 38.9207,-7.05014 59.9586,-27.35758 80.877,-60.45102 21.7553,-58.32015 14.4337,-149.40045 -18.9685,-205.004 z"
       id="path3343-2"
       sodipodi:nodetypes="cccccccssszscccccccccccc" />
    <path
       style="fill:#000000;fill-opacity:1;fill-rule:nonzero;stroke:none"
       d="m 197.17945,-248.9381 c 29.54405,28.23991 73.38226,41.37177 112.9324,48.48818 90.15731,17.57453 179.44859,-57.83121 186.41167,-147.36866 -1.99666,-66.10007 9.70842,-136.82935 54.30159,-188.40733 32.74843,-42.60381 87.132,-54.74551 137.73139,-59.71467 75.98595,-7.67326 162.35349,-19.33826 214.09314,-81.97415 48.8363,-55.953 36.73701,-143.63619 -10.80684,-196.30643 -71.76431,-79.44061 -166.53427,-114.24468 -268.60829,-111.97526 -113.94484,2.53349 -170.10309,6.50445 -290.43572,101.36221 -48.955,38.59105 -120.46127,89.61138 -166.67577,131.42264 -81.407847,73.65168 -104.265592,204.10464 -100.549702,292.76684 3.715898,88.6622 32.531161,109.04817 63.279432,143.15451 9.64304,10.69607 58.47874,59.1388 68.3267,68.55212 z m -52.35521,-114.0006 c -30.23521,-78.87411 -30.29716,-167.8505 -6.16667,-248.36869 14.69364,-72.7325 76.96935,-120.81892 136.34845,-158.01599 102.28767,-85.43162 209.22791,-168.40469 328.95641,-160.24741 70.19311,-4.3892 166.16473,10.37548 222.13798,54.5006 49.38845,49.50804 82.48489,103.65997 33.66124,160.92171 -55.71409,64.65309 -162.04692,78.31472 -242.57764,81.54042 -91.29149,7.82824 -166.05474,100.79527 -173.03756,192.0916 -3.16141,55.55485 -2.84526,116.83477 -40.24814,162.31074 -26.21239,29.62159 -54.48589,37.07789 -93.62961,37.80104 -61.14701,-11.64382 -135.22502,-65.13844 -165.44446,-122.53402 z"
       id="path3343-9"
       sodipodi:nodetypes="cccccccssszscccccccccccc" />
    <path
       style="fill:#000000;fill-opacity:1;fill-rule:nonzero;stroke:none"
       d="m 2647.4486,-199.6918 c 36.0191,-19.31242 81.7724,-20.24493 121.7854,-16.52743 91.5739,7.17126 157.4525,103.70599 140.2219,191.845384 -19.5975,63.159635 -27.2299,134.443416 1.9489,196.066766 20.165,49.80885 69.3221,76.04939 116.7507,94.36664 71.1678,27.71076 151.2719,62.04371 184.3805,136.23308 32.0978,66.97358 -3.0054,148.22941 -62.901,186.26986 -90.3921,57.36028 -191.0175,65.55798 -288.7684,36.07906 -109.119,-32.90736 -162.1709,-51.7491 -252.7597,-175.3275 -36.8544,-50.27548 -92.1157,-118.55728 -125.4682,-171.20297 -58.7513,-92.73662 -45.8968,-224.551704 -18.6101,-308.992375 27.2868,-84.440675 60.5037,-96.379965 99.2517,-121.023225 12.1518,-7.72825 72.162,-41.34988 84.1683,-47.78729 z m -80.9301,95.85149 c -50.2235,67.918285 -74.0734,153.638642 -72.35,237.67735 -5.2883,74.01327 41.8629,136.99997 89.1345,188.71935 75.7213,109.67047 156.583,218.21595 274.1335,242.36826 66.464,22.99734 162.8892,34.43079 228.6226,6.87799 60.8276,-34.50014 107.198,-77.8314 75.4624,-146.06274 -36.399,-77.19573 -135.2077,-118.79082 -211.944,-143.43111 -85.8746,-31.95235 -133.0588,-141.5246 -115.3769,-231.364099 11.8077,-54.3774721 28.4972,-113.341828 4.6152,-167.162751 -17.3379,-35.55174 -42.5884,-50.29624 -80.1136,-61.45919 -62.0341,-5.12927 -147.7183,26.61093 -192.1837,73.83694 z"
       id="path3343-1"
       sodipodi:nodetypes="cccccccssszscccccccccccc" />
    <path
       style="fill:#000000;fill-opacity:1;fill-rule:nonzero;stroke:none"
       d="m 4037.7927,-703.73553 c 17.0901,37.1251 15.2432,82.85061 9.1035,122.56416 -12.7173,90.96943 -113.0735,150.8662 -200.0042,128.31653 -61.8534,-23.39576 -132.5424,-35.34159 -195.8235,-9.95758 -50.9412,17.1039 -80.1176,64.57725 -101.2804,110.80633 -31.9802,69.35426 -71.1128,147.22625 -147.1753,175.7699 -68.7986,27.97259 -147.7735,-11.9988 -182.1077,-74.09325 -51.7668,-93.70758 -53.8405,-194.64514 -18.4816,-290.42608 39.4712,-106.92002 61.4988,-158.73021 190.3489,-241.64965 52.4201,-33.73416 123.9307,-84.74822 178.5042,-114.84321 96.1323,-53.01292 226.9239,-32.17983 309.5521,0.18297 82.6285,32.36267 92.5291,66.24328 114.7746,106.41575 6.9764,12.59856 36.8927,74.53925 42.5894,86.91413 z m -90.7615,-86.5998 c -64.744,-54.25412 -148.8583,-83.26402 -232.8467,-86.64576 -73.5556,-9.77177 -139.2886,33.46865 -193.7825,77.51323 -114.0651,68.92354 -227.3195,143.04657 -258.5635,258.91387 -26.9899,64.94522 -44.2562,160.49853 -20.7447,227.78342 30.7437,62.80983 71.1799,111.72529 141.2119,84.19048 79.2632,-31.64538 126.7801,-127.7466 156.0336,-202.84556 37.1068,-83.77638 149.3414,-124.22151 237.9417,-101.11817 53.5604,15.0872 111.4028,35.32533 166.5742,14.75496 36.5387,-15.14766 52.7889,-39.4565 66.2094,-76.23476 8.8859,-61.60823 -17.594,-149.06129 -62.0334,-196.31171 z"
       id="path3343-2-8"
       sodipodi:nodetypes="cccccccssszscccccccccccc" />
    <path
       style="fill:#000000;fill-opacity:1;fill-rule:nonzero;stroke:none"
       d="m 817.81492,38.553567 c 16.1659,37.53677 51.3917,66.749273 85.02,88.749253 76.1296,51.3952 187.78188,16.85875 229.16648,-62.845363 23.9817,-61.6286002 62.3849,-122.16644 123.5825,-152.22803 46.7886,-26.426967 101.5942,-16.361057 150.1147,-1.17039 72.9464,22.61758 157.0089,45.61588 229.1047,8.16658 66.8124,-32.431517 89.9249,-117.874807 66.7321,-184.931887 -35.0322,-101.16162 -108.6779,-170.21934 -203.529,-208.00202 -105.882,-42.17651 -159.1299,-60.45733 -306.9556,-20.1394 -60.1399,16.40253 -145.8946,35.43787 -204.76968,55.87534 -103.7097,36.00105 -175.7085,147.16136 -206.9206,230.23115 -31.2124,83.06985 -12.6493,113.091887 2.3335,156.499417 4.6989,13.61298 30.7323,77.28315 36.1209,89.79535 z m -3.6653,-125.39437 c 2.9763,-84.418217 37.6747,-166.349907 91.34,-231.045527 41.9367,-61.21462 118.04818,-81.1548 187.23968,-92.20234 127.5322,-38.68911 258.3872,-73.29774 365.4172,-19.02065 66.331,23.37812 148.9108,74.45769 183.2011,136.94145 26.1261,64.86662 35.4406,127.64445 -31.8715,161.28568 -76.5425,37.753807 -179.764,8.79473 -255.1569,-19.69245 -87.0965,-28.45357 -192.2344,27.92382 -234.3244,109.239377 -24.6108,49.9063798 -48.2568,106.44124 -100.4517,133.6942 -35.70058,17.029283 -64.64038,12.849073 -100.95678,-1.77536 -51.7408,-34.6038 -99.0378,-112.78451 -104.4367,-177.42438 z"
       id="path3343-2-2"
       sodipodi:nodetypes="cccccccssszscccccccccccc" />
    <path
       style="fill:#000000;fill-opacity:1;fill-rule:nonzero;stroke:none"
       d="m 3814.3988,-222.47603 c -38.3833,-14.03806 -83.8105,-8.50679 -122.8989,0.81818 -89.6464,20.01783 -141.2481,124.88089 -111.7558,209.70799 28.3116,59.763379 45.9237,129.25762 25.7299,194.38105 -12.9368,52.15547 -57.9005,85.06824 -102.2707,109.89307 -66.5468,37.47337 -141.0065,82.76334 -163.3181,160.8815 -22.3286,70.83174 23.8863,146.32292 88.5493,175.53348 97.58,44.03487 198.3555,37.9553 290.9703,-5.01864 103.3855,-47.97185 153.2488,-74.10932 225.4984,-209.23137 29.3933,-54.97171 74.4694,-130.36637 100.0616,-187.19071 45.0812,-100.09726 13.76,-228.7807397 -25.166,-308.52751 -38.926,-79.74697 -73.4951,-86.88073 -115.332,-105.8114 -13.1205,-5.93676 -77.2736,-30.75633 -90.068,-35.43564 z m 93.6427,83.47597 c 59.3025,60.15399 95.0066,141.6524703 105.1559,225.093932 15.6766,72.526958 -22.1176,141.535478 -61.6203,199.406368 -59.4927,119.25573 -124.2332,238.12311 -237.2008,278.61671 -62.5551,32.14345 -156.403,57.06552 -225.366,39.0613 -65.0862,-25.57417 -117.1058,-61.93047 -95.313,-133.95632 25.145,-81.5588 117.0976,-136.6769 189.5905,-171.89604 80.5083,-43.74733 111.763,-158.88003 81.5843,-245.326679 -19.3608,-52.16801071 -44.2014,-108.188241 -28.151,-164.840001 12.1493,-37.64202 35.0672,-55.80111 70.6424,-72.14618 60.6901,-13.82922 149.995,5.50603 200.678,45.98691 z"
       id="path3343-2-7"
       sodipodi:nodetypes="cccccccssszscccccccccccc" />
  </g>
</svg>
