<?xml version="1.0" encoding="UTF-8" standalone="no"?>
<!-- Created with Inkscape (http://www.inkscape.org/) -->

<svg
   xmlns:dc="http://purl.org/dc/elements/1.1/"
   xmlns:cc="http://creativecommons.org/ns#"
   xmlns:rdf="http://www.w3.org/1999/02/22-rdf-syntax-ns#"
   xmlns:svg="http://www.w3.org/2000/svg"
   xmlns="http://www.w3.org/2000/svg"
   xmlns:sodipodi="http://sodipodi.sourceforge.net/DTD/sodipodi-0.dtd"
   xmlns:inkscape="http://www.inkscape.org/namespaces/inkscape"
   width="2048"
   height="2048"
   id="svg2"
   version="1.1"
   inkscape:version="0.47pre4 r22446">
  <defs
     id="defs4">
    <inkscape:perspective
       sodipodi:type="inkscape:persp3d"
       inkscape:vp_x="0 : 526.18109 : 1"
       inkscape:vp_y="0 : 1000 : 0"
       inkscape:vp_z="744.09448 : 526.18109 : 1"
       inkscape:persp3d-origin="372.04724 : 350.78739 : 1"
       id="perspective10" />
    <inkscape:perspective
       id="perspective3416"
       inkscape:persp3d-origin="0.5 : 0.33333333 : 1"
       inkscape:vp_z="1 : 0.5 : 1"
       inkscape:vp_y="0 : 1000 : 0"
       inkscape:vp_x="0 : 0.5 : 1"
       sodipodi:type="inkscape:persp3d" />
  </defs>
  <sodipodi:namedview
     id="base"
     pagecolor="#ffffff"
     bordercolor="#666666"
     borderopacity="1.0"
     inkscape:pageopacity="0.0"
     inkscape:pageshadow="2"
     inkscape:zoom="0.16"
     inkscape:cx="501.80206"
     inkscape:cy="1240.8707"
     inkscape:document-units="px"
     inkscape:current-layer="layer1"
     showgrid="false"
     showguides="true"
     inkscape:guide-bbox="true"
     inkscape:window-width="1440"
     inkscape:window-height="810"
     inkscape:window-x="-3"
     inkscape:window-y="-3"
     inkscape:window-maximized="1">
    <sodipodi:guide
       orientation="0,1"
       position="-2585.6117,409.99566"
       id="guide3341" />
  </sodipodi:namedview>
  <metadata
     id="metadata7">
    <rdf:RDF>
      <cc:Work
         rdf:about="">
        <dc:format>image/svg+xml</dc:format>
        <dc:type
           rdf:resource="http://purl.org/dc/dcmitype/StillImage" />
        <dc:title></dc:title>
      </cc:Work>
    </rdf:RDF>
  </metadata>
  <g
     inkscape:label="Layer 1"
     inkscape:groupmode="layer"
     id="layer1"
     transform="translate(0,995.63782)">
    <path
       style="fill:#000000;fill-opacity:1;fill-rule:nonzero;stroke:none"
       d="m 237.90596,-692.47998 c -35.40936,20.40879 -60.34086,58.784 -78.29368,94.73604 -42.22232,81.575 5.02588,188.47013 88.99057,220.33503 63.99337,16.67493 128.57541,47.8005 165.52929,105.10015 31.67335,43.40903 28.02928,99.01219 18.5665,148.96665 -14.00793,75.07677 -27.10513,161.238751 18.45028,228.5065 39.9589,62.60196 127.50562,75.65244 191.42161,44.84161 96.4179,-46.52432 156.47162,-127.679873 183.00262,-226.27176 29.61644,-110.05778 41.60057,-165.06595 -15.58395,-307.22036 -23.26441,-57.83273 -52.11365,-140.80226 -79.23911,-196.91092 -47.78216,-98.83659 -166.54027,-157.46217 -252.66856,-178.83293 -86.12828,-21.37076 -113.79578,0.54756 -155.17346,20.46207 -12.97645,6.2454 -73.19899,39.48499 -85.00211,46.28792 z m 124.12392,-18.17852 c 84.19399,-6.83102 169.59611,18.13461 240.07719,63.9372 65.66389,34.55686 94.29379,107.84328 113.28866,175.28733 53.21407,122.18668 102.76021,248.14669 61.25803,360.74783 C 761.12355,-42.09203 719.96241,45.852875 661.87569,87.156214 600.47542,120.6266 539.20086,137.15653 497.9825,74.198585 451.60916,2.5494892 468.40564,-103.33341 487.95983,-181.52059 c 18.164,-89.80805 -50.02269,-187.7008 -135.6697,-220.07931 -52.42312,-18.65886 -111.31828,-35.59084 -144.43877,-84.27416 -21.05348,-33.48555 -20.2567,-62.71484 -9.94131,-100.48186 28.37171,-55.40376 100.54175,-111.44588 164.11983,-124.30258 z"
       id="path3343"
       sodipodi:nodetypes="cccccccssszscccccccccccc" />
    <path
       style="fill:#000000;fill-opacity:1;fill-rule:nonzero;stroke:none"
       d="m 1619.4114,-396.36589 c -38.24,-14.42361 -83.7207,-9.34973 -122.9009,-0.41865 -89.8434,19.11477 -142.4977,123.45309 -113.8607,208.57279 27.7087,60.04528 44.6206,129.713244 23.7724,194.6300688 -13.4609,52.0225502 -58.7536,84.4811862 -103.3714,108.8583112 -66.9206,36.80175 -141.8323,81.34007 -164.9289,159.22969 -23.0404,70.60353 22.4125,146.55597 86.7783,176.41579 97.1319,45.01473 197.9635,39.94962 291.006,-2.09017 103.863,-46.92892 153.9869,-72.56317 227.5926,-206.95124 29.9451,-54.67312 75.7776,-129.6104 101.9405,-186.174354 46.0864,-99.638569 16.0618,-228.630686 -22.0598,-308.765206 -38.1215,-80.13454 -72.6169,-87.61603 -114.2613,-106.96668 -13.06,-6.0685 -76.9601,-31.53251 -89.7068,-36.34035 z m 92.7979,84.41425 c 58.6941,60.74771 93.5762,142.60152 102.8853,226.140751 14.9458,72.68112 -23.5409,141.305778 -63.6241,198.776159 -60.6897,118.65102 -126.6232,236.8607 -239.9927,276.21552 -62.8754,31.51232 -156.9694,55.48855 -225.7477,36.79125 -64.8255,-26.22787 -116.4765,-63.10591 -93.96,-134.90887 25.9644,-81.30145 118.4671,-135.49146 191.3108,-169.97924 80.9445,-42.93483 113.3564,-157.747236 84.0491,-244.49318 -18.8348,-52.36016 -43.1104,-108.62765 -26.4906,-165.11496 12.5274,-37.51792 35.627,-55.44547 71.3649,-71.43166 60.8261,-13.21778 149.932,7.01524 200.205,48.00423 z"
       id="path3343-6"
       sodipodi:nodetypes="cccccccssszscccccccccccc" />
  </g>
</svg>
