<?xml version="1.0" encoding="UTF-8" standalone="no"?>
<!-- Created with Inkscape (http://www.inkscape.org/) -->

<svg
   xmlns:dc="http://purl.org/dc/elements/1.1/"
   xmlns:cc="http://creativecommons.org/ns#"
   xmlns:rdf="http://www.w3.org/1999/02/22-rdf-syntax-ns#"
   xmlns:svg="http://www.w3.org/2000/svg"
   xmlns="http://www.w3.org/2000/svg"
   xmlns:sodipodi="http://sodipodi.sourceforge.net/DTD/sodipodi-0.dtd"
   xmlns:inkscape="http://www.inkscape.org/namespaces/inkscape"
   width="2048"
   height="2048"
   id="svg2"
   version="1.1"
   inkscape:version="0.47pre4 r22446">
  <defs
     id="defs4">
    <inkscape:perspective
       sodipodi:type="inkscape:persp3d"
       inkscape:vp_x="0 : 526.18109 : 1"
       inkscape:vp_y="0 : 1000 : 0"
       inkscape:vp_z="744.09448 : 526.18109 : 1"
       inkscape:persp3d-origin="372.04724 : 350.78739 : 1"
       id="perspective10" />
    <inkscape:perspective
       id="perspective3416"
       inkscape:persp3d-origin="0.5 : 0.33333333 : 1"
       inkscape:vp_z="1 : 0.5 : 1"
       inkscape:vp_y="0 : 1000 : 0"
       inkscape:vp_x="0 : 0.5 : 1"
       sodipodi:type="inkscape:persp3d" />
    <inkscape:perspective
       id="perspective3459"
       inkscape:persp3d-origin="0.5 : 0.33333333 : 1"
       inkscape:vp_z="1 : 0.5 : 1"
       inkscape:vp_y="0 : 1000 : 0"
       inkscape:vp_x="0 : 0.5 : 1"
       sodipodi:type="inkscape:persp3d" />
    <inkscape:perspective
       id="perspective3459-1"
       inkscape:persp3d-origin="0.5 : 0.33333333 : 1"
       inkscape:vp_z="1 : 0.5 : 1"
       inkscape:vp_y="0 : 1000 : 0"
       inkscape:vp_x="0 : 0.5 : 1"
       sodipodi:type="inkscape:persp3d" />
  </defs>
  <sodipodi:namedview
     id="base"
     pagecolor="#ffffff"
     bordercolor="#666666"
     borderopacity="1.0"
     inkscape:pageopacity="0.0"
     inkscape:pageshadow="2"
     inkscape:zoom="0.16"
     inkscape:cx="501.80206"
     inkscape:cy="1240.8707"
     inkscape:document-units="px"
     inkscape:current-layer="layer1"
     showgrid="false"
     showguides="true"
     inkscape:guide-bbox="true"
     inkscape:window-width="1440"
     inkscape:window-height="810"
     inkscape:window-x="-3"
     inkscape:window-y="-3"
     inkscape:window-maximized="1"
     inkscape:snap-to-guides="false">
    <sodipodi:guide
       orientation="0,1"
       position="-2585.6117,409.99566"
       id="guide3341" />
  </sodipodi:namedview>
  <metadata
     id="metadata7">
    <rdf:RDF>
      <cc:Work
         rdf:about="">
        <dc:format>image/svg+xml</dc:format>
        <dc:type
           rdf:resource="http://purl.org/dc/dcmitype/StillImage" />
        <dc:title></dc:title>
      </cc:Work>
    </rdf:RDF>
  </metadata>
  <g
     inkscape:label="Layer 1"
     inkscape:groupmode="layer"
     id="layer1"
     transform="translate(0,995.63782)">
    <path
       style="fill:#000000;fill-opacity:1;fill-rule:nonzero;stroke:none"
       d="M 1002.3809,-1.1910109 C 980.61008,-35.779642 941.29406,-59.19941 904.67084,-75.74006 821.51509,-114.75705 716.53889,-63.38625 687.96445,21.754485 673.79157,86.348083 645.20189,152.09207 589.38318,191.24702 c -42.14404,33.33804 -97.84688,31.85976 -148.13164,24.34744 -75.56486,-11.07673 -162.17112,-20.8122 -227.61579,27.32553 -61.00012,42.36396 -70.63503,130.35209 -37.36111,193.02112 50.2399,94.53506 133.6702,151.38625 233.21954,174.06181 111.12659,25.31263 166.55933,35.14779 306.38157,-27.52344 56.88394,-25.49658 138.6684,-57.55161 193.67937,-86.83924 96.90298,-51.59087 150.86438,-172.5397 168.86838,-259.43414 18.0041,-86.89445 -4.9739,-113.68835 -26.483,-154.260011 -6.7455,-12.723673 -42.3027,-71.60756 -49.5596,-83.1370999 z m 22.9934,123.3228009 c 10.1011,83.86452 -11.5234,170.1732 -54.54952,242.3827 -31.97629,66.9585 -104.09349,98.41767 -170.74756,120.02182 -120.02409,57.92702 -243.96134,112.33567 -358.09174,75.24526 -69.14634,-12.85006 -158.62589,-50.55886 -202.15762,-106.99486 -35.83361,-60.05176 -54.73469,-120.63689 6.57215,-164.2732 69.79087,-49.12548 176.24703,-36.46071 255.13571,-19.96291 90.44667,14.6566 185.61276,-57.28664 214.63499,-144.12839 16.60539,-53.109291 31.23347,-112.618553 78.5915,-147.60782 32.6412,-22.340179 61.87935,-22.681063 100.01907,-13.842673 56.46552,26.194958 115.27272,96.130261 130.59302,159.160073 z"
       id="path3343"
       sodipodi:nodetypes="cccccccssszscccccccccccc" />
    <path
       style="fill:#000000;fill-opacity:1;fill-rule:nonzero;stroke:none"
       d="m 1854.6114,-202.97706 c 37.521,16.20212 66.6995,51.45628 88.6669,85.10573 51.3216,76.179435 16.6772,187.79811 -63.0669,229.10573 -61.6517,23.92212 -122.2267,62.26671 -152.3474,123.43523 -26.4722,46.76285 -16.4593,101.57829 -1.3156,150.11345 22.5471,72.96824 45.4641,157.05293 7.9451,229.11244 -32.4961,66.78114 -117.9617,89.81097 -184.9963,66.55334 C 1448.3694,645.31892 1379.383,571.6064 1341.6921,476.71883 1299.618,370.79615 1281.3886,317.5307 1321.8494,169.74412 c 16.4607,-60.12409 35.579,-145.860339 56.0733,-204.715755 36.1013,-103.674975 147.3312,-175.566245 230.4312,-206.698025 83.0999,-31.13187 113.104,-12.54001 156.497,2.48495 13.6084,4.71195 77.2535,30.80691 89.7605,36.20765 z m -125.3909,-3.78659 c -84.421,2.89473 -166.3863,37.51403 -231.1337,91.11659 -61.2551,41.877583 -81.2689,117.9697573 -92.3833,187.150521 -38.8125,127.494689 -73.5475,258.316059 -19.374,365.398629 23.314,66.3536 74.3138,148.98267 136.7643,183.33344 64.8413,26.18876 127.6101,35.56389 161.3164,-31.71567 37.8278,-76.5058 8.9686,-179.75527 -19.4457,-255.17568 -28.3694,-87.12398 28.1096,-192.20748 109.4658,-234.218691 49.9301,-24.562565 106.4879,-48.153884 133.7913,-100.3224619 17.0638,-35.6840991 12.9116,-64.6279651 -1.6777,-100.9584871 -34.5537,-51.77419 -112.6887,-99.14678 -177.3234,-104.60819 z"
       id="path3343-6"
       sodipodi:nodetypes="cccccccssszscccccccccccc" />
    <path
       style="fill:#000000;fill-opacity:1;fill-rule:nonzero;stroke:none"
       d="m 1037.8655,-357.28632 c 11.359,39.25959 42.6672,72.63663 73.2897,98.65823 69.1266,60.48717 184.2139,40.14304 235.2144,-33.77847 31.4794,-58.15711 77.1318,-113.43374 141.6003,-135.62948 49.7187,-20.3863 102.8414,-3.56485 149.089,17.55755 69.5567,31.53726 150.0952,64.83842 226.2981,36.67152 70.3351,-23.84709 103.9217,-105.74143 89.2718,-175.16719 -22.1442,-104.74046 -86.6039,-182.44255 -176.0033,-231.75793 -99.7963,-55.05049 -150.3489,-79.82854 -302.0483,-58.25871 -61.7159,8.77523 -149.1749,16.96867 -210.139,29.9051 -107.3895,22.78773 -192.6877,124.10239 -234.0148,202.63179 -41.32721,78.52935 -26.6528,110.63189 -17.1996,155.56889 2.9646,14.0927 20.8554,80.5122 24.6417,93.5987 z m 11.9996,-124.87276 c 13.4798,-83.38819 58.1241,-160.35363 119.4378,-217.85234 49.2427,-55.5075 127.2466,-65.80115 197.2756,-68.13446 131.3612,-22.48428 265.5104,-40.50552 364.9369,26.69418 62.8981,31.46692 138.4638,92.44532 164.695,158.71726 17.8335,67.61816 19.2471,131.0675 -51.7346,156.05257 -80.6528,27.91446 -179.4575,-13.68995 -250.7097,-51.35606 -82.8686,-39.0922 -194.2161,3.7348 -246.1173,79.16719 -30.6419,46.44793 -61.1531,99.59301 -116.339,120.12468 -37.5454,12.44461 -65.7381,4.68835 -99.9474,-14.3505 -47.022,-40.78561 -84.2009,-124.25391 -81.4973,-189.06252 z"
       id="path3343-2"
       sodipodi:nodetypes="cccccccssszscccccccccccc" />
    <path
       style="fill:#000000;fill-opacity:1;fill-rule:nonzero;stroke:none"
       d="m 364.47072,-15.410691 c 37.75765,15.64297313 83.37769,12.0308381 122.82431,4.361324 90.41037,-16.22252 146.38498,-118.817833 120.49352,-204.812443 -25.76802,-60.90332 -40.43609,-131.07802 -17.51594,-195.29254 15.12295,-51.56395 61.43372,-82.55273 106.81061,-105.48588 68.06692,-34.6358 144.36895,-76.74785 169.95247,-153.85639 25.29369,-69.828 -17.69908,-147.19955 -81.07377,-179.10904 -95.6377,-48.10779 -196.5799,-46.28019 -290.92328,-7.24711 -105.31511,43.57262 -156.23557,67.58563 -234.11496,199.54296 -31.68372,53.6843 -79.89679,127.11263 -107.86087,182.80798 -49.25924,98.10879 -23.38849,227.9978 12.14248,309.31412 35.53097,81.31632 69.76863,89.9006 110.77072,110.57735 12.85871,6.48439 75.90887,33.985316 88.49471,39.199669 z m -90.04185,-87.347979 c -56.71499,-62.59953 -88.95301,-145.53031 -95.57717,-229.32517 -12.60634,-73.12319 28.06215,-140.47779 69.96847,-196.63257 64.46514,-116.64293 134.15711,-232.67645 248.73089,-268.3738 63.85398,-29.47894 158.66882,-50.42399 226.81179,-29.52984 63.95076,28.29421 114.392,66.8103 89.58341,137.85388 -28.55936,80.42663 -122.753,131.62105 -196.66559,163.75408 -82.28031,40.31585 -118.35894,154.02929 -91.84975,241.67084 17.14522,52.93749 39.6032,109.95475 21.17966,165.87982 -13.72466,37.09665 -37.38747,54.27392 -73.61982,69.10531 -61.21894,11.259551 -149.62978,-11.82185 -198.56189,-54.40255 z"
       id="path3343-9"
       sodipodi:nodetypes="cccccccssszscccccccccccc" />
  </g>
</svg>
