<?xml version="1.0" encoding="UTF-8" standalone="no"?>
<!-- Created with Inkscape (http://www.inkscape.org/) -->

<svg
   xmlns:dc="http://purl.org/dc/elements/1.1/"
   xmlns:cc="http://creativecommons.org/ns#"
   xmlns:rdf="http://www.w3.org/1999/02/22-rdf-syntax-ns#"
   xmlns:svg="http://www.w3.org/2000/svg"
   xmlns="http://www.w3.org/2000/svg"
   xmlns:sodipodi="http://sodipodi.sourceforge.net/DTD/sodipodi-0.dtd"
   xmlns:inkscape="http://www.inkscape.org/namespaces/inkscape"
   width="2048"
   height="2048"
   id="svg2"
   version="1.1"
   inkscape:version="0.47pre4 r22446">
  <defs
     id="defs4">
    <inkscape:perspective
       sodipodi:type="inkscape:persp3d"
       inkscape:vp_x="0 : 526.18109 : 1"
       inkscape:vp_y="0 : 1000 : 0"
       inkscape:vp_z="744.09448 : 526.18109 : 1"
       inkscape:persp3d-origin="372.04724 : 350.78739 : 1"
       id="perspective10" />
  </defs>
  <sodipodi:namedview
     id="base"
     pagecolor="#ffffff"
     bordercolor="#666666"
     borderopacity="1.0"
     inkscape:pageopacity="0.0"
     inkscape:pageshadow="2"
     inkscape:zoom="0.16"
     inkscape:cx="501.80206"
     inkscape:cy="1240.8707"
     inkscape:document-units="px"
     inkscape:current-layer="layer1"
     showgrid="false"
     showguides="true"
     inkscape:guide-bbox="true"
     inkscape:window-width="1440"
     inkscape:window-height="810"
     inkscape:window-x="-3"
     inkscape:window-y="-3"
     inkscape:window-maximized="1">
    <sodipodi:guide
       orientation="0,1"
       position="-2585.6117,409.99566"
       id="guide3341" />
  </sodipodi:namedview>
  <metadata
     id="metadata7">
    <rdf:RDF>
      <cc:Work
         rdf:about="">
        <dc:format>image/svg+xml</dc:format>
        <dc:type
           rdf:resource="http://purl.org/dc/dcmitype/StillImage" />
        <dc:title></dc:title>
      </cc:Work>
    </rdf:RDF>
  </metadata>
  <g
     inkscape:label="Layer 1"
     inkscape:groupmode="layer"
     id="layer1"
     transform="translate(0,995.63782)">
    <path
       style="fill:#000000;fill-opacity:1;fill-rule:nonzero;stroke:none"
       d="m 835.90625,501.8125 c -40.86624,0.54018 -81.35137,21.87537 -114.5625,44.5 -76.65433,50.60948 -87.56102,166.97101 -29.8125,235.75 47.72585,45.77605 88.91559,104.45353 93.21875,172.5 6.47046,53.3449 -23.83742,100.1041 -56.46875,139.0937 -48.85519,58.7019 -102.3235,127.5246 -95.375,208.4688 4.33948,74.141 74.39374,128.2441 145.21875,132.5312 106.8626,6.4271 198.87765,-35.1169 270.1367,-108.236 79.5462,-81.6226 116.844,-123.7936 136.2789,-275.7812 7.9067,-61.83317 23.2017,-148.33337 26.8969,-210.54525 6.5091,-109.58758 -68.5556,-218.70099 -133.3125,-279.375 -64.7569,-60.67401 -99.60157,-55.03914 -145.43653,-57.84217 -14.3743,-0.87905 -83.16014,-1.24414 -96.78222,-1.06408 z M 953.125,546.5 c 76.8271,35.11248 139.1963,98.57024 178.375,172.9375 40.4601,62.20052 29.6977,140.14114 13.375,208.28125 -13.1592,132.62035 -31.3611,266.74505 -122.5234,344.78915 -47.02135,52.3004 -125.85702,108.988 -196.71249,116.7039 -69.92649,-0.7382 -131.47858,-16.2027 -136.7438,-91.2689 -5.52497,-85.1678 60.79368,-169.4005 116.00777,-228.1117 59.67,-69.5335 47.90714,-188.25187 -11.05933,-258.29995 C 757.18567,769.66812 714.03554,726.15493 708.875,667.5 706.83349,627.99856 721.789,602.8725 749.21875,574.9375 801.01456,540.41613 891.35417,526.70526 953.125,546.5 z"
       transform="translate(0,-995.63782)"
       id="path3343"
       sodipodi:nodetypes="cccccccssszscccccccccccc" />
  </g>
</svg>
