<?xml version="1.0" encoding="UTF-8" standalone="no"?>
<!-- Created with Inkscape (http://www.inkscape.org/) -->

<svg
   xmlns:dc="http://purl.org/dc/elements/1.1/"
   xmlns:cc="http://creativecommons.org/ns#"
   xmlns:rdf="http://www.w3.org/1999/02/22-rdf-syntax-ns#"
   xmlns:svg="http://www.w3.org/2000/svg"
   xmlns="http://www.w3.org/2000/svg"
   xmlns:sodipodi="http://sodipodi.sourceforge.net/DTD/sodipodi-0.dtd"
   xmlns:inkscape="http://www.inkscape.org/namespaces/inkscape"
   width="2048"
   height="2048"
   id="svg2"
   version="1.1"
   inkscape:version="0.47pre4 r22446">
  <defs
     id="defs4">
    <inkscape:perspective
       sodipodi:type="inkscape:persp3d"
       inkscape:vp_x="0 : 526.18109 : 1"
       inkscape:vp_y="0 : 1000 : 0"
       inkscape:vp_z="744.09448 : 526.18109 : 1"
       inkscape:persp3d-origin="372.04724 : 350.78739 : 1"
       id="perspective10" />
    <inkscape:perspective
       id="perspective3416"
       inkscape:persp3d-origin="0.5 : 0.33333333 : 1"
       inkscape:vp_z="1 : 0.5 : 1"
       inkscape:vp_y="0 : 1000 : 0"
       inkscape:vp_x="0 : 0.5 : 1"
       sodipodi:type="inkscape:persp3d" />
    <inkscape:perspective
       id="perspective3459"
       inkscape:persp3d-origin="0.5 : 0.33333333 : 1"
       inkscape:vp_z="1 : 0.5 : 1"
       inkscape:vp_y="0 : 1000 : 0"
       inkscape:vp_x="0 : 0.5 : 1"
       sodipodi:type="inkscape:persp3d" />
    <inkscape:perspective
       id="perspective3459-1"
       inkscape:persp3d-origin="0.5 : 0.33333333 : 1"
       inkscape:vp_z="1 : 0.5 : 1"
       inkscape:vp_y="0 : 1000 : 0"
       inkscape:vp_x="0 : 0.5 : 1"
       sodipodi:type="inkscape:persp3d" />
    <inkscape:perspective
       id="perspective3459-3"
       inkscape:persp3d-origin="0.5 : 0.33333333 : 1"
       inkscape:vp_z="1 : 0.5 : 1"
       inkscape:vp_y="0 : 1000 : 0"
       inkscape:vp_x="0 : 0.5 : 1"
       sodipodi:type="inkscape:persp3d" />
    <inkscape:perspective
       id="perspective3562"
       inkscape:persp3d-origin="0.5 : 0.33333333 : 1"
       inkscape:vp_z="1 : 0.5 : 1"
       inkscape:vp_y="0 : 1000 : 0"
       inkscape:vp_x="0 : 0.5 : 1"
       sodipodi:type="inkscape:persp3d" />
  </defs>
  <sodipodi:namedview
     id="base"
     pagecolor="#ffffff"
     bordercolor="#666666"
     borderopacity="1.0"
     inkscape:pageopacity="0.0"
     inkscape:pageshadow="2"
     inkscape:zoom="0.16"
     inkscape:cx="501.80206"
     inkscape:cy="1240.8707"
     inkscape:document-units="px"
     inkscape:current-layer="layer1"
     showgrid="false"
     showguides="true"
     inkscape:guide-bbox="true"
     inkscape:window-width="1440"
     inkscape:window-height="810"
     inkscape:window-x="-3"
     inkscape:window-y="-3"
     inkscape:window-maximized="1"
     inkscape:snap-to-guides="false">
    <sodipodi:guide
       orientation="0,1"
       position="-2585.6117,409.99566"
       id="guide3341" />
  </sodipodi:namedview>
  <metadata
     id="metadata7">
    <rdf:RDF>
      <cc:Work
         rdf:about="">
        <dc:format>image/svg+xml</dc:format>
        <dc:type
           rdf:resource="http://purl.org/dc/dcmitype/StillImage" />
        <dc:title></dc:title>
      </cc:Work>
    </rdf:RDF>
  </metadata>
  <g
     inkscape:label="Layer 1"
     inkscape:groupmode="layer"
     id="layer1"
     transform="translate(0,995.63782)">
    <path
       style="fill:#000000;fill-opacity:1;fill-rule:nonzero;stroke:none"
       d="M 1089.8809,-26.191011 C 1068.1101,-60.779642 1028.7941,-84.19941 992.17084,-100.74006 909.01509,-139.75705 804.03889,-88.38625 775.46445,-3.2455151 761.29157,61.348083 732.70189,127.09207 676.88318,166.24702 c -42.14404,33.33804 -97.84688,31.85976 -148.13164,24.34744 -75.56486,-11.07673 -162.17112,-20.8122 -227.61579,27.32553 -61.00012,42.36396 -70.63503,130.35209 -37.36111,193.02112 50.2399,94.53506 133.6702,151.38625 233.21954,174.06181 111.12659,25.31263 166.55933,35.14779 306.38157,-27.52344 56.88394,-25.49658 138.6684,-57.55161 193.67937,-86.83924 96.90298,-51.59087 150.86438,-172.5397 168.86838,-259.43414 18.0041,-86.89445 -4.9739,-113.68835 -26.483,-154.260011 -6.7455,-12.723673 -42.3027,-71.60756 -49.5596,-83.1371 z m 22.9934,123.322801 c 10.1011,83.86452 -11.5234,170.1732 -54.5495,242.3827 -31.9763,66.9585 -104.09351,98.41767 -170.74758,120.02182 -120.02409,57.92702 -243.96134,112.33567 -358.09174,75.24526 -69.14634,-12.85006 -158.62589,-50.55886 -202.15762,-106.99486 -35.83361,-60.05176 -54.73469,-120.63689 6.57215,-164.2732 69.79087,-49.12548 176.24703,-36.46071 255.13571,-19.96291 90.44667,14.6566 185.61276,-57.28664 214.63499,-144.12839 16.60539,-53.109291 31.23347,-112.618553 78.5915,-147.60782 32.6412,-22.340179 61.87935,-22.681063 100.01907,-13.842673 56.46552,26.194958 115.27272,96.130261 130.59302,159.160073 z"
       id="path3343"
       sodipodi:nodetypes="cccccccssszscccccccccccc" />
    <path
       style="fill:#000000;fill-opacity:1;fill-rule:nonzero;stroke:none"
       d="M 2334.5171,176.93144 C 2329.5232,136.36797 2303.8999,98.451125 2277.7882,67.905607 2219.1205,-2.7719297 2102.2635,-0.92289972 2040.193,63.9823 c -40.2979,52.43356 -94.1331,99.77708 -161.3044,111.4759 -52.321,12.24972 -102.1068,-12.77763 -144.4226,-40.96208 -63.68,-42.161568 -137.9235,-87.804986 -217.6271,-72.070045 -73.2255,12.399565 -119.3656,87.936515 -115.9028,158.806565 5.2659,106.92621 56.5975,193.86143 137.052,256.72092 89.8112,70.16973 135.7984,102.64584 288.999,105.38871 62.3267,1.11588 149.979,6.88575 212.2228,3.77403 109.6438,-5.48155 209.9197,-91.9986 263.1692,-162.98651 53.2496,-70.98779 43.8481,-105.01006 41.6355,-150.87733 -0.6938,-14.38435 -7.8328,-82.79985 -9.4975,-96.32102 z m -31.6368,121.39329 c -26.5241,80.19821 -82.8012,149.11625 -152.452,196.17188 -57.4168,47.00239 -136.0663,44.80459 -205.5802,36.01077 -133.2643,1.38317 -268.5741,-2.08227 -356.095,-84.18913 -57.1167,-41.03692 -122.0642,-113.21983 -137.4616,-182.81119 -6.8926,-69.58979 1.7667,-132.46134 75.8109,-145.88205 84.0572,-14.7806 175.0202,41.95585 239.403,90.43749 75.6265,51.73058 192.3538,27.09029 255.553,-39.16402 37.6154,-41.00508 76.163,-88.643462 133.9053,-100.17027 39.0431,-6.337465 65.6504,5.788544 96.4103,30.007999 39.9644,47.721841 63.4461,136.027271 50.5063,199.588521 z"
       id="path3343-6"
       sodipodi:nodetypes="cccccccssszscccccccccccc" />
    <path
       style="fill:#000000;fill-opacity:1;fill-rule:nonzero;stroke:none"
       d="m 1217.6728,-604.17423 c -15.7297,37.72162 -12.2223,83.34978 -4.6434,122.81395 16.0148,90.44728 118.4814,146.6574 204.5352,120.96345 60.9623,-25.62813 131.1705,-40.13496 195.3323,-17.06746 51.5291,15.24143 82.4115,61.62312 105.2403,107.05261 34.4795,68.14617 76.4162,144.54468 153.4658,170.30528 69.7697,25.45389 147.2398,-17.3611 179.2947,-80.66227 48.3272,-95.52701 46.7314,-196.47314 7.9151,-290.90592 -43.3307,-105.41494 -67.2267,-156.39042 -199.005,-234.57256 -53.6114,-31.80687 -126.9287,-80.18845 -182.5598,-108.28029 -97.9953,-49.4844 -227.9434,-23.91198 -309.341,11.43223 -81.3978,35.3441 -90.0606,69.56202 -110.8315,110.5165 -6.5139,12.84373 -34.1595,75.83065 -39.4027,88.40448 z m 87.5544,-89.84103 c 62.7296,-56.57113 145.7341,-88.61869 229.5441,-95.05036 73.1519,-12.43847 140.4129,28.38463 196.4714,70.41978 116.4945,64.7328 232.3678,134.69107 267.8019,249.34642 29.3322,63.92151 50.0596,158.78413 29.0089,226.87903 -28.4409,63.88557 -67.0727,114.23832 -138.0591,89.26673 -80.3609,-28.74407 -131.3388,-123.05497 -163.3021,-197.0412 -40.1268,-82.37261 -153.7571,-118.71225 -241.4593,-92.40441 -52.9767,17.02368 -110.0454,39.35056 -165.928,20.79873 -37.065,-13.80978 -54.1879,-37.51199 -68.9361,-73.7783 -11.1189,-61.24462 12.1654,-149.60224 54.8583,-198.43642 z"
       id="path3343-2"
       sodipodi:nodetypes="cccccccssszscccccccccccc" />
    <path
       style="fill:#000000;fill-opacity:1;fill-rule:nonzero;stroke:none"
       d="m 326.81086,-140.47151 c 29.22802,28.56686 72.91742,42.185651 112.38594,49.741638 89.9562,18.576524 180.0809,-55.831108 188.03972,-145.285548 -1.26111,-66.11819 11.23017,-136.71287 56.39442,-187.79152 33.22041,-42.23682 87.73569,-53.77271 138.38724,-58.1786 76.06662,-6.82738 162.5586,-17.53075 214.99192,-79.58711 49.4558,-55.4062 38.3328,-143.21858 -8.6221,-196.41452 -70.87603,-80.23413 -165.2529,-116.09044 -267.34585,-114.95682 -113.96597,1.2656 -170.16493,4.61151 -291.54548,98.1246 -49.38133,38.04401 -121.45082,88.26561 -168.12764,129.56011 -82.22224,72.74139 -106.52997,202.93197 -103.80075,291.63002 2.72923,88.69806 31.3159,109.40336 61.68281,143.84969 9.52343,10.80269 57.81714,59.78576 67.55977,69.30806 z m -51.08362,-114.57604 c -29.3558,-79.20561 -28.42782,-168.17719 -3.40299,-248.42192 15.50194,-72.56452 78.3088,-119.9551 138.09807,-156.48923 103.23183,-84.28829 211.08861,-166.06643 330.71893,-156.57758 70.2376,-3.60797 166.03902,12.22355 221.51787,56.96869 48.83458,50.05446 81.32648,104.57127 31.86877,161.28627 -56.42996,64.02921 -162.9082,76.50697 -243.46983,78.8365 -91.37293,6.81205 -167.16589,98.94153 -175.16402,190.15451 -3.77931,55.51625 -4.14496,116.79589 -42.05149,161.85291 -26.54033,29.32812 -54.89504,36.46939 -94.04438,36.757 -61.01368,-12.32341 -134.49194,-66.6389 -164.07093,-124.36715 z"
       id="path3343-9"
       sodipodi:nodetypes="cccccccssszscccccccccccc" />
    <path
       style="fill:#000000;fill-opacity:1;fill-rule:nonzero;stroke:none"
       d="m 2546.7573,121.18557 c -14.8934,38.05958 -10.38,83.59928 -1.932,122.88653 18.007,90.07193 121.689,144.00705 207.1549,116.42035 60.3819,-26.96722 130.2528,-43.01989 194.908,-21.37395 51.8529,14.10055 83.7513,59.78946 107.5771,104.70406 35.9749,67.36876 79.5874,142.82323 157.1867,166.87715 70.3145,23.90808 146.8209,-20.60612 177.471,-84.59932 46.2074,-96.57019 42.3843,-197.45653 1.4935,-291.00968 C 3344.9701,130.65771 3319.955,80.221964 3186.4835,4.9669871 3132.1832,-25.649099 3057.816,-72.40094 3001.5786,-99.25827 c -99.0635,-47.30986 -228.4156,-18.87594 -309.0135,18.2559 -80.5979,37.13185 -88.5036,71.5325401 -108.3656,112.935469 -6.2288,12.984346 -32.4778,76.565991 -37.4422,89.252471 z m 85.5505,-91.751292 c 61.4659,-57.941676 143.743,-91.813128 227.3906,-100.092808 72.8597,-14.04972 141.0052,25.2791 197.9776,66.0668901 117.8947,62.1462729 235.2835,129.5303599 273.2393,243.3758999 30.7357,63.25865 53.5514,157.64077 34.0086,226.18361 -27.0241,64.49765 -64.5354,115.69061 -136.0557,92.29159 -80.9755,-26.96358 -134.0223,-120.12659 -167.6105,-193.38938 -41.9348,-81.46705 -156.3394,-115.29029 -243.4397,-87.05341 -52.5881,18.18856 -109.1502,41.76953 -165.4286,24.45537 -37.3608,-12.98848 -55.0026,-36.30705 -70.5475,-72.23907 -12.4677,-60.98433 8.861,-149.834259 50.4659,-199.598692 z"
       id="path3343-1"
       sodipodi:nodetypes="cccccccssszscccccccccccc" />
    <path
       style="fill:#000000;fill-opacity:1;fill-rule:nonzero;stroke:none"
       d="m 2270.5817,-417.06555 c -15.7297,-37.7216 -12.2223,-83.3498 -4.6434,-122.814 16.0148,-90.4472 118.4814,-146.65736 204.5352,-120.9634 60.9623,25.6281 131.1705,40.1349 195.3323,17.0674 51.5291,-15.2414 82.4115,-61.62307 105.2403,-107.05256 34.4795,-68.14617 76.4162,-144.54469 153.4658,-170.30529 69.7697,-25.4539 147.2398,17.3611 179.2947,80.6623 48.3272,95.52699 46.7314,196.47315 7.9151,290.90585 -43.3307,105.415 -67.2267,156.3905 -199.005,234.5726 -53.6114,31.8069 -126.9287,80.1885 -182.5598,108.2803 -97.9953,49.4844 -227.9434,23.912 -309.341,-11.4322 -81.3978,-35.3441 -90.0606,-69.5621 -110.8315,-110.5165 -6.5139,-12.8438 -34.1595,-75.8307 -39.4027,-88.4045 z m 87.5544,89.841 c 62.7296,56.5711 145.7341,88.6187 229.5441,95.0504 73.1519,12.4384 140.4129,-28.3847 196.4714,-70.4198 116.4945,-64.7328 232.3678,-134.6911 267.8019,-249.3464 29.3322,-63.9215 50.0596,-158.78415 29.0089,-226.87905 -28.4409,-63.8856 -67.0727,-114.2383 -138.0591,-89.2667 -80.3609,28.744 -131.3388,123.05494 -163.3021,197.04117 -40.1268,82.37258 -153.7571,118.71228 -241.4593,92.40438 -52.9767,-17.0237 -110.0454,-39.3505 -165.928,-20.7987 -37.065,13.8098 -54.1879,37.512 -68.9361,73.7783 -11.1189,61.2446 12.1654,149.6022 54.8583,198.4364 z"
       id="path3343-2-8"
       sodipodi:nodetypes="cccccccssszscccccccccccc" />
  </g>
</svg>
