<?xml version="1.0" encoding="UTF-8" standalone="no"?>
<!-- Created with Inkscape (http://www.inkscape.org/) -->

<svg
   xmlns:dc="http://purl.org/dc/elements/1.1/"
   xmlns:cc="http://creativecommons.org/ns#"
   xmlns:rdf="http://www.w3.org/1999/02/22-rdf-syntax-ns#"
   xmlns:svg="http://www.w3.org/2000/svg"
   xmlns="http://www.w3.org/2000/svg"
   xmlns:sodipodi="http://sodipodi.sourceforge.net/DTD/sodipodi-0.dtd"
   xmlns:inkscape="http://www.inkscape.org/namespaces/inkscape"
   width="4096"
   height="2048"
   id="svg2"
   version="1.1"
   inkscape:version="0.47pre4 r22446">
  <defs
     id="defs4">
    <inkscape:perspective
       sodipodi:type="inkscape:persp3d"
       inkscape:vp_x="0 : 526.18109 : 1"
       inkscape:vp_y="0 : 1000 : 0"
       inkscape:vp_z="744.09448 : 526.18109 : 1"
       inkscape:persp3d-origin="372.04724 : 350.78739 : 1"
       id="perspective10" />
    <inkscape:perspective
       id="perspective3416"
       inkscape:persp3d-origin="0.5 : 0.33333333 : 1"
       inkscape:vp_z="1 : 0.5 : 1"
       inkscape:vp_y="0 : 1000 : 0"
       inkscape:vp_x="0 : 0.5 : 1"
       sodipodi:type="inkscape:persp3d" />
    <inkscape:perspective
       id="perspective3459"
       inkscape:persp3d-origin="0.5 : 0.33333333 : 1"
       inkscape:vp_z="1 : 0.5 : 1"
       inkscape:vp_y="0 : 1000 : 0"
       inkscape:vp_x="0 : 0.5 : 1"
       sodipodi:type="inkscape:persp3d" />
    <inkscape:perspective
       id="perspective3459-1"
       inkscape:persp3d-origin="0.5 : 0.33333333 : 1"
       inkscape:vp_z="1 : 0.5 : 1"
       inkscape:vp_y="0 : 1000 : 0"
       inkscape:vp_x="0 : 0.5 : 1"
       sodipodi:type="inkscape:persp3d" />
    <inkscape:perspective
       id="perspective3459-3"
       inkscape:persp3d-origin="0.5 : 0.33333333 : 1"
       inkscape:vp_z="1 : 0.5 : 1"
       inkscape:vp_y="0 : 1000 : 0"
       inkscape:vp_x="0 : 0.5 : 1"
       sodipodi:type="inkscape:persp3d" />
    <inkscape:perspective
       id="perspective3562"
       inkscape:persp3d-origin="0.5 : 0.33333333 : 1"
       inkscape:vp_z="1 : 0.5 : 1"
       inkscape:vp_y="0 : 1000 : 0"
       inkscape:vp_x="0 : 0.5 : 1"
       sodipodi:type="inkscape:persp3d" />
    <inkscape:perspective
       id="perspective3605"
       inkscape:persp3d-origin="0.5 : 0.33333333 : 1"
       inkscape:vp_z="1 : 0.5 : 1"
       inkscape:vp_y="0 : 1000 : 0"
       inkscape:vp_x="0 : 0.5 : 1"
       sodipodi:type="inkscape:persp3d" />
    <inkscape:perspective
       id="perspective3605-5"
       inkscape:persp3d-origin="0.5 : 0.33333333 : 1"
       inkscape:vp_z="1 : 0.5 : 1"
       inkscape:vp_y="0 : 1000 : 0"
       inkscape:vp_x="0 : 0.5 : 1"
       sodipodi:type="inkscape:persp3d" />
    <inkscape:perspective
       id="perspective3678"
       inkscape:persp3d-origin="0.5 : 0.33333333 : 1"
       inkscape:vp_z="1 : 0.5 : 1"
       inkscape:vp_y="0 : 1000 : 0"
       inkscape:vp_x="0 : 0.5 : 1"
       sodipodi:type="inkscape:persp3d" />
  </defs>
  <sodipodi:namedview
     id="base"
     pagecolor="#ffffff"
     bordercolor="#666666"
     borderopacity="1.0"
     inkscape:pageopacity="0.0"
     inkscape:pageshadow="2"
     inkscape:zoom="0.16"
     inkscape:cx="501.80206"
     inkscape:cy="1240.8707"
     inkscape:document-units="px"
     inkscape:current-layer="layer1"
     showgrid="false"
     showguides="true"
     inkscape:guide-bbox="true"
     inkscape:window-width="1440"
     inkscape:window-height="810"
     inkscape:window-x="-3"
     inkscape:window-y="-3"
     inkscape:window-maximized="1"
     inkscape:snap-to-guides="false">
    <sodipodi:guide
       orientation="0,1"
       position="-2585.6117,409.99566"
       id="guide3341" />
  </sodipodi:namedview>
  <metadata
     id="metadata7">
    <rdf:RDF>
      <cc:Work
         rdf:about="">
        <dc:format>image/svg+xml</dc:format>
        <dc:type
           rdf:resource="http://purl.org/dc/dcmitype/StillImage" />
        <dc:title></dc:title>
      </cc:Work>
    </rdf:RDF>
  </metadata>
  <g
     inkscape:label="Layer 1"
     inkscape:groupmode="layer"
     id="layer1"
     transform="translate(0,995.63782)">
    <path
       style="fill:#000000;fill-opacity:1;fill-rule:nonzero;stroke:none"
       d="m 152.07773,-27.16534 c 23.5109,-33.43023 63.97298,-54.809028 101.39411,-69.455376 85.04205,-34.713924 187.25418,21.957425 211.43775,108.447889 10.85148,65.233796 36.04207,132.353667 89.78565,174.311567 40.38424,35.44937 96.0898,36.82128 146.69291,31.88999 76.03238,-7.19838 163.02316,-12.49267 225.92079,38.92846 58.75414,45.42767 63.87734,133.79335 27.44249,194.679 C 899.7434,543.47868 813.51527,595.98945 712.93668,613.5451 600.66114,633.14238 544.79802,640.13024 408.36326,570.39146 352.85745,542.01959 272.81905,505.8246 219.3776,473.76242 125.23938,417.28411 77.533031,293.73429 63.995765,206.03292 50.458369,118.3315 74.77637,92.747604 98.331867,53.328825 105.71917,40.966746 144.24079,-16.021945 152.07773,-27.16534 z m -29.2692,121.985737 c -14.37613,83.238293 2.80685,170.539813 42.08439,244.854903 28.51069,68.50596 98.92495,103.61153 164.38715,128.59565 116.90509,63.98843 237.89815,124.66318 353.77579,93.45713 69.71293,-9.2976 161.0036,-42.38172 207.36413,-96.51798 38.85736,-58.14093 60.83161,-117.68033 1.83623,-164.39436 C 825.06856,248.1859 718.10408,255.39069 638.47503,267.83309 547.39724,277.84571 456.0343,201.13046 431.49052,112.91832 417.62249,59.029414 406.05643,-1.1499782 360.54946,-38.515031 329.09328,-62.495024 299.91082,-64.330497 261.36904,-57.453873 203.63798,-34.180418 141.33171,32.656429 122.80853,94.820397 z"
       id="path3343"
       sodipodi:nodetypes="cccccccssszscccccccccccc" />
    <path
       style="fill:#000000;fill-opacity:1;fill-rule:nonzero;stroke:none"
       d="m 2154.1734,361.62137 c 10.3277,-39.54334 0.5055,-84.2397 -12.4909,-122.26523 -28.4445,-87.33911 -137.7357,-128.7445 -219.3771,-91.32647 -56.8032,33.86144 -124.3098,57.99647 -191.0572,44.0812 -53.1486,-7.923 -90.1844,-49.55635 -119.1125,-91.36731 -43.6264,-62.685623 -95.7856,-132.505535 -175.6702,-147.294392 -72.6328,-15.498095 -143.3918,37.680043 -166.3266,104.825792 -34.5649,101.32232 -18.9383,201.06434 32.6403,289.17723 57.5772,98.36008 88.3338,145.51464 229.7088,204.59972 57.5158,24.03768 136.852,61.74669 195.8508,81.82455 103.9277,35.36741 229.0533,-8.0381 304.741,-54.36475 75.6878,-46.32646 79.5052,-81.41676 94.3752,-124.86313 4.6635,-13.62509 23.2758,-79.84614 26.7184,-93.02721 z m -74.2017,101.15 c -54.2476,64.74935 -131.9855,108.0349 -214.0851,126.06585 -70.7095,22.49624 -142.9966,-8.5706 -204.3588,-42.39651 -124.3685,-47.89317 -248.8489,-101.04759 -299.8923,-209.65702 -37.9413,-59.21831 -71.6668,-150.27393 -60.2961,-220.63546 19.2748,-67.221525 50.5244,-122.459863 124.295,-107.6086309 83.5787,17.2823459 147.1838,103.5824309 189.1309,172.4012909 51.1984,75.98788 168.7798,96.16279 251.9681,57.90739 50.0926,-24.2295 103.4994,-54.28018 161.4198,-43.6847 38.626,8.51801 58.8804,29.60707 78.5315,63.46842 19.5327,59.10157 8.7696,149.83968 -26.713,204.13937 z"
       id="path3343-6"
       sodipodi:nodetypes="cccccccssszscccccccccccc" />
    <path
       style="fill:#000000;fill-opacity:1;fill-rule:nonzero;stroke:none"
       d="m 3117.0379,-368.92154 c -14.6833,38.14111 -48.738,68.71083 -81.4789,92.01099 -74.0582,54.33741 -186.9775,24.20036 -231.4519,-53.82176 -26.3771,-60.64206 -67.1218,-119.62938 -129.4498,-147.27108 -47.7877,-24.5742 -102.1571,-12.36954 -150.0454,4.7098 -72.0046,25.4572 -155.1018,51.73018 -228.609,17.13326 -68.0314,-29.7899 -94.4725,-114.26242 -73.9239,-182.17641 31.0433,-102.45604 101.9279,-174.34513 195.2264,-215.8137 104.1489,-46.29105 156.64,-66.64332 305.9313,-32.14596 60.7362,14.03454 147.1706,29.69667 206.8009,47.8126 105.0402,31.91155 181.3374,140.16676 215.7791,221.95038 34.4418,81.78367 17.0688,112.50971 3.7975,156.47074 -4.1621,13.78657 -27.6819,78.4275 -32.5763,91.14114 z m -1.2486,-125.44171 c -6.2803,-84.23689 -44.161,-164.74674 -100.3189,-227.2909 -44.302,-59.52519 -121.1361,-76.46914 -190.7072,-84.79829 -128.9496,-33.66459 -261.0596,-63.12168 -365.8817,-4.69438 -65.3645,25.95807 -145.8804,80.23271 -177.6972,144.01151 -23.5655,65.8401 -30.4142,128.93457 38.1638,159.91369 77.9625,34.72702 179.9705,1.74746 254.1898,-29.67065 85.9154,-31.8429 193.1807,20.37347 238.4231,99.97817 26.5466,48.9042 52.3886,104.46958 105.6109,129.6574 36.3401,15.61799 65.0939,10.30755 100.8097,-5.728 50.3458,-36.6037 94.5445,-116.57682 97.4077,-181.37855 z"
       id="path3343-2"
       sodipodi:nodetypes="cccccccssszscccccccccccc" />
    <path
       style="fill:#000000;fill-opacity:1;fill-rule:nonzero;stroke:none"
       d="m 176.72717,-761.90512 c -27.9698,29.7999 -40.70203,73.75584 -47.45811,113.36913 -16.75301,90.31356 59.46241,178.91469 149.05954,185.06239 66.07915,-2.59832 136.91205,8.4624 188.89385,52.58419 42.90016,32.35924 55.53643,86.63002 60.96602,137.18207 8.36467,75.91295 20.81543,162.17072 83.91973,213.33804 56.39526,48.3249 143.96467,35.4279 196.19992,-12.59346 78.78402,-72.48452 112.72391,-167.56739 109.52537,-269.61651 -3.57067,-113.91706 -8.0527,-170.03683 -104.00197,-289.50095 -39.0351,-48.60166 -90.70427,-119.64051 -132.93451,-165.47247 -74.38972,-80.73401 -205.04535,-102.40321 -293.67006,-97.88031 -88.62469,4.5228 -108.7475,33.52248 -142.57251,64.57995 -10.60785,9.74002 -58.604,59.01469 -67.92727,68.94793 z m 113.51927,-53.39084 c 78.59559,-30.95198 167.56773,-31.82391 248.30225,-8.42741 72.86325,14.03091 121.5146,75.8663 159.25068,134.90432 86.35925,101.50571 170.3024,207.68618 163.23539,327.48398 5.02801,70.15025 -8.86238,166.25229 -52.47613,222.62491 -49.05638,49.8371 -102.90478,83.42513 -160.60861,35.12479 -65.15759,-55.12322 -79.78665,-161.32728 -83.74532,-241.82529 -8.65898,-91.21645 -102.30276,-165.13028 -193.65887,-171.28171 -55.58133,-2.65554 -116.85583,-1.78154 -162.67042,-38.76889 -29.85897,-25.94165 -37.57236,-54.1461 -38.65182,-93.28161 11.0867,-61.25048 63.90474,-135.81241 121.02285,-166.55309 z"
       id="path3343-9"
       sodipodi:nodetypes="cccccccssszscccccccccccc" />
    <path
       style="fill:#000000;fill-opacity:1;fill-rule:nonzero;stroke:none"
       d="m 2364.5108,218.41218 c 7.4038,-40.19364 35.2424,-76.51504 63.1293,-105.44919 62.7777,-67.053373 179.3164,-58.239434 237.4062,10.25158 37.0996,54.74323 88.0159,105.21266 154.37,120.89616 51.4975,15.34778 102.687,-6.66634 146.6082,-32.27736 66.0808,-38.28932 142.9139,-79.42433 221.5373,-58.96464 72.3559,16.74391 113.9096,94.89781 106.227,165.43528 -11.6326,106.42189 -68.0568,190.14157 -152.1164,248.0917 -93.8357,64.68944 -141.6775,94.3655 -294.7691,87.96808 -62.2824,-2.60258 -150.1228,-2.06966 -212.0701,-8.88757 -109.1218,-12.00984 -204.0602,-104.35242 -252.9821,-178.38916 -48.9218,-74.03682 -37.5083,-107.43801 -32.5647,-153.09169 1.5505,-14.3174 12.7564,-82.18541 15.2244,-95.58319 z m 24.3418,123.06366 c 21.6947,81.6372 73.762,153.78836 140.483,204.91353 54.512,50.34261 133.1525,52.83861 203.0669,48.20556 132.9449,9.32712 268.2205,13.93651 360.4817,-62.80541 59.4621,-37.55798 128.5982,-105.73964 148.118,-174.289 11.03,-69.05501 6.1351,-132.33101 -66.9771,-150.14316 -83.0262,-19.76655 -177.2106,31.44486 -244.3697,76.00101 -78.5765,47.12888 -193.6269,15.57198 -252.763,-54.33306 -35.1033,-43.17506 -70.7415,-93.02735 -127.6938,-107.97671 -38.5957,-8.65438 -65.8787,1.86344 -98.0281,24.20558 -42.7389,45.25397 -71.4446,132.00194 -62.3179,196.22166 z"
       id="path3343-1"
       sodipodi:nodetypes="cccccccssszscccccccccccc" />
    <path
       style="fill:#000000;fill-opacity:1;fill-rule:nonzero;stroke:none"
       d="m 3998.4754,-846.19203 c 27.244,30.4649 38.9138,74.71473 44.7139,114.4793 14.5731,90.69064 -63.7542,177.4306 -153.4734,181.4186 -65.9974,-4.18905 -137.0761,5.16253 -190.1056,48.01958 -43.6671,31.31667 -57.6068,85.26725 -64.2522,135.67389 -10.1907,75.68949 -24.7153,161.62227 -89.0336,211.25497 -57.5427,46.95254 -144.7762,31.95022 -195.8397,-17.31514 -77.0153,-74.36097 -108.6554,-170.23379 -103,-272.17621 6.3133,-113.79811 12.1455,-169.79361 110.9444,-286.91219 40.1944,-47.6474 93.5593,-117.4212 136.8813,-162.22279 76.3125,-78.91887 207.4521,-97.43507 295.9421,-90.77892 88.4901,6.65594 107.9086,36.13201 140.9759,67.99499 10.3702,9.99262 57.1656,60.4091 66.2469,70.56392 z m -112.2004,-56.10935 c -77.8273,-32.83598 -166.7525,-35.85058 -248.0273,-14.40524 -73.18,12.27195 -123.3064,72.91765 -162.4536,131.02969 -88.7788,99.39628 -175.255,203.52434 -171.0753,323.45744 -6.7161,70.00879 4.8556,166.41759 47.0992,223.82425 47.8417,51.00414 100.8655,85.87933 159.7159,38.98284 66.4663,-53.53796 83.649,-159.35883 89.5453,-239.73827 10.8534,-90.98132 106.2502,-162.61839 197.728,-166.56773 55.6292,-1.31609 116.8648,1.03324 163.5569,-34.83982 30.4751,-25.21498 38.8655,-53.22551 40.8872,-92.32363 -9.6083,-61.49971 -60.6151,-137.31212 -116.9763,-169.41953 z"
       id="path3343-2-8"
       sodipodi:nodetypes="cccccccssszscccccccccccc" />
    <path
       style="fill:#000000;fill-opacity:1;fill-rule:nonzero;stroke:none"
       d="m 1086.7925,-265.9844 c 29.5,28.28601 73.3175,41.48629 112.8566,48.66438 90.1297,17.71522 179.5386,-57.55123 186.6413,-147.07767 -1.8936,-66.1031 9.9219,-136.814 54.5954,-188.32245 32.8151,-42.55268 87.2174,-54.60957 137.8245,-59.49969 75.9977,-7.5548 162.3834,-19.08505 214.2208,-81.64013 48.9233,-55.8767 36.9609,-143.57872 -10.5007,-196.32298 -71.6403,-79.55242 -166.3558,-114.50436 -268.4333,-112.39426 -113.9487,2.3558 -170.1131,6.23917 -290.5936,100.90926 -49.0151,38.51461 -120.6009,89.42322 -166.8805,131.16242 -81.52255,73.52449 -104.58378,203.9416 -101.00611,292.60943 3.57742,88.66801 32.361,109.09879 63.05591,143.25315 9.6264,10.71105 58.3865,59.22991 68.2197,68.65854 z m -52.1772,-114.08205 c -30.1122,-78.92116 -30.0355,-167.89743 -5.7793,-248.378 14.807,-72.70949 77.1577,-120.69866 136.5948,-157.80315 102.4208,-85.27186 209.4904,-168.07811 329.2059,-159.73401 70.1999,-4.27964 166.1484,10.63454 222.0527,54.84711 49.3111,49.58492 82.3232,103.78845 33.4103,160.97396 -55.815,64.56615 -162.169,78.06185 -242.7047,81.16193 -91.3035,7.68583 -166.2116,100.53606 -173.337,191.82142 -3.248,55.54988 -3.0276,116.83018 -40.5012,162.24776 -26.2586,29.58066 -54.5437,36.99279 -93.6885,37.65492 -61.1287,-11.73924 -135.1233,-65.3493 -165.253,-122.79194 z"
       id="path3343-2-2"
       sodipodi:nodetypes="cccccccssszscccccccccccc" />
    <path
       style="fill:#000000;fill-opacity:1;fill-rule:nonzero;stroke:none"
       d="m 3814.3988,-222.47603 c -38.3833,-14.03806 -83.8105,-8.50679 -122.8989,0.81818 -89.6464,20.01783 -141.2481,124.88089 -111.7558,209.70799 28.3116,59.763379 45.9237,129.25762 25.7299,194.38105 -12.9368,52.15547 -57.9005,85.06824 -102.2707,109.89307 -66.5468,37.47337 -141.0065,82.76334 -163.3181,160.8815 -22.3286,70.83174 23.8863,146.32292 88.5493,175.53348 97.58,44.03487 198.3555,37.9553 290.9703,-5.01864 103.3855,-47.97185 153.2488,-74.10932 225.4984,-209.23137 29.3933,-54.97171 74.4694,-130.36637 100.0616,-187.19071 45.0812,-100.09726 13.76,-228.7807397 -25.166,-308.52751 -38.926,-79.74697 -73.4951,-86.88073 -115.332,-105.8114 -13.1205,-5.93676 -77.2736,-30.75633 -90.068,-35.43564 z m 93.6427,83.47597 c 59.3025,60.15399 95.0066,141.6524703 105.1559,225.093932 15.6766,72.526958 -22.1176,141.535478 -61.6203,199.406368 -59.4927,119.25573 -124.2332,238.12311 -237.2008,278.61671 -62.5551,32.14345 -156.403,57.06552 -225.366,39.0613 -65.0862,-25.57417 -117.1058,-61.93047 -95.313,-133.95632 25.145,-81.5588 117.0976,-136.6769 189.5905,-171.89604 80.5083,-43.74733 111.763,-158.88003 81.5843,-245.326679 -19.3608,-52.16801071 -44.2014,-108.188241 -28.151,-164.840001 12.1493,-37.64202 35.0672,-55.80111 70.6424,-72.14618 60.6901,-13.82922 149.995,5.50603 200.678,45.98691 z"
       id="path3343-2-7"
       sodipodi:nodetypes="cccccccssszscccccccccccc" />
    <path
       style="fill:#000000;fill-opacity:1;fill-rule:nonzero;stroke:none"
       d="m 2504.2384,-206.73766 c 4.5942,-40.61081 -11.4898,-83.45392 -29.7664,-119.24254 -40.5862,-82.4011 -154.6582,-107.829 -230.1424,-59.1714 -51.4052,41.6019 -114.7892,75.09963 -182.8376,70.8266 -53.7353,-0.2774 -96.3199,-36.2153 -130.9046,-73.4832 -52.1045,-55.8377 -113.6707,-117.5226 -194.8469,-120.7905 -74.0991,-5.002 -136.5685,57.7062 -149.7126,127.4327 -19.7912,105.21047 9.873,201.71275 73.4682,281.587161 70.9912,89.16337 108.1465,131.46005 256.4921,169.82091 60.3514,15.60636 144.2472,41.639119 205.5029,53.114789 107.9034,20.21454 225.5769,-40.558769 293.9001,-97.186729 68.3235,-56.62785 67.1072,-91.90435 75.6421,-137.024781 2.6765,-14.15025 11.6737,-82.34613 13.2051,-95.88301 z m -59.049,110.681551 c -44.4792,71.81153 -115.2642,125.72123 -193.9616,155.25428 -66.7876,32.33178 -142.7605,11.87025 -208.3126,-12.87718 -129.9192,-29.70361 -260.6981,-64.59881 -326.6806,-164.837181 -45.9839,-53.21487 -92.3265,-138.5431 -91.0865,-209.80671 9.5105,-69.2806 32.5796,-128.4045 107.7129,-124.2047 85.1878,5.2103 160.4288,81.5785 211.7443,143.7261 61.4928,67.92675 180.7485,71.16018 257.6449,21.4537 46.1338,-31.1129 94.7196,-68.4591 153.5583,-66.2157 39.4452,2.9334 62.495,20.9248 86.7656,51.64434 27.7461,55.71972 30.0078,147.06584 2.6153,205.863051 z"
       id="path3343-2-2-0"
       sodipodi:nodetypes="cccccccssszscccccccccccc" />
  </g>
</svg>
