<?xml version="1.0" encoding="UTF-8" standalone="no"?>
<!-- Created with Inkscape (http://www.inkscape.org/) -->

<svg
   xmlns:dc="http://purl.org/dc/elements/1.1/"
   xmlns:cc="http://creativecommons.org/ns#"
   xmlns:rdf="http://www.w3.org/1999/02/22-rdf-syntax-ns#"
   xmlns:svg="http://www.w3.org/2000/svg"
   xmlns="http://www.w3.org/2000/svg"
   xmlns:sodipodi="http://sodipodi.sourceforge.net/DTD/sodipodi-0.dtd"
   xmlns:inkscape="http://www.inkscape.org/namespaces/inkscape"
   width="2048"
   height="2048"
   id="svg2"
   version="1.1"
   inkscape:version="0.47pre4 r22446">
  <defs
     id="defs4">
    <inkscape:perspective
       sodipodi:type="inkscape:persp3d"
       inkscape:vp_x="0 : 526.18109 : 1"
       inkscape:vp_y="0 : 1000 : 0"
       inkscape:vp_z="744.09448 : 526.18109 : 1"
       inkscape:persp3d-origin="372.04724 : 350.78739 : 1"
       id="perspective10" />
    <inkscape:perspective
       id="perspective3416"
       inkscape:persp3d-origin="0.5 : 0.33333333 : 1"
       inkscape:vp_z="1 : 0.5 : 1"
       inkscape:vp_y="0 : 1000 : 0"
       inkscape:vp_x="0 : 0.5 : 1"
       sodipodi:type="inkscape:persp3d" />
    <inkscape:perspective
       id="perspective3459"
       inkscape:persp3d-origin="0.5 : 0.33333333 : 1"
       inkscape:vp_z="1 : 0.5 : 1"
       inkscape:vp_y="0 : 1000 : 0"
       inkscape:vp_x="0 : 0.5 : 1"
       sodipodi:type="inkscape:persp3d" />
  </defs>
  <sodipodi:namedview
     id="base"
     pagecolor="#ffffff"
     bordercolor="#666666"
     borderopacity="1.0"
     inkscape:pageopacity="0.0"
     inkscape:pageshadow="2"
     inkscape:zoom="0.16"
     inkscape:cx="501.80206"
     inkscape:cy="1240.8707"
     inkscape:document-units="px"
     inkscape:current-layer="layer1"
     showgrid="false"
     showguides="true"
     inkscape:guide-bbox="true"
     inkscape:window-width="1440"
     inkscape:window-height="810"
     inkscape:window-x="-3"
     inkscape:window-y="-3"
     inkscape:window-maximized="1"
     inkscape:snap-to-guides="false">
    <sodipodi:guide
       orientation="0,1"
       position="-2585.6117,409.99566"
       id="guide3341" />
  </sodipodi:namedview>
  <metadata
     id="metadata7">
    <rdf:RDF>
      <cc:Work
         rdf:about="">
        <dc:format>image/svg+xml</dc:format>
        <dc:type
           rdf:resource="http://purl.org/dc/dcmitype/StillImage" />
        <dc:title></dc:title>
      </cc:Work>
    </rdf:RDF>
  </metadata>
  <g
     inkscape:label="Layer 1"
     inkscape:groupmode="layer"
     id="layer1"
     transform="translate(0,995.63782)">
    <path
       style="fill:#000000;fill-opacity:1;fill-rule:nonzero;stroke:none"
       d="m 470.75759,-356.53243 c -40.30948,-6.74444 -83.94636,7.04172 -120.65505,23.39181 -84.4403,36.15301 -115.89023,148.71349 -71.31009,226.67536 38.81315,53.541979 68.8976,118.61553 61.01673,186.34094 -3.13068,53.64461 -41.27952,94.26057 -80.33135,126.8174 -58.52615,49.0656 -123.39364,107.26896 -130.96781,188.15702 -8.93023,73.72903 50.37199,139.44044 119.3021,156.26904 104.0109,25.35067 201.95245,0.85318 285.09138,-58.41039 92.80769,-66.15574 137.01785,-101.01229 183.20275,-247.11123 18.78941,-59.43749 49.24089,-141.83245 63.95352,-202.39243 25.91653,-106.677733 -28.52181,-227.41262 -81.4414,-298.6468 -52.91959,-71.23418 -88.21079,-71.89324 -132.81435,-82.81213 -13.98813,-3.42426 -81.60994,-16.03044 -95.04643,-18.27859 z m 107.38953,64.84363 c 69.34803,48.23008 119.42244,121.77843 144.7345,201.93302 28.7392,68.41039 4.27188,143.18954 -23.92197,207.33477 -36.56124,128.15849 -78.35244,256.89947 -181.9535,317.4657 C 461.4243,478.13758 373.75534,519.88322 302.65819,514.86043 233.98037,501.68402 176.1651,475.50761 184.34912,400.70334 194.07605,315.91263 274.33223,244.8334 339.11733,196.89081 410.21399,139.09218 419.77619,20.17633 374.22351,-59.251194 345.60462,-106.97221 310.8912,-157.47281 316.25628,-216.10939 c 5.02412,-39.23378 24.21422,-61.29565 56.17937,-83.90061 57.11457,-24.74785 148.45193,-22.15522 205.71147,8.3212 z"
       id="path3343"
       sodipodi:nodetypes="cccccccssszscccccccccccc" />
    <path
       style="fill:#000000;fill-opacity:1;fill-rule:nonzero;stroke:none"
       d="m 1775.6614,-242.47141 c -38.24,-14.42361 -83.7207,-9.34973 -122.9009,-0.41865 -89.8434,19.11477 -142.4977,123.45309 -113.8607,208.57279 27.7087,60.04528 44.6206,129.71324 23.7724,194.63007 -13.4609,52.02255 -58.7536,84.48119 -103.3714,108.85831 -66.9206,36.80175 -141.8323,81.34007 -164.9289,159.22969 -23.0404,70.60353 22.4125,146.55597 86.7783,176.41579 97.1319,45.01473 197.9635,39.94962 291.006,-2.09017 103.863,-46.92892 153.9869,-72.56317 227.5926,-206.95124 29.9451,-54.67312 75.7776,-129.6104 101.9405,-186.17435 46.0864,-99.63857 16.0618,-228.63069 -22.0598,-308.76521 -38.1215,-80.13454 -72.6169,-87.61603 -114.2613,-106.96668 -13.06,-6.0685 -76.9601,-31.53251 -89.7068,-36.34035 z m 92.7979,84.41425 c 58.6941,60.74771 93.5762,142.60152 102.8853,226.14075 14.9458,72.68112 -23.5409,141.30578 -63.6241,198.77616 -60.6897,118.65102 -126.6232,236.8607 -239.9927,276.21552 -62.8754,31.51232 -156.9694,55.48855 -225.7477,36.79125 -64.8255,-26.22787 -116.4765,-63.10591 -93.96,-134.90887 25.9644,-81.30145 118.4671,-135.49146 191.3108,-169.97924 80.9445,-42.93483 113.3564,-157.74724 84.0491,-244.49318 -18.8348,-52.36016 -43.1104,-108.62765 -26.4906,-165.11496 12.5274,-37.51792 35.627,-55.44547 71.3649,-71.43166 60.8261,-13.21778 149.932,7.01524 200.205,48.00423 z"
       id="path3343-6"
       sodipodi:nodetypes="cccccccssszscccccccccccc" />
    <path
       style="fill:#000000;fill-opacity:1;fill-rule:nonzero;stroke:none"
       d="m 772.03771,-839.1151 c -35.40936,20.4088 -60.34086,58.78401 -78.29368,94.73605 -42.22232,81.575 5.02588,188.47013 88.99056,220.33503 63.99337,16.67493 128.57541,47.8005 165.52931,105.10015 31.6733,43.40903 28.0293,99.01219 18.5665,148.96665 -14.0079,75.07677 -27.1051,161.23876 18.4503,228.5065 39.9589,62.60196 127.5056,75.65244 191.4216,44.8416104 96.4179,-46.5243204 156.4716,-127.6798704 183.0026,-226.2717604 29.6164,-110.05778 41.6006,-165.06595 -15.584,-307.22036 -23.2644,-57.83273 -52.1136,-140.80226 -79.2391,-196.91092 -47.7821,-98.83655 -166.5402,-157.46215 -252.6685,-178.83295 -86.1283,-21.3708 -113.7958,0.5476 -155.17349,20.4621 -12.97645,6.2454 -73.19899,39.485 -85.0021,46.2879 z m 124.12389,-18.1785 c 84.194,-6.831 169.5961,18.1346 240.0772,63.93719 65.6639,34.55686 94.2938,107.84328 113.2887,175.28733 53.214,122.18668 102.7602,248.14669 61.258,360.74783 -15.5302,68.59411 -56.6913,156.53902 -114.7781,197.84236 -61.4002,33.47038 -122.6748,50.0003104 -163.8932,-12.95763 -46.3733,-71.6491 -29.5768,-177.532 -10.0226,-255.71918 18.164,-89.80805 -50.0227,-187.7008 -135.6697,-220.07931 -52.42315,-18.65886 -111.3183,-35.59084 -144.43879,-84.27416 -21.05348,-33.48555 -20.2567,-62.71484 -9.94131,-100.48186 28.37171,-55.40376 100.54174,-111.44587 164.1198,-124.30257 z"
       id="path3343-2"
       sodipodi:nodetypes="cccccccssszscccccccccccc" />
  </g>
</svg>
