<?xml version="1.0" encoding="UTF-8" standalone="no"?>
<!-- Created with Inkscape (http://www.inkscape.org/) -->
<svg
   xmlns:dc="http://purl.org/dc/elements/1.1/"
   xmlns:cc="http://creativecommons.org/ns#"
   xmlns:rdf="http://www.w3.org/1999/02/22-rdf-syntax-ns#"
   xmlns:svg="http://www.w3.org/2000/svg"
   xmlns="http://www.w3.org/2000/svg"
   xmlns:sodipodi="http://sodipodi.sourceforge.net/DTD/sodipodi-0.dtd"
   xmlns:inkscape="http://www.inkscape.org/namespaces/inkscape"
   width="1000"
   height="1000"
   id="svg2"
   sodipodi:version="0.32"
   inkscape:version="0.46"
   version="1.0"
   sodipodi:docname="$.svg"
   inkscape:output_extension="org.inkscape.output.svg.inkscape">
  <defs
     id="defs4">
    <inkscape:perspective
       sodipodi:type="inkscape:persp3d"
       inkscape:vp_x="0 : 526.18109 : 1"
       inkscape:vp_y="0 : 1000 : 0"
       inkscape:vp_z="744.09448 : 526.18109 : 1"
       inkscape:persp3d-origin="372.04724 : 350.78739 : 1"
       id="perspective10" />
  </defs>
  <sodipodi:namedview
     id="base"
     pagecolor="#ffffff"
     bordercolor="#666666"
     borderopacity="1.0"
     gridtolerance="10000"
     guidetolerance="10"
     objecttolerance="10"
     inkscape:pageopacity="0.0"
     inkscape:pageshadow="2"
     inkscape:zoom="0.466"
     inkscape:cx="422.6299"
     inkscape:cy="500"
     inkscape:document-units="px"
     inkscape:current-layer="layer1"
     showgrid="false"
     showguides="true"
     inkscape:guide-bbox="true"
     inkscape:window-width="839"
     inkscape:window-height="680"
     inkscape:window-x="0"
     inkscape:window-y="10">
    <sodipodi:guide
       orientation="1,0"
       position="200.47021,984.78919"
       id="guide2383" />
    <sodipodi:guide
       orientation="0,1"
       position="493.56223,800.42918"
       id="guide2405" />
    <sodipodi:guide
       orientation="0,1"
       position="25.242205,200.06785"
       id="guide2407" />
  </sodipodi:namedview>
  <metadata
     id="metadata7">
    <rdf:RDF>
      <cc:Work
         rdf:about="">
        <dc:format>image/svg+xml</dc:format>
        <dc:type
           rdf:resource="http://purl.org/dc/dcmitype/StillImage" />
      </cc:Work>
    </rdf:RDF>
  </metadata>
  <g
     inkscape:label="Layer 1"
     inkscape:groupmode="layer"
     id="layer1">
    <path
       style="fill:#000000;fill-opacity:1;stroke:none;stroke-width:40.90000153;stroke-miterlimit:4;stroke-dasharray:none;stroke-opacity:1"
       d="M 511.38447,109.96477 C 315.53004,109.96477 156.16572,269.32909 156.16572,465.18352 C 156.16572,661.03795 315.53004,820.37099 511.38447,820.37102 C 707.2389,820.37102 866.60317,661.03795 866.60317,465.18352 C 866.60317,269.32909 707.2389,109.96477 511.38447,109.96477 z M 511.38447,150.83977 C 685.10943,150.83977 825.69697,291.45856 825.69697,465.18352 C 825.69694,638.90849 685.10943,779.49602 511.38447,779.49602 C 337.6595,779.49599 197.07197,638.90848 197.07197,465.18352 C 197.07197,291.45856 337.65951,150.83977 511.38447,150.83977 z"
       id="path3254" />
    <path
       style="font-size:40px;font-style:normal;font-weight:normal;fill:#000000;fill-opacity:1;stroke:none;stroke-width:1px;stroke-linecap:butt;stroke-linejoin:miter;stroke-opacity:1;font-family:Bitstream Vera Sans"
       d="M 521.35123,693.66595 L 496.74185,693.66595 L 496.49576,619.59174 C 479.26907,619.26361 462.04252,617.29486 444.81607,613.68549 C 427.58943,609.91206 410.28086,604.33394 392.89029,596.95111 L 392.89029,552.65424 C 409.62461,563.15429 426.52303,571.11132 443.5856,576.52533 C 460.81205,581.77537 478.53079,584.4824 496.74185,584.64642 L 496.74185,472.42767 C 460.48393,466.52158 434.06989,456.51377 417.49966,442.40424 C 401.09336,428.29505 392.89025,408.9357 392.89029,384.32611 C 392.89025,357.58419 401.83164,336.50218 419.71451,321.08002 C 437.59723,305.65846 463.27299,296.79909 496.74185,294.50189 L 496.74185,236.66986 L 521.35123,236.66986 L 521.35123,293.76361 C 536.60885,294.42019 551.37446,296.06081 565.6481,298.68549 C 579.92131,301.14674 593.86661,304.59205 607.48404,309.02142 L 607.48404,352.08783 C 593.86661,345.19748 579.83928,339.86545 565.40201,336.09174 C 551.12837,332.31859 536.44479,330.10374 521.35123,329.4472 L 521.35123,434.52924 C 558.59321,440.2716 585.99162,450.5255 603.54654,465.29095 C 621.10096,480.05672 629.87829,500.23639 629.87857,525.83002 C 629.87829,553.55665 620.52674,575.45897 601.82388,591.53705 C 583.28459,607.45112 556.4604,616.63861 521.35123,619.09955 L 521.35123,693.66595 M 496.74185,430.09955 L 496.74185,329.20111 C 477.71048,331.33421 463.19096,336.74827 453.18326,345.4433 C 443.17535,354.13888 438.17145,365.70527 438.17154,380.14252 C 438.17145,394.25212 442.7652,405.24429 451.95279,413.11908 C 461.30424,420.99428 476.23391,426.65443 496.74185,430.09955 M 521.35123,477.34955 L 521.35123,583.90814 C 542.18697,581.11912 557.85493,575.21287 568.35513,566.18939 C 579.01897,557.16602 584.35099,545.2715 584.35123,530.5058 C 584.35099,516.0684 579.26506,504.58404 569.09341,496.05267 C 559.08539,487.52156 543.17135,481.28719 521.35123,477.34955"
       id="text3419" />
  </g>
</svg>
