<?xml version="1.0" encoding="UTF-8" standalone="no"?>
<!-- Created with Inkscape (http://www.inkscape.org/) -->
<svg
   xmlns:dc="http://purl.org/dc/elements/1.1/"
   xmlns:cc="http://creativecommons.org/ns#"
   xmlns:rdf="http://www.w3.org/1999/02/22-rdf-syntax-ns#"
   xmlns:svg="http://www.w3.org/2000/svg"
   xmlns="http://www.w3.org/2000/svg"
   xmlns:sodipodi="http://sodipodi.sourceforge.net/DTD/sodipodi-0.dtd"
   xmlns:inkscape="http://www.inkscape.org/namespaces/inkscape"
   width="1000"
   height="1000"
   id="svg2"
   sodipodi:version="0.32"
   inkscape:version="0.46"
   version="1.0"
   sodipodi:docname="5.svg"
   inkscape:output_extension="org.inkscape.output.svg.inkscape">
  <defs
     id="defs4">
    <inkscape:perspective
       sodipodi:type="inkscape:persp3d"
       inkscape:vp_x="0 : 526.18109 : 1"
       inkscape:vp_y="0 : 1000 : 0"
       inkscape:vp_z="744.09448 : 526.18109 : 1"
       inkscape:persp3d-origin="372.04724 : 350.78739 : 1"
       id="perspective10" />
  </defs>
  <sodipodi:namedview
     id="base"
     pagecolor="#ffffff"
     bordercolor="#666666"
     borderopacity="1.0"
     gridtolerance="10000"
     guidetolerance="10"
     objecttolerance="10"
     inkscape:pageopacity="0.0"
     inkscape:pageshadow="2"
     inkscape:zoom="0.466"
     inkscape:cx="422.6299"
     inkscape:cy="500"
     inkscape:document-units="px"
     inkscape:current-layer="layer1"
     showgrid="false"
     showguides="true"
     inkscape:guide-bbox="true"
     inkscape:window-width="839"
     inkscape:window-height="680"
     inkscape:window-x="0"
     inkscape:window-y="10">
    <sodipodi:guide
       orientation="1,0"
       position="200.47021,984.78919"
       id="guide2383" />
    <sodipodi:guide
       orientation="0,1"
       position="493.56223,800.42918"
       id="guide2405" />
    <sodipodi:guide
       orientation="0,1"
       position="25.242205,200.06785"
       id="guide2407" />
  </sodipodi:namedview>
  <metadata
     id="metadata7">
    <rdf:RDF>
      <cc:Work
         rdf:about="">
        <dc:format>image/svg+xml</dc:format>
        <dc:type
           rdf:resource="http://purl.org/dc/dcmitype/StillImage" />
      </cc:Work>
    </rdf:RDF>
  </metadata>
  <g
     inkscape:label="Layer 1"
     inkscape:groupmode="layer"
     id="layer1">
    <path
       style="fill:#000000;fill-opacity:1;stroke:none;stroke-width:40.90000153;stroke-miterlimit:4;stroke-dasharray:none;stroke-opacity:1"
       d="M 511.38447,109.96477 C 315.53004,109.96477 156.16572,269.32909 156.16572,465.18352 C 156.16572,661.03795 315.53004,820.37099 511.38447,820.37102 C 707.2389,820.37102 866.60317,661.03795 866.60317,465.18352 C 866.60317,269.32909 707.2389,109.96477 511.38447,109.96477 z M 511.38447,150.83977 C 685.10943,150.83977 825.69697,291.45856 825.69697,465.18352 C 825.69694,638.90849 685.10943,779.49602 511.38447,779.49602 C 337.6595,779.49599 197.07197,638.90848 197.07197,465.18352 C 197.07197,291.45856 337.65951,150.83977 511.38447,150.83977 z"
       id="path3254" />
    <path
       style="font-size:40px;font-style:normal;font-weight:normal;fill:#000000;fill-opacity:1;stroke:none;stroke-width:1px;stroke-linecap:butt;stroke-linejoin:miter;stroke-opacity:1;font-family:Bitstream Vera Sans"
       d="M 408.02505,277.89056 L 603.1774,277.89056 L 603.1774,319.7265 L 453.5524,319.7265 L 453.5524,409.79681 C 460.77104,407.33611 467.98978,405.53143 475.20865,404.38275 C 482.42727,403.07049 489.64601,402.41424 496.8649,402.414 C 537.88034,402.41424 570.36468,413.65251 594.31802,436.12885 C 618.27088,458.60559 630.24743,489.03916 630.24771,527.42963 C 630.24743,566.96877 617.94276,597.73046 593.33365,619.71478 C 568.72406,641.5351 534.02487,652.44524 489.23599,652.44525 C 473.814,652.44524 458.06401,651.13275 441.98599,648.50775 C 426.07186,645.88275 409.58359,641.94525 392.52115,636.69525 L 392.52115,586.73822 C 407.28672,594.77733 422.54452,600.76561 438.29459,604.70306 C 454.04449,608.6406 470.69681,610.60935 488.25162,610.60931 C 516.63427,610.60935 539.11081,603.14451 555.6813,588.21478 C 572.2514,573.28517 580.53655,553.02347 580.53677,527.42963 C 580.53655,501.83602 572.2514,481.57432 555.6813,466.64447 C 539.11081,451.71498 516.63427,444.25014 488.25162,444.24994 C 474.96243,444.25014 461.67338,445.7267 448.38443,448.67963 C 435.25935,451.63295 421.80624,456.22669 408.02505,462.46088 L 408.02505,277.89056"
       id="text3419" />
  </g>
</svg>
