<?xml version="1.0" encoding="UTF-8" standalone="no"?>
<!-- Created with Inkscape (http://www.inkscape.org/) -->
<svg
   xmlns:dc="http://purl.org/dc/elements/1.1/"
   xmlns:cc="http://creativecommons.org/ns#"
   xmlns:rdf="http://www.w3.org/1999/02/22-rdf-syntax-ns#"
   xmlns:svg="http://www.w3.org/2000/svg"
   xmlns="http://www.w3.org/2000/svg"
   xmlns:sodipodi="http://sodipodi.sourceforge.net/DTD/sodipodi-0.dtd"
   xmlns:inkscape="http://www.inkscape.org/namespaces/inkscape"
   width="1000"
   height="1000"
   id="svg2"
   sodipodi:version="0.32"
   inkscape:version="0.46"
   version="1.0"
   sodipodi:docname="6.svg"
   inkscape:output_extension="org.inkscape.output.svg.inkscape">
  <defs
     id="defs4">
    <inkscape:perspective
       sodipodi:type="inkscape:persp3d"
       inkscape:vp_x="0 : 526.18109 : 1"
       inkscape:vp_y="0 : 1000 : 0"
       inkscape:vp_z="744.09448 : 526.18109 : 1"
       inkscape:persp3d-origin="372.04724 : 350.78739 : 1"
       id="perspective10" />
  </defs>
  <sodipodi:namedview
     id="base"
     pagecolor="#ffffff"
     bordercolor="#666666"
     borderopacity="1.0"
     gridtolerance="10000"
     guidetolerance="10"
     objecttolerance="10"
     inkscape:pageopacity="0.0"
     inkscape:pageshadow="2"
     inkscape:zoom="0.466"
     inkscape:cx="422.6299"
     inkscape:cy="500"
     inkscape:document-units="px"
     inkscape:current-layer="layer1"
     showgrid="false"
     showguides="true"
     inkscape:guide-bbox="true"
     inkscape:window-width="839"
     inkscape:window-height="680"
     inkscape:window-x="0"
     inkscape:window-y="10">
    <sodipodi:guide
       orientation="1,0"
       position="200.47021,984.78919"
       id="guide2383" />
    <sodipodi:guide
       orientation="0,1"
       position="493.56223,800.42918"
       id="guide2405" />
    <sodipodi:guide
       orientation="0,1"
       position="25.242205,200.06785"
       id="guide2407" />
  </sodipodi:namedview>
  <metadata
     id="metadata7">
    <rdf:RDF>
      <cc:Work
         rdf:about="">
        <dc:format>image/svg+xml</dc:format>
        <dc:type
           rdf:resource="http://purl.org/dc/dcmitype/StillImage" />
      </cc:Work>
    </rdf:RDF>
  </metadata>
  <g
     inkscape:label="Layer 1"
     inkscape:groupmode="layer"
     id="layer1">
    <path
       style="fill:#000000;fill-opacity:1;stroke:none;stroke-width:40.90000153;stroke-miterlimit:4;stroke-dasharray:none;stroke-opacity:1"
       d="M 511.38447,109.96477 C 315.53004,109.96477 156.16572,269.32909 156.16572,465.18352 C 156.16572,661.03795 315.53004,820.37099 511.38447,820.37102 C 707.2389,820.37102 866.60317,661.03795 866.60317,465.18352 C 866.60317,269.32909 707.2389,109.96477 511.38447,109.96477 z M 511.38447,150.83977 C 685.10943,150.83977 825.69697,291.45856 825.69697,465.18352 C 825.69694,638.90849 685.10943,779.49602 511.38447,779.49602 C 337.6595,779.49599 197.07197,638.90848 197.07197,465.18352 C 197.07197,291.45856 337.65951,150.83977 511.38447,150.83977 z"
       id="path3254" />
    <path
       style="font-size:40px;font-style:normal;font-weight:normal;fill:#000000;fill-opacity:1;stroke:none;stroke-width:1px;stroke-linecap:butt;stroke-linejoin:miter;stroke-opacity:1;font-family:Bitstream Vera Sans"
       d="M 515.69107,445.11127 C 493.37843,445.11147 475.65969,452.74037 462.53482,467.99799 C 449.57378,483.25596 443.09332,504.17391 443.09341,530.75189 C 443.09332,557.16605 449.57378,578.08399 462.53482,593.5058 C 475.65969,608.76365 493.37843,616.39255 515.69107,616.39252 C 538.00338,616.39255 555.64008,608.76365 568.60123,593.5058 C 581.72599,578.08399 588.28849,557.16605 588.28873,530.75189 C 588.28849,504.17391 581.72599,483.25596 568.60123,467.99799 C 555.64008,452.74037 538.00338,445.11147 515.69107,445.11127 M 614.37466,289.33392 L 614.37466,334.61517 C 601.90566,328.70924 589.27286,324.19753 576.47623,321.08002 C 563.8432,317.96316 551.29243,316.40457 538.82388,316.40424 C 506.01123,316.40457 480.90969,327.47878 463.5192,349.62689 C 446.29254,371.77561 436.4488,405.24432 433.98795,450.03314 C 443.66754,435.75992 455.80815,424.84977 470.40982,417.30267 C 485.01125,409.59197 501.08936,405.73651 518.6442,405.73627 C 555.55805,405.73651 584.67912,416.97478 606.00748,439.45111 C 627.49939,461.7638 638.24547,492.19736 638.24576,530.75189 C 638.24547,568.48635 627.08923,598.75585 604.77701,621.56049 C 582.46427,644.36518 552.76899,655.76751 515.69107,655.76752 C 473.19876,655.76751 440.71442,639.52534 418.23795,607.04095 C 395.76134,574.39259 384.52307,527.14264 384.5231,465.29095 C 384.52307,407.21307 398.3043,360.94749 425.86685,326.49408 C 453.42925,291.87725 490.4253,274.56867 536.85513,274.5683 C 549.32368,274.56867 561.87445,275.79914 574.50748,278.2597 C 587.30411,280.72101 600.59316,284.41241 614.37466,289.33392"
       id="text3419" />
  </g>
</svg>
