<?xml version="1.0" encoding="UTF-8" standalone="no"?>
<!-- Created with Inkscape (http://www.inkscape.org/) -->
<svg
   xmlns:dc="http://purl.org/dc/elements/1.1/"
   xmlns:cc="http://creativecommons.org/ns#"
   xmlns:rdf="http://www.w3.org/1999/02/22-rdf-syntax-ns#"
   xmlns:svg="http://www.w3.org/2000/svg"
   xmlns="http://www.w3.org/2000/svg"
   xmlns:sodipodi="http://sodipodi.sourceforge.net/DTD/sodipodi-0.dtd"
   xmlns:inkscape="http://www.inkscape.org/namespaces/inkscape"
   width="1000"
   height="1000"
   id="svg2"
   sodipodi:version="0.32"
   inkscape:version="0.46"
   version="1.0"
   sodipodi:docname="8.svg"
   inkscape:output_extension="org.inkscape.output.svg.inkscape">
  <defs
     id="defs4">
    <inkscape:perspective
       sodipodi:type="inkscape:persp3d"
       inkscape:vp_x="0 : 526.18109 : 1"
       inkscape:vp_y="0 : 1000 : 0"
       inkscape:vp_z="744.09448 : 526.18109 : 1"
       inkscape:persp3d-origin="372.04724 : 350.78739 : 1"
       id="perspective10" />
  </defs>
  <sodipodi:namedview
     id="base"
     pagecolor="#ffffff"
     bordercolor="#666666"
     borderopacity="1.0"
     gridtolerance="10000"
     guidetolerance="10"
     objecttolerance="10"
     inkscape:pageopacity="0.0"
     inkscape:pageshadow="2"
     inkscape:zoom="0.466"
     inkscape:cx="422.6299"
     inkscape:cy="500"
     inkscape:document-units="px"
     inkscape:current-layer="layer1"
     showgrid="false"
     showguides="true"
     inkscape:guide-bbox="true"
     inkscape:window-width="839"
     inkscape:window-height="680"
     inkscape:window-x="0"
     inkscape:window-y="10">
    <sodipodi:guide
       orientation="1,0"
       position="200.47021,984.78919"
       id="guide2383" />
    <sodipodi:guide
       orientation="0,1"
       position="493.56223,800.42918"
       id="guide2405" />
    <sodipodi:guide
       orientation="0,1"
       position="25.242205,200.06785"
       id="guide2407" />
  </sodipodi:namedview>
  <metadata
     id="metadata7">
    <rdf:RDF>
      <cc:Work
         rdf:about="">
        <dc:format>image/svg+xml</dc:format>
        <dc:type
           rdf:resource="http://purl.org/dc/dcmitype/StillImage" />
      </cc:Work>
    </rdf:RDF>
  </metadata>
  <g
     inkscape:label="Layer 1"
     inkscape:groupmode="layer"
     id="layer1">
    <path
       style="fill:#000000;fill-opacity:1;stroke:none;stroke-width:40.90000153;stroke-miterlimit:4;stroke-dasharray:none;stroke-opacity:1"
       d="M 511.38447,109.96477 C 315.53004,109.96477 156.16572,269.32909 156.16572,465.18352 C 156.16572,661.03795 315.53004,820.37099 511.38447,820.37102 C 707.2389,820.37102 866.60317,661.03795 866.60317,465.18352 C 866.60317,269.32909 707.2389,109.96477 511.38447,109.96477 z M 511.38447,150.83977 C 685.10943,150.83977 825.69697,291.45856 825.69697,465.18352 C 825.69694,638.90849 685.10943,779.49602 511.38447,779.49602 C 337.6595,779.49599 197.07197,638.90848 197.07197,465.18352 C 197.07197,291.45856 337.65951,150.83977 511.38447,150.83977 z"
       id="path3254" />
    <path
       style="font-size:40px;font-style:normal;font-weight:normal;fill:#000000;fill-opacity:1;stroke:none;stroke-width:1px;stroke-linecap:butt;stroke-linejoin:miter;stroke-opacity:1;font-family:Bitstream Vera Sans"
       d="M 511.38443,474.15033 C 487.75929,474.1505 469.13822,480.4669 455.52115,493.09955 C 442.06793,505.7325 435.34138,523.12311 435.34146,545.27142 C 435.34138,567.41994 442.06793,584.81055 455.52115,597.4433 C 469.13822,610.07615 487.75929,616.39255 511.38443,616.39252 C 535.00925,616.39255 553.63032,610.07615 567.24771,597.4433 C 580.86467,584.64649 587.67326,567.25588 587.67349,545.27142 C 587.67326,523.12311 580.86467,505.7325 567.24771,493.09955 C 553.79438,480.4669 535.17331,474.1505 511.38443,474.15033 M 461.67349,452.98627 C 440.34528,447.73647 423.69295,437.8107 411.71646,423.20892 C 399.90391,408.6076 393.99767,390.80684 393.99771,369.80658 C 393.99767,340.4397 404.41563,317.22488 425.25162,300.16205 C 446.25152,283.09991 474.96243,274.56867 511.38443,274.5683 C 547.97017,274.56867 576.68108,283.09991 597.51724,300.16205 C 618.35291,317.22488 628.77087,340.4397 628.77115,369.80658 C 628.77087,390.80684 622.7826,408.6076 610.8063,423.20892 C 598.99356,437.8107 582.50529,447.73647 561.34146,452.98627 C 585.29435,458.56458 603.91543,469.47473 617.20474,485.71674 C 630.65759,501.95907 637.38414,521.81061 637.38443,545.27142 C 637.38414,580.87305 626.474,608.18943 604.65396,627.22064 C 582.99748,646.25189 551.90767,655.76751 511.38443,655.76752 C 470.86087,655.76751 439.68903,646.25189 417.8688,627.22064 C 396.21251,608.18943 385.3844,580.87305 385.38443,545.27142 C 385.3844,521.81061 392.11095,501.95907 405.56412,485.71674 C 419.01717,469.47473 437.72028,458.56458 461.67349,452.98627 M 443.46255,374.48236 C 443.46246,393.51387 449.36871,408.36151 461.1813,419.02533 C 473.15775,429.68961 489.8921,435.02164 511.38443,435.02142 C 532.71237,435.02164 549.3647,429.68961 561.34146,419.02533 C 573.48186,408.36151 579.55217,393.51387 579.5524,374.48236 C 579.55217,355.4514 573.48186,340.60376 561.34146,329.93939 C 549.3647,319.27566 532.71237,313.94363 511.38443,313.9433 C 489.8921,313.94363 473.15775,319.27566 461.1813,329.93939 C 449.36871,340.60376 443.46246,355.4514 443.46255,374.48236"
       id="text3419" />
  </g>
</svg>
