<?xml version="1.0" encoding="UTF-8" standalone="no"?>
<!-- Created with Inkscape (http://www.inkscape.org/) -->
<svg
   xmlns:dc="http://purl.org/dc/elements/1.1/"
   xmlns:cc="http://creativecommons.org/ns#"
   xmlns:rdf="http://www.w3.org/1999/02/22-rdf-syntax-ns#"
   xmlns:svg="http://www.w3.org/2000/svg"
   xmlns="http://www.w3.org/2000/svg"
   xmlns:sodipodi="http://sodipodi.sourceforge.net/DTD/sodipodi-0.dtd"
   xmlns:inkscape="http://www.inkscape.org/namespaces/inkscape"
   width="1000"
   height="1000"
   id="svg2"
   sodipodi:version="0.32"
   inkscape:version="0.46"
   version="1.0"
   sodipodi:docname="@.svg"
   inkscape:output_extension="org.inkscape.output.svg.inkscape">
  <defs
     id="defs4">
    <inkscape:perspective
       sodipodi:type="inkscape:persp3d"
       inkscape:vp_x="0 : 526.18109 : 1"
       inkscape:vp_y="0 : 1000 : 0"
       inkscape:vp_z="744.09448 : 526.18109 : 1"
       inkscape:persp3d-origin="372.04724 : 350.78739 : 1"
       id="perspective10" />
  </defs>
  <sodipodi:namedview
     id="base"
     pagecolor="#ffffff"
     bordercolor="#666666"
     borderopacity="1.0"
     gridtolerance="10000"
     guidetolerance="10"
     objecttolerance="10"
     inkscape:pageopacity="0.0"
     inkscape:pageshadow="2"
     inkscape:zoom="0.466"
     inkscape:cx="422.6299"
     inkscape:cy="500"
     inkscape:document-units="px"
     inkscape:current-layer="layer1"
     showgrid="false"
     showguides="true"
     inkscape:guide-bbox="true"
     inkscape:window-width="839"
     inkscape:window-height="680"
     inkscape:window-x="0"
     inkscape:window-y="10">
    <sodipodi:guide
       orientation="1,0"
       position="200.47021,984.78919"
       id="guide2383" />
    <sodipodi:guide
       orientation="0,1"
       position="493.56223,800.42918"
       id="guide2405" />
    <sodipodi:guide
       orientation="0,1"
       position="25.242205,200.06785"
       id="guide2407" />
  </sodipodi:namedview>
  <metadata
     id="metadata7">
    <rdf:RDF>
      <cc:Work
         rdf:about="">
        <dc:format>image/svg+xml</dc:format>
        <dc:type
           rdf:resource="http://purl.org/dc/dcmitype/StillImage" />
      </cc:Work>
    </rdf:RDF>
  </metadata>
  <g
     inkscape:label="Layer 1"
     inkscape:groupmode="layer"
     id="layer1">
    <path
       style="fill:#000000;fill-opacity:1;stroke:none;stroke-width:40.90000153;stroke-miterlimit:4;stroke-dasharray:none;stroke-opacity:1"
       d="M 499.99384,109.96477 C 304.13941,109.96477 144.77509,269.32909 144.77509,465.18352 C 144.77509,661.03795 304.13941,820.37099 499.99384,820.37102 C 695.84827,820.37102 855.21254,661.03795 855.21254,465.18352 C 855.21254,269.32909 695.84827,109.96477 499.99384,109.96477 z M 499.99384,150.83977 C 673.7188,150.83977 814.30634,291.45856 814.30634,465.18352 C 814.30631,638.90849 673.7188,779.49602 499.99384,779.49602 C 326.26887,779.49599 185.68134,638.90848 185.68134,465.18352 C 185.68134,291.45856 326.26888,150.83977 499.99384,150.83977 z"
       id="path3254" />
    <path
       style="font-size:40px;font-style:normal;font-weight:normal;fill:#000000;fill-opacity:1;stroke:none;stroke-width:1px;stroke-linecap:butt;stroke-linejoin:miter;stroke-opacity:1;font-family:Bitstream Vera Sans"
       d="M 436.50163,466.64447 C 436.50145,490.10552 442.32566,508.56253 453.97429,522.01556 C 465.62251,535.30469 481.61859,541.94921 501.96257,541.94916 C 522.14198,541.94921 537.974,535.22266 549.45866,521.76947 C 561.10679,508.31644 566.931,489.94145 566.93132,466.64447 C 566.931,443.67588 561.02476,425.46496 549.21257,412.01166 C 537.39978,398.39467 521.48574,391.58608 501.47038,391.58588 C 481.61859,391.58608 465.78657,398.31264 453.97429,411.76556 C 442.32566,425.21886 436.50145,443.51181 436.50163,466.64447 M 570.62273,540.2265 C 560.77866,552.85936 549.45836,562.21091 536.66179,568.28119 C 524.0287,574.18746 509.26309,577.14059 492.36491,577.14056 C 464.14595,577.14059 441.17722,566.96872 423.45866,546.62494 C 405.90382,526.1172 397.12648,499.45707 397.12663,466.64447 C 397.12648,433.83214 405.98585,407.17201 423.70476,386.664 C 441.42332,366.15642 464.31001,355.90253 492.36491,355.90228 C 509.26309,355.90253 524.11073,359.01971 536.90788,365.25385 C 549.70446,371.32439 560.94273,380.59391 570.62273,393.06244 L 570.62273,360.82416 L 605.81413,360.82416 L 605.81413,541.94916 C 629.76688,538.33984 648.46998,527.4297 661.92351,509.21869 C 675.54027,490.8438 682.34886,467.13679 682.34929,438.0976 C 682.34886,420.54309 679.72386,404.05482 674.47429,388.63275 C 669.38793,373.2111 661.59497,358.93768 651.09538,345.81244 C 634.0325,324.32053 613.19658,307.91429 588.58757,296.59369 C 564.14194,285.10963 537.48181,279.36745 508.6071,279.36713 C 488.42717,279.36745 469.06782,282.07447 450.52898,287.48822 C 431.98973,292.73853 414.84522,300.61352 399.09538,311.11322 C 373.33745,327.84787 353.15778,349.83222 338.55632,377.06635 C 324.11875,404.13685 316.9,433.50401 316.90007,465.16791 C 316.9,491.25395 321.57578,515.69924 330.92741,538.50385 C 340.44295,561.30857 354.14215,581.40621 372.02507,598.79681 C 389.25149,615.8593 409.18507,628.82022 431.82585,637.67963 C 454.46627,646.70302 478.66547,651.21473 504.42351,651.21478 C 525.58729,651.21473 546.34118,647.60536 566.68523,640.38666 C 587.1927,633.33194 605.97784,623.16007 623.0407,609.87103 L 645.18913,637.18744 C 624.68094,653.10145 602.28644,665.24206 578.00554,673.60931 C 553.88805,682.14048 529.36073,686.4061 504.42351,686.40619 C 474.07172,686.4061 445.44284,680.99204 418.53679,670.164 C 391.6304,659.49988 367.6773,643.91396 346.67741,623.40619 C 325.67734,602.89837 309.68126,579.19136 298.68913,552.2851 C 287.69691,525.21486 282.20082,496.17582 282.20085,465.16791 C 282.20082,435.3087 287.77894,406.84388 298.93523,379.77338 C 310.09142,352.70331 326.00546,328.91427 346.67741,308.40619 C 367.84136,287.57056 392.28665,271.65652 420.01335,260.664 C 447.73972,249.5081 477.10687,243.92998 508.11491,243.92963 C 542.89587,243.92998 575.13412,251.06669 604.82976,265.33978 C 634.68875,279.61354 659.70825,299.87524 679.88835,326.12494 C 692.1926,342.20332 701.54415,359.67596 707.94304,378.54291 C 714.50507,397.4103 717.78632,416.93371 717.78679,437.11322 C 717.78632,480.26178 704.74336,514.30471 678.65788,539.24213 C 652.57154,564.17966 616.55986,577.14059 570.62273,578.12494 L 570.62273,540.2265"
       id="text3419" />
  </g>
</svg>
