<?xml version="1.0" encoding="UTF-8" standalone="no"?>
<!-- Created with Inkscape (http://www.inkscape.org/) -->
<svg
   xmlns:dc="http://purl.org/dc/elements/1.1/"
   xmlns:cc="http://creativecommons.org/ns#"
   xmlns:rdf="http://www.w3.org/1999/02/22-rdf-syntax-ns#"
   xmlns:svg="http://www.w3.org/2000/svg"
   xmlns="http://www.w3.org/2000/svg"
   xmlns:sodipodi="http://sodipodi.sourceforge.net/DTD/sodipodi-0.dtd"
   xmlns:inkscape="http://www.inkscape.org/namespaces/inkscape"
   width="1000"
   height="1000"
   id="svg2"
   sodipodi:version="0.32"
   inkscape:version="0.46"
   version="1.0"
   sodipodi:docname="b.svg"
   inkscape:output_extension="org.inkscape.output.svg.inkscape">
  <defs
     id="defs4">
    <inkscape:perspective
       sodipodi:type="inkscape:persp3d"
       inkscape:vp_x="0 : 526.18109 : 1"
       inkscape:vp_y="0 : 1000 : 0"
       inkscape:vp_z="744.09448 : 526.18109 : 1"
       inkscape:persp3d-origin="372.04724 : 350.78739 : 1"
       id="perspective10" />
  </defs>
  <sodipodi:namedview
     id="base"
     pagecolor="#ffffff"
     bordercolor="#666666"
     borderopacity="1.0"
     gridtolerance="10000"
     guidetolerance="10"
     objecttolerance="10"
     inkscape:pageopacity="0.0"
     inkscape:pageshadow="2"
     inkscape:zoom="0.466"
     inkscape:cx="422.6299"
     inkscape:cy="500"
     inkscape:document-units="px"
     inkscape:current-layer="layer1"
     showgrid="false"
     showguides="true"
     inkscape:guide-bbox="true"
     inkscape:window-width="839"
     inkscape:window-height="680"
     inkscape:window-x="0"
     inkscape:window-y="10">
    <sodipodi:guide
       orientation="1,0"
       position="200.47021,984.78919"
       id="guide2383" />
    <sodipodi:guide
       orientation="0,1"
       position="493.56223,800.42918"
       id="guide2405" />
    <sodipodi:guide
       orientation="0,1"
       position="25.242205,200.06785"
       id="guide2407" />
  </sodipodi:namedview>
  <metadata
     id="metadata7">
    <rdf:RDF>
      <cc:Work
         rdf:about="">
        <dc:format>image/svg+xml</dc:format>
        <dc:type
           rdf:resource="http://purl.org/dc/dcmitype/StillImage" />
      </cc:Work>
    </rdf:RDF>
  </metadata>
  <g
     inkscape:label="Layer 1"
     inkscape:groupmode="layer"
     id="layer1">
    <path
       style="fill:#000000;fill-opacity:1;stroke:none;stroke-width:40.90000153;stroke-miterlimit:4;stroke-dasharray:none;stroke-opacity:1"
       d="M 499.99384,109.96477 C 304.13941,109.96477 144.77509,269.32909 144.77509,465.18352 C 144.77509,661.03795 304.13941,820.37099 499.99384,820.37102 C 695.84827,820.37102 855.21254,661.03795 855.21254,465.18352 C 855.21254,269.32909 695.84827,109.96477 499.99384,109.96477 z M 499.99384,150.83977 C 673.7188,150.83977 814.30634,291.45856 814.30634,465.18352 C 814.30631,638.90849 673.7188,779.49602 499.99384,779.49602 C 326.26887,779.49599 185.68134,638.90848 185.68134,465.18352 C 185.68134,291.45856 326.26888,150.83977 499.99384,150.83977 z"
       id="path3254" />
    <path
       style="font-size:40px;font-style:normal;font-weight:normal;fill:#000000;fill-opacity:1;stroke:none;stroke-width:1px;stroke-linecap:butt;stroke-linejoin:miter;stroke-opacity:1;font-family:Bitstream Vera Sans"
       d="M 576.28287,515.49408 C 576.28262,482.18956 569.392,456.10365 555.61099,437.23627 C 541.99359,418.20525 523.20846,408.68964 499.25552,408.68939 C 475.30225,408.68964 456.43509,418.20525 442.65396,437.23627 C 429.03668,456.10365 422.22809,482.18956 422.22818,515.49408 C 422.22809,548.79887 429.03668,574.96681 442.65396,593.99799 C 456.43509,612.86521 475.30225,622.2988 499.25552,622.29877 C 523.20846,622.2988 541.99359,612.86521 555.61099,593.99799 C 569.392,574.96681 576.28262,548.79887 576.28287,515.49408 M 422.22818,419.27142 C 431.7437,402.86542 443.72025,390.72481 458.15787,382.84955 C 472.75929,374.81076 490.1499,370.79124 510.32974,370.79095 C 543.79828,370.79124 570.9506,384.08029 591.78677,410.65814 C 612.78649,437.23648 623.28648,472.18176 623.28677,515.49408 C 623.28648,558.80667 612.78649,593.75195 591.78677,620.33002 C 570.9506,646.90815 543.79828,660.1972 510.32974,660.1972 C 490.1499,660.1972 472.75929,656.2597 458.15787,648.3847 C 443.72025,640.34565 431.7437,628.12301 422.22818,611.71674 L 422.22818,653.06049 L 376.70084,653.06049 L 376.70084,270.13861 L 422.22818,270.13861 L 422.22818,419.27142"
       id="text3419" />
  </g>
</svg>
