<?xml version="1.0" encoding="UTF-8" standalone="no"?>
<!-- Created with Inkscape (http://www.inkscape.org/) -->
<svg
   xmlns:dc="http://purl.org/dc/elements/1.1/"
   xmlns:cc="http://creativecommons.org/ns#"
   xmlns:rdf="http://www.w3.org/1999/02/22-rdf-syntax-ns#"
   xmlns:svg="http://www.w3.org/2000/svg"
   xmlns="http://www.w3.org/2000/svg"
   xmlns:sodipodi="http://sodipodi.sourceforge.net/DTD/sodipodi-0.dtd"
   xmlns:inkscape="http://www.inkscape.org/namespaces/inkscape"
   width="1000"
   height="1000"
   id="svg2"
   sodipodi:version="0.32"
   inkscape:version="0.46"
   version="1.0"
   sodipodi:docname="C.svg"
   inkscape:output_extension="org.inkscape.output.svg.inkscape">
  <defs
     id="defs4">
    <inkscape:perspective
       sodipodi:type="inkscape:persp3d"
       inkscape:vp_x="0 : 526.18109 : 1"
       inkscape:vp_y="0 : 1000 : 0"
       inkscape:vp_z="744.09448 : 526.18109 : 1"
       inkscape:persp3d-origin="372.04724 : 350.78739 : 1"
       id="perspective10" />
  </defs>
  <sodipodi:namedview
     id="base"
     pagecolor="#ffffff"
     bordercolor="#666666"
     borderopacity="1.0"
     gridtolerance="10000"
     guidetolerance="10"
     objecttolerance="10"
     inkscape:pageopacity="0.0"
     inkscape:pageshadow="2"
     inkscape:zoom="0.466"
     inkscape:cx="139.3681"
     inkscape:cy="500"
     inkscape:document-units="px"
     inkscape:current-layer="layer1"
     showgrid="false"
     showguides="true"
     inkscape:guide-bbox="true"
     inkscape:window-width="839"
     inkscape:window-height="680"
     inkscape:window-x="434"
     inkscape:window-y="34">
    <sodipodi:guide
       orientation="1,0"
       position="200.47021,984.78919"
       id="guide2383" />
    <sodipodi:guide
       orientation="0,1"
       position="-25.242205,799.95976"
       id="guide2405" />
    <sodipodi:guide
       orientation="0,1"
       position="25.242205,200.06785"
       id="guide2407" />
  </sodipodi:namedview>
  <metadata
     id="metadata7">
    <rdf:RDF>
      <cc:Work
         rdf:about="">
        <dc:format>image/svg+xml</dc:format>
        <dc:type
           rdf:resource="http://purl.org/dc/dcmitype/StillImage" />
      </cc:Work>
    </rdf:RDF>
  </metadata>
  <g
     inkscape:label="Layer 1"
     inkscape:groupmode="layer"
     id="layer1">
    <path
       style="fill:#000000;fill-opacity:1;stroke:none;stroke-width:40.90000153;stroke-miterlimit:4;stroke-dasharray:none;stroke-opacity:1"
       d="M 499.99384,109.96477 C 304.13941,109.96477 144.77509,269.32909 144.77509,465.18352 C 144.77509,661.03795 304.13941,820.37099 499.99384,820.37102 C 695.84827,820.37102 855.21254,661.03795 855.21254,465.18352 C 855.21254,269.32909 695.84827,109.96477 499.99384,109.96477 z M 499.99384,150.83977 C 673.7188,150.83977 814.30634,291.45856 814.30634,465.18352 C 814.30631,638.90849 673.7188,779.49602 499.99384,779.49602 C 326.26887,779.49599 185.68134,638.90848 185.68134,465.18352 C 185.68134,291.45856 326.26888,150.83977 499.99384,150.83977 z"
       id="path3254" />
    <path
       style="font-size:40px;font-style:normal;font-weight:normal;fill:#000000;fill-opacity:1;stroke:none;stroke-width:1px;stroke-linecap:butt;stroke-linejoin:miter;stroke-opacity:1;font-family:Bitstream Vera Sans"
       d="M 648.14225,309.5136 L 648.14225,361.93157 C 631.40757,346.34593 613.52477,334.69751 594.49381,326.98626 C 575.62637,319.27565 555.52874,315.42018 534.20084,315.41985 C 492.20068,315.42018 460.04446,328.29908 437.7321,354.05657 C 415.4195,379.65059 404.26326,416.72868 404.26334,465.29094 C 404.26326,513.68952 415.4195,550.7676 437.7321,576.52532 C 460.04446,602.11912 492.20068,614.91598 534.20084,614.91593 C 555.52874,614.91598 575.62637,611.06051 594.49381,603.34954 C 613.52477,595.63864 631.40757,583.99023 648.14225,568.40422 L 648.14225,620.33001 C 630.75132,632.14252 612.29431,641.00189 592.77116,646.90813 C 573.41153,652.81438 552.90374,655.7675 531.24772,655.76751 C 475.63038,655.7675 431.82574,638.78705 399.83366,604.8261 C 367.84143,570.70118 351.84535,524.18951 351.84538,465.29094 C 351.84535,406.22869 367.84143,359.71701 399.83366,325.75579 C 431.82574,291.63114 475.63038,274.56866 531.24772,274.56829 C 553.23187,274.56866 573.90372,277.52178 593.26334,283.42766 C 612.78649,289.17021 631.07944,297.86551 648.14225,309.5136"
       id="text3419" />
  </g>
</svg>
