<?xml version="1.0" encoding="UTF-8" standalone="no"?>
<!-- Created with Inkscape (http://www.inkscape.org/) -->
<svg
   xmlns:dc="http://purl.org/dc/elements/1.1/"
   xmlns:cc="http://creativecommons.org/ns#"
   xmlns:rdf="http://www.w3.org/1999/02/22-rdf-syntax-ns#"
   xmlns:svg="http://www.w3.org/2000/svg"
   xmlns="http://www.w3.org/2000/svg"
   xmlns:sodipodi="http://sodipodi.sourceforge.net/DTD/sodipodi-0.dtd"
   xmlns:inkscape="http://www.inkscape.org/namespaces/inkscape"
   width="1000"
   height="1000"
   id="svg2"
   sodipodi:version="0.32"
   inkscape:version="0.46"
   version="1.0"
   sodipodi:docname="g.svg"
   inkscape:output_extension="org.inkscape.output.svg.inkscape">
  <defs
     id="defs4">
    <inkscape:perspective
       sodipodi:type="inkscape:persp3d"
       inkscape:vp_x="0 : 526.18109 : 1"
       inkscape:vp_y="0 : 1000 : 0"
       inkscape:vp_z="744.09448 : 526.18109 : 1"
       inkscape:persp3d-origin="372.04724 : 350.78739 : 1"
       id="perspective10" />
  </defs>
  <sodipodi:namedview
     id="base"
     pagecolor="#ffffff"
     bordercolor="#666666"
     borderopacity="1.0"
     gridtolerance="10000"
     guidetolerance="10"
     objecttolerance="10"
     inkscape:pageopacity="0.0"
     inkscape:pageshadow="2"
     inkscape:zoom="0.466"
     inkscape:cx="422.6299"
     inkscape:cy="500"
     inkscape:document-units="px"
     inkscape:current-layer="layer1"
     showgrid="false"
     showguides="true"
     inkscape:guide-bbox="true"
     inkscape:window-width="839"
     inkscape:window-height="680"
     inkscape:window-x="0"
     inkscape:window-y="10">
    <sodipodi:guide
       orientation="1,0"
       position="200.47021,984.78919"
       id="guide2383" />
    <sodipodi:guide
       orientation="0,1"
       position="493.56223,800.42918"
       id="guide2405" />
    <sodipodi:guide
       orientation="0,1"
       position="25.242205,200.06785"
       id="guide2407" />
  </sodipodi:namedview>
  <metadata
     id="metadata7">
    <rdf:RDF>
      <cc:Work
         rdf:about="">
        <dc:format>image/svg+xml</dc:format>
        <dc:type
           rdf:resource="http://purl.org/dc/dcmitype/StillImage" />
      </cc:Work>
    </rdf:RDF>
  </metadata>
  <g
     inkscape:label="Layer 1"
     inkscape:groupmode="layer"
     id="layer1">
    <path
       style="fill:#000000;fill-opacity:1;stroke:none;stroke-width:40.90000153;stroke-miterlimit:4;stroke-dasharray:none;stroke-opacity:1"
       d="M 499.99384,109.96477 C 304.13941,109.96477 144.77509,269.32909 144.77509,465.18352 C 144.77509,661.03795 304.13941,820.37099 499.99384,820.37102 C 695.84827,820.37102 855.21254,661.03795 855.21254,465.18352 C 855.21254,269.32909 695.84827,109.96477 499.99384,109.96477 z M 499.99384,150.83977 C 673.7188,150.83977 814.30634,291.45856 814.30634,465.18352 C 814.30631,638.90849 673.7188,779.49602 499.99384,779.49602 C 326.26887,779.49599 185.68134,638.90848 185.68134,465.18352 C 185.68134,291.45856 326.26888,150.83977 499.99384,150.83977 z"
       id="path3254" />
    <path
       style="font-size:40px;font-style:normal;font-weight:normal;fill:#000000;fill-opacity:1;stroke:none;stroke-width:1px;stroke-linecap:butt;stroke-linejoin:miter;stroke-opacity:1;font-family:Bitstream Vera Sans"
       d="M 577.88248,412.87299 C 577.88225,380.06066 571.07366,354.631 557.4567,336.58392 C 544.00338,318.53728 525.05418,309.51386 500.60904,309.51361 C 476.32766,309.51386 457.37846,318.53728 443.76138,336.58392 C 430.30818,354.631 423.58162,380.06066 423.5817,412.87299 C 423.58162,445.52153 430.30818,470.86916 443.76138,488.91595 C 457.37846,506.96288 476.32766,515.9863 500.60904,515.98627 C 525.05418,515.9863 544.00338,506.96288 557.4567,488.91595 C 571.07366,470.86916 577.88225,445.52153 577.88248,412.87299 M 623.16373,519.67767 C 623.16345,566.59954 612.74549,601.46278 591.90982,624.26752 C 571.07366,647.23617 539.16354,658.72054 496.17935,658.72064 C 480.26516,658.72054 465.25345,657.49007 451.1442,655.02924 C 437.03473,652.73226 423.33553,649.12289 410.04654,644.20111 L 410.04654,600.15033 C 423.33553,607.36903 436.46051,612.70105 449.42154,616.14642 C 462.38236,619.59167 475.58938,621.31432 489.04263,621.31439 C 518.73778,621.31432 540.96822,613.52136 555.73404,597.93549 C 570.49944,582.51358 577.88225,559.1347 577.88248,527.79877 L 577.88248,505.40424 C 568.53069,521.64646 556.55414,533.78707 541.95279,541.82611 C 527.35105,549.86518 509.87841,553.8847 489.53482,553.8847 C 455.73784,553.8847 428.50349,541.00581 407.8317,515.24799 C 387.15978,489.49024 376.82386,455.36527 376.82388,412.87299 C 376.82386,370.21692 387.15978,336.00992 407.8317,310.25189 C 428.50349,284.49435 455.73784,271.61546 489.53482,271.61517 C 509.87841,271.61546 527.35105,275.63498 541.95279,283.67377 C 556.55414,291.71309 568.53069,303.8537 577.88248,320.09564 L 577.88248,278.2597 L 623.16373,278.2597 L 623.16373,519.67767"
       id="text3419" />
  </g>
</svg>
