<?xml version="1.0" encoding="UTF-8" standalone="no"?>
<!-- Created with Inkscape (http://www.inkscape.org/) -->
<svg
   xmlns:dc="http://purl.org/dc/elements/1.1/"
   xmlns:cc="http://creativecommons.org/ns#"
   xmlns:rdf="http://www.w3.org/1999/02/22-rdf-syntax-ns#"
   xmlns:svg="http://www.w3.org/2000/svg"
   xmlns="http://www.w3.org/2000/svg"
   xmlns:sodipodi="http://sodipodi.sourceforge.net/DTD/sodipodi-0.dtd"
   xmlns:inkscape="http://www.inkscape.org/namespaces/inkscape"
   width="1000"
   height="1000"
   id="svg2"
   sodipodi:version="0.32"
   inkscape:version="0.46"
   version="1.0"
   sodipodi:docname="m.svg"
   inkscape:output_extension="org.inkscape.output.svg.inkscape">
  <defs
     id="defs4">
    <inkscape:perspective
       sodipodi:type="inkscape:persp3d"
       inkscape:vp_x="0 : 526.18109 : 1"
       inkscape:vp_y="0 : 1000 : 0"
       inkscape:vp_z="744.09448 : 526.18109 : 1"
       inkscape:persp3d-origin="372.04724 : 350.78739 : 1"
       id="perspective10" />
  </defs>
  <sodipodi:namedview
     id="base"
     pagecolor="#ffffff"
     bordercolor="#666666"
     borderopacity="1.0"
     gridtolerance="10000"
     guidetolerance="10"
     objecttolerance="10"
     inkscape:pageopacity="0.0"
     inkscape:pageshadow="2"
     inkscape:zoom="0.466"
     inkscape:cx="422.6299"
     inkscape:cy="500"
     inkscape:document-units="px"
     inkscape:current-layer="layer1"
     showgrid="false"
     showguides="true"
     inkscape:guide-bbox="true"
     inkscape:window-width="839"
     inkscape:window-height="680"
     inkscape:window-x="0"
     inkscape:window-y="10">
    <sodipodi:guide
       orientation="1,0"
       position="200.47021,984.78919"
       id="guide2383" />
    <sodipodi:guide
       orientation="0,1"
       position="493.56223,800.42918"
       id="guide2405" />
    <sodipodi:guide
       orientation="0,1"
       position="25.242205,200.06785"
       id="guide2407" />
  </sodipodi:namedview>
  <metadata
     id="metadata7">
    <rdf:RDF>
      <cc:Work
         rdf:about="">
        <dc:format>image/svg+xml</dc:format>
        <dc:type
           rdf:resource="http://purl.org/dc/dcmitype/StillImage" />
      </cc:Work>
    </rdf:RDF>
  </metadata>
  <g
     inkscape:label="Layer 1"
     inkscape:groupmode="layer"
     id="layer1">
    <path
       style="fill:#000000;fill-opacity:1;stroke:none;stroke-width:40.90000153;stroke-miterlimit:4;stroke-dasharray:none;stroke-opacity:1"
       d="M 511.38447,109.96477 C 315.53004,109.96477 156.16572,269.32909 156.16572,465.18352 C 156.16572,661.03795 315.53004,820.37099 511.38447,820.37102 C 707.2389,820.37102 866.60317,661.03795 866.60317,465.18352 C 866.60317,269.32909 707.2389,109.96477 511.38447,109.96477 z M 511.38447,150.83977 C 685.10943,150.83977 825.69697,291.45856 825.69697,465.18352 C 825.69694,638.90849 685.10943,779.49602 511.38447,779.49602 C 337.6595,779.49599 197.07197,638.90848 197.07197,465.18352 C 197.07197,291.45856 337.65951,150.83977 511.38447,150.83977 z"
       id="path3254" />
    <path
       style="font-size:40px;font-style:normal;font-weight:normal;fill:#000000;fill-opacity:1;stroke:none;stroke-width:1px;stroke-linecap:butt;stroke-linejoin:miter;stroke-opacity:1;font-family:Bitstream Vera Sans"
       d="M 526.51923,383.58783 C 537.83927,363.24432 551.37441,348.23262 567.12469,338.55267 C 582.87438,328.87326 601.41342,324.03342 622.74188,324.03314 C 651.45243,324.03342 673.60085,334.12326 689.18719,354.30267 C 704.77269,374.31853 712.56565,402.86538 712.5661,439.9433 L 712.5661,606.30267 L 667.03876,606.30267 L 667.03876,441.41986 C 667.03835,415.00599 662.36258,395.40054 653.01141,382.60345 C 643.65947,369.80682 629.38605,363.40838 610.1911,363.40814 C 586.72984,363.40838 568.1908,371.20135 554.57391,386.78705 C 540.95645,402.37319 534.14786,423.61926 534.14813,450.52533 L 534.14813,606.30267 L 488.62079,606.30267 L 488.62079,441.41986 C 488.62056,414.84193 483.94479,395.23648 474.59344,382.60345 C 465.24168,369.80682 450.8042,363.40838 431.28094,363.40814 C 408.14799,363.40838 389.77301,371.28338 376.15594,387.03314 C 362.53866,402.61928 355.73007,423.78332 355.73016,450.52533 L 355.73016,606.30267 L 310.20282,606.30267 L 310.20282,330.67767 L 355.73016,330.67767 L 355.73016,373.49799 C 366.066,356.5998 378.45271,344.13106 392.89032,336.09174 C 407.32768,328.05295 424.47219,324.03342 444.32391,324.03314 C 464.33934,324.03342 481.31979,329.11936 495.26532,339.29095 C 509.37445,349.46309 519.79241,364.2287 526.51923,383.58783"
       id="text3419" />
  </g>
</svg>
