<?xml version="1.0" encoding="UTF-8" standalone="no"?>
<!-- Created with Inkscape (http://www.inkscape.org/) -->
<svg
   xmlns:dc="http://purl.org/dc/elements/1.1/"
   xmlns:cc="http://creativecommons.org/ns#"
   xmlns:rdf="http://www.w3.org/1999/02/22-rdf-syntax-ns#"
   xmlns:svg="http://www.w3.org/2000/svg"
   xmlns="http://www.w3.org/2000/svg"
   xmlns:sodipodi="http://sodipodi.sourceforge.net/DTD/sodipodi-0.dtd"
   xmlns:inkscape="http://www.inkscape.org/namespaces/inkscape"
   width="1000"
   height="1000"
   id="svg2"
   sodipodi:version="0.32"
   inkscape:version="0.46"
   version="1.0"
   sodipodi:docname="u.svg"
   inkscape:output_extension="org.inkscape.output.svg.inkscape">
  <defs
     id="defs4">
    <inkscape:perspective
       sodipodi:type="inkscape:persp3d"
       inkscape:vp_x="0 : 526.18109 : 1"
       inkscape:vp_y="0 : 1000 : 0"
       inkscape:vp_z="744.09448 : 526.18109 : 1"
       inkscape:persp3d-origin="372.04724 : 350.78739 : 1"
       id="perspective10" />
  </defs>
  <sodipodi:namedview
     id="base"
     pagecolor="#ffffff"
     bordercolor="#666666"
     borderopacity="1.0"
     gridtolerance="10000"
     guidetolerance="10"
     objecttolerance="10"
     inkscape:pageopacity="0.0"
     inkscape:pageshadow="2"
     inkscape:zoom="0.466"
     inkscape:cx="422.6299"
     inkscape:cy="500"
     inkscape:document-units="px"
     inkscape:current-layer="layer1"
     showgrid="false"
     showguides="true"
     inkscape:guide-bbox="true"
     inkscape:window-width="839"
     inkscape:window-height="680"
     inkscape:window-x="0"
     inkscape:window-y="10">
    <sodipodi:guide
       orientation="1,0"
       position="200.47021,984.78919"
       id="guide2383" />
    <sodipodi:guide
       orientation="0,1"
       position="493.56223,800.42918"
       id="guide2405" />
    <sodipodi:guide
       orientation="0,1"
       position="25.242205,200.06785"
       id="guide2407" />
  </sodipodi:namedview>
  <metadata
     id="metadata7">
    <rdf:RDF>
      <cc:Work
         rdf:about="">
        <dc:format>image/svg+xml</dc:format>
        <dc:type
           rdf:resource="http://purl.org/dc/dcmitype/StillImage" />
      </cc:Work>
    </rdf:RDF>
  </metadata>
  <g
     inkscape:label="Layer 1"
     inkscape:groupmode="layer"
     id="layer1">
    <path
       style="fill:#000000;fill-opacity:1;stroke:none;stroke-width:40.90000153;stroke-miterlimit:4;stroke-dasharray:none;stroke-opacity:1"
       d="M 511.38447,109.96477 C 315.53004,109.96477 156.16572,269.32909 156.16572,465.18352 C 156.16572,661.03795 315.53004,820.37099 511.38447,820.37102 C 707.2389,820.37102 866.60317,661.03795 866.60317,465.18352 C 866.60317,269.32909 707.2389,109.96477 511.38447,109.96477 z M 511.38447,150.83977 C 685.10943,150.83977 825.69697,291.45856 825.69697,465.18352 C 825.69694,638.90849 685.10943,779.49602 511.38447,779.49602 C 337.6595,779.49599 197.07197,638.90848 197.07197,465.18352 C 197.07197,291.45856 337.65951,150.83977 511.38447,150.83977 z"
       id="path3254" />
    <path
       style="font-size:40px;font-style:normal;font-weight:normal;fill:#000000;fill-opacity:1;stroke:none;stroke-width:1px;stroke-linecap:butt;stroke-linejoin:miter;stroke-opacity:1;font-family:Bitstream Vera Sans"
       d="M 395.96648,493.96087 L 395.96648,327.1093 L 441.24773,327.1093 L 441.24773,492.23821 C 441.24764,518.32423 446.33357,537.92968 456.50554,551.05462 C 466.6773,564.01559 481.9351,570.49605 502.27898,570.49602 C 526.72412,570.49605 546.00144,562.70309 560.11101,547.11712 C 574.38423,531.53125 581.52094,510.28518 581.52117,483.37884 L 581.52117,327.1093 L 626.80242,327.1093 L 626.80242,602.7343 L 581.52117,602.7343 L 581.52117,560.40618 C 570.52876,577.14058 557.7319,589.60932 543.13054,597.81243 C 528.69287,605.85149 511.87648,609.87102 492.68132,609.87102 C 461.01715,609.87102 436.98202,600.02728 420.57586,580.33977 C 404.16955,560.65231 395.96644,531.85937 395.96648,493.96087 M 509.90789,320.46477 L 509.90789,320.46477"
       id="text3419" />
  </g>
</svg>
